<svg width="46" height="26" fill="none" xmlns="http://www.w3.org/2000/svg"><path d="M4.7 25.866.815 21.981V3.956L4.7.071h12.95l3.885 3.885v18.025l-3.885 3.885H4.7zm3.885-4.97h5.18l1.225-1.225V6.266l-1.225-1.225h-5.18L7.36 6.266v13.405l1.225 1.225zm19.999 4.97-3.71-3.43v-4.515h6.545v1.925l1.05 1.05h5.11l1.05-1.05v-3.85l-1.05-1.015h-7.385v-4.9h7.385l1.05-1.05v-2.94l-1.05-1.05h-5.11l-1.05 1.05v1.925h-6.545V3.501l3.675-3.43h12.74l3.885 3.885v6.02l-2.59 2.555 2.59 2.555v6.895l-3.885 3.885H28.584z" fill="url(#a)"/><defs><linearGradient id="a" x1="-1" y1="-6.632" x2="30.445" y2="27.834" gradientUnits="userSpaceOnUse"><stop stop-color="#E42BC8"/><stop offset="1" stop-color="#5670FD"/></linearGradient></defs></svg>