<svg width="45" height="27" fill="none" xmlns="http://www.w3.org/2000/svg"><path d="M3.978 26.731.093 22.846V4.821L3.978.936h12.95l3.885 3.885v18.025l-3.885 3.885H3.978zm3.885-4.97h5.18l1.225-1.225V7.131l-1.225-1.225h-5.18L6.638 7.131v13.405l1.225 1.225zm19.999 4.97-3.71-3.43v-4.9h6.825v2.31l1.015 1.05h4.83l1.05-1.05v-4.76l-1.05-1.05h-12.46V.936h19.32v5.18h-12.32v4.2h9.87l3.675 3.43v9.555l-3.675 3.43h-13.37z" fill="url(#a)"/><defs><linearGradient id="a" x1="-2" y1="-5.767" x2="29.379" y2="29.344" gradientUnits="userSpaceOnUse"><stop stop-color="#E42BC8"/><stop offset="1" stop-color="#5670FD"/></linearGradient></defs></svg>