<svg width="47" height="27" fill="none" xmlns="http://www.w3.org/2000/svg"><path d="M4.859 26.794.974 22.908V4.884L4.859.998h12.95l3.884 3.885V22.91l-3.885 3.885H4.858zm3.885-4.97h5.18l1.225-1.226V7.194l-1.225-1.225h-5.18L7.519 7.193V20.6l1.225 1.224zm19.438 4.97-3.675-3.43V4.427l3.675-3.43h14.07l3.675 3.43v4.34h-6.825V7.193l-1.225-1.225h-5.425l-1.26 1.225v3.5h11.165l3.675 3.43v9.24l-3.675 3.43H28.182zm4.27-4.97h5.775l1.225-1.226v-4.13l-1.225-1.225h-5.775l-1.26 1.225v4.13l1.26 1.226z" fill="url(#a)"/><defs><linearGradient id="a" x1="-1" y1="-5.705" x2="30.379" y2="29.406" gradientUnits="userSpaceOnUse"><stop stop-color="#E42BC8"/><stop offset="1" stop-color="#5670FD"/></linearGradient></defs></svg>