<svg width="46" height="26" fill="none" xmlns="http://www.w3.org/2000/svg"><path d="M4.683 25.929.798 22.044V4.019L4.683.134h12.95l3.885 3.885v18.025l-3.885 3.885H4.683zm3.885-4.97h5.18l1.225-1.225V6.329l-1.225-1.225h-5.18L7.343 6.329v13.405l1.225 1.225zm19.404 4.97-3.64-3.43v-7.28l2.94-2.695-2.31-2.065V3.564l3.675-3.43h12.25l3.675 3.43v6.895l-2.31 2.065 2.94 2.695v7.28l-3.71 3.43h-13.51zm4.515-15.89h4.515l1.225-1.225V6.329l-1.225-1.225h-4.515l-1.225 1.225v2.485l1.225 1.225zm-.385 10.92h5.32l1.225-1.225v-3.5l-1.225-1.225h-5.32l-1.225 1.225v3.5l1.225 1.225z" fill="url(#a)"/><defs><linearGradient id="a" x1="-1" y1="-6.569" x2="30.445" y2="27.896" gradientUnits="userSpaceOnUse"><stop stop-color="#E42BC8"/><stop offset="1" stop-color="#5670FD"/></linearGradient></defs></svg>