<svg width="75" height="30" viewBox="0 0 75 30" fill="none" xmlns="http://www.w3.org/2000/svg">
<path d="M61.8243 21.0738C61.2967 21.0707 60.8186 21.3844 60.6108 21.8695C60.4035 22.3552 60.5068 22.9176 60.873 23.2975C61.2398 23.6774 61.7983 23.8005 62.2907 23.6106C62.783 23.42 63.1133 22.9529 63.1288 22.4251C63.1393 22.0718 63.0069 21.729 62.7614 21.4747C62.5158 21.2198 62.1781 21.0757 61.8243 21.0738Z" fill="white"/>
<path d="M61.8243 15.6046C60.0287 15.6046 58.3067 16.3173 57.0357 17.5864C55.7646 18.8554 55.0489 20.5773 55.0453 22.3735C55.0416 24.1696 55.751 25.8941 57.0171 27.168C58.2833 28.442 60.0027 29.1609 61.799 29.1683C63.5946 29.1752 65.3196 28.4686 66.5957 27.2046C67.8717 25.9405 68.5935 24.2217 68.6041 22.4256C68.6146 20.6202 67.9052 18.8852 66.6322 17.6051C65.3599 16.3249 63.6291 15.6046 61.8243 15.6046ZM61.8243 25.2616C61.0598 25.2634 60.3256 24.9603 59.7844 24.4195C59.2438 23.8781 58.9407 23.1437 58.9425 22.3783C58.945 21.613 59.2518 20.8804 59.7955 20.3422C60.3398 19.8039 61.0758 19.505 61.8403 19.5112C62.6055 19.5174 63.3366 19.8286 63.8716 20.3756C64.4066 20.9225 64.7016 21.6601 64.6911 22.4253C64.6806 23.1796 64.3744 23.8998 63.8382 24.4306C63.3019 24.9608 62.579 25.2597 61.8243 25.2616Z" fill="white"/>
<path d="M14.0789 15.6046C12.2839 15.6089 10.5638 16.3248 9.29578 17.5956C8.02779 18.8664 7.31521 20.5884 7.31458 22.3838C7.31396 24.1793 8.02527 25.9018 9.29197 27.1732C10.5593 28.4447 12.2788 29.1625 14.0732 29.168C15.8681 29.173 17.592 28.4664 18.8667 27.2024C20.1415 25.9389 20.8633 24.2208 20.8732 22.4253C20.8819 20.618 20.1693 18.8819 18.8939 17.6017C17.6185 16.321 15.8856 15.6027 14.0789 15.6046ZM14.0789 25.2616C13.3144 25.2591 12.5826 24.9529 12.0451 24.4102C11.507 23.867 11.2076 23.1326 11.2126 22.3678C11.2175 21.6037 11.5262 20.8729 12.0711 20.3365C12.6154 19.8007 13.3514 19.5038 14.1153 19.5112C14.8792 19.5192 15.609 19.8304 16.1429 20.3774C16.6767 20.9244 16.9711 21.6612 16.9606 22.4254C16.9501 23.1827 16.6421 23.9048 16.1021 24.4362C15.5627 24.9671 14.8353 25.2635 14.0789 25.2616Z" fill="white"/>
<path d="M14.0788 21.0738C13.5519 21.0769 13.0787 21.3943 12.8758 21.8806C12.6735 22.3663 12.7805 22.9269 13.1486 23.3031C13.516 23.6799 14.0733 23.8005 14.5638 23.6087C15.0543 23.4175 15.3827 22.9516 15.3988 22.4251C15.4093 22.0687 15.2745 21.7235 15.0258 21.4686C14.7765 21.2143 14.4345 21.0713 14.0788 21.0738Z" fill="white"/>
<path d="M73.7507 15.2846C68.7518 11.9559 62.5423 10.1511 54.6924 9.76877L44.0698 2.31498C43.1915 1.69874 42.1845 1.28975 41.1255 1.11961C38.8221 0.789216 36.5002 0.59864 34.1739 0.549142C34.13 0.54543 34.0855 0.54543 34.041 0.549142H33.9395C30.2853 0.437773 26.6285 0.625861 23.0051 1.11156C22.0136 1.265 21.0673 1.63315 20.2322 2.18999L11.0389 8.28382H5.39981C4.63221 8.2863 3.89616 8.59194 3.35306 9.13518C2.8106 9.67842 2.50443 10.4147 2.50258 11.1826V12.3779C2.50258 12.7059 2.3832 13.0226 2.16672 13.2689L0.760796 14.8318V14.8312C0.194227 15.4511 -0.076082 16.2858 0.0185601 17.1204L0.690286 22.4253C0.774406 23.1282 1.11336 23.7759 1.64344 24.2455C2.17291 24.7151 2.857 24.9738 3.56462 24.9725H6.16557C5.89218 24.1509 5.75239 23.2909 5.75178 22.4253C5.75178 19.4443 7.34139 16.6897 9.92255 15.1992C12.5031 13.7087 15.6829 13.7087 18.2641 15.1992C20.8453 16.6897 22.4349 19.4443 22.4349 22.4253C22.4386 23.3038 22.2988 24.1774 22.0211 25.0115H53.9115C53.6282 24.1787 53.4835 23.3051 53.4816 22.4253C53.4816 19.4443 55.0719 16.6897 57.6524 15.1992C60.2335 13.7087 63.4134 13.7087 65.9946 15.1992C68.5751 16.6897 70.1653 19.4443 70.1653 22.4253C70.1684 23.3038 70.0286 24.1774 69.7509 25.0115H72.0946C72.8702 25.0115 73.6143 24.7009 74.1598 24.149C74.706 23.5971 75.0085 22.8497 74.9998 22.0737V17.6673C75.0091 16.7138 74.5399 15.8186 73.7507 15.2846ZM33.2606 9.76069H20.5529L18.2099 5.43214L21.1071 3.51844C21.7597 3.08534 22.4975 2.79763 23.2707 2.67451C26.5804 2.22408 29.9211 2.036 33.2606 2.11209V9.76069ZM34.823 9.76069L34.8224 2.15849C36.8506 2.21232 38.8744 2.38185 40.8833 2.66645C41.7097 2.79638 42.4953 3.1144 43.1799 3.59639L51.9587 9.7607L34.823 9.76069Z" fill="white"/>
</svg>
