<svg width="59" height="48" viewBox="0 0 59 48" fill="none" xmlns="http://www.w3.org/2000/svg">
<path d="M53.4143 18.9981H52.9225C52.3776 18.9986 51.8484 19.1813 51.4219 19.5154C50.9953 19.8501 50.6962 20.3172 50.5726 20.8408H48.2778V20.7495C48.2778 17.5466 46.9875 14.475 44.6916 12.2106C42.3957 9.94561 39.2811 8.67352 36.0343 8.67352H22.3592C19.1124 8.67352 15.9976 9.94563 13.7019 12.2106C11.4055 14.4751 10.1157 17.5466 10.1157 20.7495V20.8408H7.82093C7.6973 20.3172 7.39815 19.8501 6.97162 19.5154C6.54456 19.1813 6.01581 18.9986 5.47103 18.9981H4.97922C3.65843 18.9981 2.3922 19.5154 1.45839 20.4366C0.524583 21.3577 0 22.6066 0 23.9092V24.3383C0 24.7237 0.316819 25.0362 0.707496 25.0362H6.61573C7.2408 25.0351 7.77222 24.5864 7.86962 23.9773H10.1158V25.9563C8.10937 27.7309 6.96362 30.2629 6.96417 32.9212V38.084C6.96684 39.145 7.4699 40.1441 8.3251 40.7871H8.24161V44.4155C8.24161 45.2416 8.57448 46.0334 9.16638 46.6177C9.75827 47.2015 10.5616 47.5298 11.3986 47.5298H12.7509C13.5885 47.5298 14.3913 47.2015 14.9837 46.6177C15.5755 46.0334 15.9084 45.2416 15.9084 44.4155V41.5119H42.4855V44.4155C42.4855 45.2416 42.8184 46.0334 43.4103 46.6177C44.0022 47.2015 44.8055 47.5298 45.6425 47.5298H46.9949C47.8324 47.5298 48.6352 47.2015 49.2276 46.6177C49.8195 46.0334 50.1523 45.2416 50.1523 44.4155V40.7871H50.0689C50.9241 40.1442 51.4271 39.145 51.4298 38.084V32.9212C51.4303 30.2629 50.284 27.7309 48.2782 25.9563V23.9773H50.5243C50.6217 24.5864 51.1532 25.0351 51.7782 25.0362H57.6865C57.8743 25.0362 58.0541 24.9628 58.1868 24.8319C58.3196 24.701 58.3939 24.5236 58.3939 24.3384V23.9092C58.3939 22.6065 57.8695 21.3576 56.9356 20.4366C56.0016 19.5155 54.7346 18.9981 53.4143 18.9981ZM13.9315 20.7495C13.9315 18.5448 14.8194 16.4307 16.3998 14.872C17.9801 13.3133 20.124 12.4375 22.3588 12.4375H36.0333C38.2686 12.4375 40.412 13.3132 41.9924 14.872C43.5732 16.4307 44.4612 18.5448 44.4612 20.7495V22.3177C39.4119 21.4995 34.3117 21.0281 29.1963 20.9077C19.1127 20.9077 13.9315 22.3177 13.9315 22.3177V20.7495ZM13.8635 35.7987C12.8569 35.8003 11.8914 35.407 11.1797 34.7055C10.4679 34.004 10.0676 33.0524 10.0676 32.06C10.0676 31.0676 10.4679 30.1159 11.1797 29.4145C11.8914 28.7135 12.8569 28.3202 13.8635 28.3213C15.9571 28.3213 19.6005 29.9951 19.6005 32.06C19.6005 34.1249 15.9565 35.7987 13.8635 35.7987ZM36.0086 38.3745C36.0086 38.5545 35.8604 38.7007 35.6779 38.7007H22.7146C22.5316 38.7007 22.3838 38.5545 22.3838 38.3745V35.8276C22.3838 35.6476 22.5315 35.5014 22.7146 35.5014H35.6779C35.8604 35.5014 36.0086 35.6476 36.0086 35.8276V38.3745ZM48.3195 32.06C48.3195 33.0518 47.9203 34.0024 47.2096 34.7039C46.4984 35.4049 45.5345 35.7986 44.529 35.7986C42.4355 35.7986 38.792 34.1248 38.792 32.0599C38.792 29.995 42.4355 28.3212 44.529 28.3212C45.5346 28.3212 46.4984 28.715 47.2096 29.4165C47.9203 30.1175 48.3195 31.0688 48.3195 32.06Z" fill="white"/>
<path d="M22.8791 0.515381H35.5145C35.8179 0.515381 36.109 0.634148 36.3236 0.845811C36.5377 1.05748 36.6587 1.34462 36.6587 1.64338V6.27461H21.7363V1.64338C21.7363 1.34462 21.8562 1.05748 22.0708 0.845811C22.2854 0.634146 22.5763 0.515381 22.8791 0.515381Z" fill="white"/>
</svg>
