<svg width="50" height="53" viewBox="0 0 50 53" fill="none" xmlns="http://www.w3.org/2000/svg">
<path fill-rule="evenodd" clip-rule="evenodd" d="M16.786 35.6914C16.6039 36.2381 16.057 36.6027 15.6929 37.1495H34.0958C33.7313 36.6027 33.0027 36.2381 33.0027 35.6914H16.786ZM36.2822 35.5093L49.219 49.3615C50.3121 50.6375 49.219 53.3716 48.1259 52.2777L45.0282 48.8149H4.75945L1.66177 52.2777C0.386187 53.3711 -0.706937 50.6371 0.568671 49.3615L13.5055 35.5093C10.0437 34.598 7.49256 31.4993 7.49256 27.6719V8.3518C7.49256 4.15971 10.9543 0.514404 15.3275 0.514404H34.4597C38.8325 0.514404 42.2947 4.15971 42.2947 8.3518V27.6719C42.2947 31.4994 39.7443 34.598 36.2822 35.5093ZM30.2693 3.97785C31.7269 3.97785 31.7269 6.34729 30.2693 6.34729H19.5191C18.0615 6.34729 18.0615 3.97785 19.5191 3.97785H30.2693ZM36.1001 8.35202C38.1043 8.35202 39.5619 9.81008 39.5619 11.8148V19.6522C39.5619 21.6569 38.1043 23.115 36.1001 23.115H13.6883C11.6842 23.115 10.2266 21.6569 10.2266 19.6522V11.8148C10.2266 9.81008 11.6842 8.35202 13.6883 8.35202H36.1001ZM14.2355 26.0312C15.6931 26.0312 16.9687 27.3072 16.9687 28.7652C16.9687 30.2233 15.6931 31.3168 14.2355 31.3168C12.7779 31.3168 11.5023 30.2233 11.5023 28.7652C11.5023 27.3072 12.7779 26.0312 14.2355 26.0312ZM35.5541 26.0312C34.0965 26.0312 32.8209 27.3072 32.8209 28.7652C32.8209 30.2233 34.0965 31.3168 35.5541 31.3168C37.0117 31.3168 38.2873 30.2233 38.2873 28.7652C38.2873 27.3072 37.0117 26.0312 35.5541 26.0312ZM13.6895 39.3361L11.3208 41.7056V41.8877H38.4696V41.7056L36.1009 39.3361H13.6895ZM9.13346 44.0749L6.94688 46.4443L6.76484 46.6264H43.0247L42.8426 46.4443L40.656 44.0749H9.13346Z" fill="white"/>
</svg>
