<svg width="45" height="53" viewBox="0 0 45 53" fill="none" xmlns="http://www.w3.org/2000/svg">
<path d="M23.5976 0.514404C20.9263 0.514404 18.7608 2.68061 18.7608 5.35321C18.7608 8.02529 20.9263 10.192 23.5976 10.192C26.2689 10.192 28.4344 8.0258 28.4344 5.35321C28.4344 2.68112 26.2689 0.514404 23.5976 0.514404ZM43.3033 8.39593L31.8728 8.98212C31.2718 8.98212 29.8703 9.77637 28.8689 10.173C27.6669 11.3618 25.2685 12.5543 23.4656 12.5543C21.6626 12.5543 19.8687 11.9666 18.6667 10.7777H9.63557L0.62333 13.159C-0.578638 14.9426 0.0293356 16.7126 1.83228 16.7126L9.0495 14.936L16.8522 15.5217L13.8484 25.6338C13.2474 28.012 14.4484 30.4002 16.8522 32.7784L12.0534 40.4898C12.0534 42.868 14.4444 43.4642 16.2478 41.6807L22.2562 32.7785L25.8651 33.3642L19.8568 42.8715C19.8568 44.6551 22.2667 45.2513 24.0701 44.0624L32.4779 32.1737C33.0789 30.9849 32.4864 29.1959 30.6829 28.6016L25.2796 27.4108L28.2835 16.1267C30.0864 15.5321 31.8838 14.1501 33.6868 13.1594L43.908 11.9685C45.1099 10.7797 45.1063 8.99019 43.3033 8.39593ZM1.18639 41.5078C1.13203 42.078 1.54098 42.6567 2.09659 42.7959L6.40417 44.0621C6.19769 44.4183 6.06402 44.8304 6.06402 45.2719C6.06402 46.608 7.14679 47.691 8.48236 47.691C9.77765 47.691 10.819 46.6653 10.8818 45.3851L22.2176 48.7306C21.9478 49.1208 21.7832 49.5997 21.7832 50.1106C21.7832 51.4466 22.866 52.5297 24.2016 52.5297C25.7083 52.5621 26.5766 51.4995 26.6199 50.0347C29.3574 50.9602 32.0163 49.9923 33.5349 48.5416C33.9848 48.0911 33.9848 47.2719 33.5349 46.8214C33.0851 46.3708 32.2656 46.3709 31.8157 46.8214C31.0342 47.6031 28.8418 48.1804 27.6971 47.8421L2.79493 40.471C2.06278 40.2659 1.26376 40.7434 1.18639 41.5078Z" fill="white"/>
</svg>
