<svg width="53" height="42" viewBox="0 0 53 42" fill="none" xmlns="http://www.w3.org/2000/svg">
<path fill-rule="evenodd" clip-rule="evenodd" d="M38.7971 22.4709L38.5235 21.4978C38.3594 20.9036 38.7269 20.2868 39.3525 20.1309C39.9781 19.975 40.6274 20.324 40.7916 20.9182L41.0889 21.9733C41.4641 21.936 41.8476 21.914 42.2389 21.914C47.9413 21.914 52.5641 26.3047 52.5641 31.7212C52.5641 37.1377 47.9415 41.5285 42.2389 41.5285C36.5363 41.5285 31.9136 37.1377 31.9136 31.7212C31.9136 27.4565 34.7922 23.8163 38.7971 22.4715L38.7971 22.4709ZM20.6112 32.6126C20.1343 37.6054 15.7067 41.5285 10.3252 41.5285C4.62278 41.5285 0 37.1377 0 31.7212C0 26.3047 4.62264 21.9139 10.3252 21.9139C15.5425 21.9139 19.8685 25.5992 20.5565 30.3837H22.2929C22.9422 30.3837 23.4661 30.8813 23.4661 31.498C23.4661 32.1148 22.9422 32.6124 22.2929 32.6124L20.6112 32.6126ZM39.471 24.8483C36.561 25.9107 34.4963 28.5855 34.4963 31.7208C34.4963 35.7772 37.9695 39.0762 42.2402 39.0762C46.5108 39.0762 49.984 35.7772 49.984 31.7208C49.984 27.6644 46.5108 24.3655 42.2402 24.3655C42.0838 24.3655 41.9274 24.3728 41.771 24.3802L43.6951 31.208C43.867 31.8022 43.4918 32.4116 42.8662 32.5749C42.2406 32.7308 41.599 32.3818 41.4271 31.7876L39.4714 24.8484L39.471 24.8483ZM17.9447 30.3834C17.2799 26.9585 14.1195 24.3655 10.3258 24.3655C6.05513 24.3655 2.58194 27.6644 2.58194 31.7208C2.58194 35.7772 6.05513 39.0762 10.3258 39.0762C14.2836 39.0762 17.5458 36.2528 18.0149 32.6126H9.62161C8.97228 32.6126 8.44839 32.115 8.44839 31.4982C8.44839 30.8814 8.97228 30.3838 9.62161 30.3838H17.9441L17.9447 30.3834ZM12.1483 18.7931C12.0311 18.6519 11.9217 18.5033 11.8278 18.3474C10.7093 16.505 11.3741 14.1571 13.3061 13.0947L25.8452 6.22218C27.7771 5.15978 30.2568 5.79124 31.3753 7.62635C31.9539 8.57746 32.0556 9.66974 31.7428 10.6503L35.5051 16.8393L47.2776 18.4146C47.2776 18.4146 37.6797 19.7 34.4729 20.131C34.3944 20.1384 34.3165 20.1384 34.2303 20.131C34.0661 20.131 33.886 20.109 33.7141 20.0643C33.2289 19.9457 32.8537 19.6707 32.6818 19.3657C32.6426 19.3137 32.6034 19.2618 32.5724 19.2025L29.0212 13.3551L19.7206 18.4518L29.7015 22.2783C30.2801 22.5013 30.6791 22.9617 30.82 23.4966C30.8355 23.5412 30.8592 23.5858 30.8747 23.6304C31.1013 24.2844 30.9919 25.0051 30.5696 25.5694C27.5971 29.5738 21.9499 37.1896 21.9499 37.1896L26.4791 24.886L14.1436 20.1609C13.3301 19.953 12.6261 19.4623 12.1491 18.794L12.1483 18.7931ZM25.5165 5.81312C25.7199 5.69448 25.8685 5.51602 25.931 5.30031C25.9857 5.07725 25.9542 4.84731 25.837 4.65415C25.8216 4.62424 25.7978 4.59483 25.7823 4.55757C25.4148 3.96337 24.8125 3.52507 24.1084 3.34663C23.4044 3.16818 22.6533 3.2574 22.0278 3.60646C19.6344 4.914 16.0987 6.85346 14.5497 7.70013C14.3463 7.81878 14.1977 7.99724 14.1352 8.21294C14.0728 8.43601 14.1038 8.66595 14.2214 8.8591C14.5265 9.34936 14.9177 9.99603 15.215 10.4863C15.3322 10.6795 15.5278 10.8207 15.7549 10.88C15.9815 10.932 16.2241 10.902 16.4275 10.7908C18.3909 9.71365 23.5536 6.88284 25.517 5.81264L25.5165 5.81312ZM37.5471 4.01536V4.08203C37.5471 6.05099 35.8654 7.6482 33.7926 7.6482C31.7198 7.6482 30.0381 6.05087 30.0381 4.08203C30.0381 2.1132 31.7198 0.515869 33.7926 0.515869C34.4574 0.515869 35.0912 0.67913 35.6306 0.97672C35.6461 0.97672 35.6621 0.984072 35.6776 0.99878C37.5234 1.97195 41.5287 4.08199 41.5287 4.08199L37.5471 4.01536Z" fill="white"/>
</svg>
