<svg width="47" height="53" viewBox="0 0 47 53" fill="none" xmlns="http://www.w3.org/2000/svg">
<path d="M2.79481 38.2771H9.97528C10.6878 38.2771 11.4003 37.9483 11.8389 37.4544L14.5797 34.4384L11.8389 29.8867L8.87898 33.1768H2.84956C1.42455 33.1768 0.328134 34.3284 0.328134 35.6993C0.273428 37.1254 1.36935 38.2771 2.79481 38.2771V38.2771Z" fill="white"/>
<path d="M41.3286 41.7296L36.1216 18.646C36.0122 18.0979 35.5185 17.6592 34.9158 17.6592H31.024C31.1334 18.0432 31.2433 18.4818 31.2433 18.9201C31.2433 19.3588 31.1886 19.7428 31.024 20.181H33.9293L37.6015 36.4106L31.2981 44.306C30.4757 45.2929 29.3246 45.8961 28.0094 45.8961H21.8154L23.5696 37.3974C23.679 36.7941 23.5696 36.1365 23.2409 35.5879L19.1298 28.7341L20.6095 19.8518C21.9251 20.6744 23.4049 21.1127 24.9399 21.1127L27.1869 21.1132C28.3927 21.1132 29.4343 20.1263 29.4343 18.865C29.4343 17.6588 28.4478 16.6168 27.1869 16.6168H24.9394C24.0623 16.6168 23.1852 16.2881 22.4727 15.7395L19.7867 13.5465C19.1289 12.8885 18.307 12.3951 17.2653 12.1211C15.0178 11.6277 12.99 12.6692 12.387 14.5885C11.6745 16.9461 12.0583 26.1577 12.0583 26.267C12.0583 26.7056 12.2229 27.0896 12.4422 27.4731L18.4169 37.3426L16.6627 45.8961H10.6885C10.1405 43.4838 8.00247 41.6743 5.4263 41.6743C2.41158 41.6743 0 44.1417 0 47.1023C0 50.1179 2.46668 52.5302 5.4263 52.5302C8.00247 52.5302 10.1401 50.7208 10.6885 48.3084H28.0092C30.0373 48.3084 31.9557 47.3763 33.2161 45.7862L38.3137 39.4261L38.9715 42.2224C37.1626 43.0998 35.9021 44.964 35.9021 47.1022C35.9021 50.1178 38.3688 52.5301 41.3284 52.5301C44.3431 52.5301 46.7547 50.0627 46.7547 47.1022C46.7547 44.1413 44.3431 41.729 41.3284 41.729L41.3286 41.7296ZM5.37123 50.1184C3.72689 50.1184 2.41126 48.8024 2.41126 47.1576C2.41126 45.5127 3.72689 44.1967 5.37123 44.1967C6.57702 44.1967 7.56348 44.9094 8.05724 45.8963H5.37123C4.7134 45.8963 4.11069 46.4444 4.11069 47.1572C4.11069 47.8152 4.65866 48.4181 5.37123 48.4181H8.05724C7.61823 49.4059 6.57702 50.1187 5.37123 50.1187V50.1184ZM41.3286 50.1184C39.6842 50.1184 38.3686 48.8024 38.3686 47.1576C38.3686 46.2255 38.8072 45.3481 39.5197 44.8L40.1228 47.4316C40.2322 47.9797 40.7806 48.4184 41.3286 48.4184C41.438 48.4184 41.4932 48.4184 41.6026 48.3637C42.2604 48.1991 42.699 47.541 42.5344 46.8835L41.9313 44.2519C43.2469 44.526 44.2881 45.7321 44.2881 47.1581C44.2886 48.8025 42.9182 50.1185 41.3286 50.1185L41.3286 50.1184Z" fill="white"/>
<path d="M19.9941 1.55297C22.266 3.26633 22.7195 6.49853 21.0068 8.7714C19.2942 11.0447 16.0639 11.4984 13.7915 9.78502C11.5192 8.07166 11.0657 4.83946 12.7783 2.56659C14.4914 0.293261 17.7218 -0.160408 19.9941 1.55297" fill="white"/>
</svg>
