<svg width="22" height="30" fill="none" xmlns="http://www.w3.org/2000/svg"><path fill-rule="evenodd" clip-rule="evenodd" d="m12.924 27.479-1.927 2.52-1.913-2.518C8.208 26.338.506 16.131.506 10.791.506 4.337 4.723.002 11 .002s10.494 4.335 10.493 10.789c0 4.958-6.559 14.026-8.57 16.688zM11 4.25c-3.655 0-6.627 2.964-6.627 6.606 0 3.643 2.972 6.607 6.627 6.607 3.654 0 6.627-2.964 6.627-6.607 0-3.642-2.973-6.606-6.627-6.606zm0 1.874c2.62 0 4.752 2.123 4.752 4.732 0 2.61-2.132 4.732-4.752 4.732-2.62 0-4.752-2.123-4.752-4.732S8.379 6.125 11 6.125z" fill="url(#a)"/><defs><linearGradient id="a" x1="16.024" y1=".003" x2="18.449" y2="22.011" gradientUnits="userSpaceOnUse"><stop stop-color="#B300BE"/><stop offset="1" stop-color="#11D9EB"/></linearGradient></defs></svg>