<svg width="102" height="113" fill="none" xmlns="http://www.w3.org/2000/svg"><path d="m50.929 5.347 44.105 25.398v50.797L50.93 106.94 6.823 81.542V30.745L50.93 5.347z" fill="#120D35"/><path d="M7.173 30.948 50.93 5.75l43.755 25.197v50.391L50.93 106.536 7.173 81.339V30.948z" stroke="url(#a)" stroke-width=".7"/><path d="m50.846 21 30.178 17.378v34.755L50.846 90.511 20.669 73.133V38.378L50.846 21z" fill="url(#b)" fill-opacity=".1"/><path fill-rule="evenodd" clip-rule="evenodd" d="M98.98 30.611v53.2l-48.048 27.668-.268-.154v.808l.268.154L99.68 84.215v-54.07l-.7.466zM50.932.808V0L2.184 28.072v56.03l.7-.465v-55.16L50.932.806z" fill="url(#c)"/><defs><linearGradient id="a" x1="50.929" y1="5.347" x2="50.929" y2="106.94" gradientUnits="userSpaceOnUse"><stop stop-color="#11D9EB"/><stop offset="1" stop-color="#D533CE"/></linearGradient><linearGradient id="b" x1="24.846" y1="34.635" x2="83.356" y2="107.116" gradientUnits="userSpaceOnUse"><stop stop-color="#11D9EB"/><stop offset="1" stop-color="#11D9EB" stop-opacity="0"/></linearGradient><linearGradient id="c" x1="50.932" y1="0" x2="50.932" y2="112.287" gradientUnits="userSpaceOnUse"><stop stop-color="#11D9EB"/><stop offset="1" stop-color="#D533CE"/></linearGradient></defs></svg>