<svg width="26" height="30" fill="none" xmlns="http://www.w3.org/2000/svg"><path fill-rule="evenodd" clip-rule="evenodd" d="M8.09 19.747c.49.284.97.663 1.458 1.047 1.052.83 2.14 1.689 3.451 1.689 1.31 0 2.399-.859 3.451-1.689.488-.384.968-.763 1.459-1.047.513-.297 1.1-.536 1.69-.776 1.246-.508 2.51-1.023 3.137-2.108.605-1.046.43-2.37.253-3.71-.085-.643-.17-1.29-.17-1.912 0-.622.085-1.27.17-1.912.177-1.34.352-2.663-.253-3.71-.628-1.085-1.891-1.6-3.138-2.107-.59-.24-1.176-.48-1.69-.777-.49-.283-.97-.662-1.458-1.047C15.398.858 14.31 0 13 0c-1.311 0-2.4.858-3.452 1.688-.488.385-.968.764-1.459 1.048-.513.297-1.099.535-1.688.776-1.247.508-2.51 1.022-3.138 2.107-.606 1.047-.43 2.37-.254 3.71.085.643.171 1.29.171 1.912 0 .622-.086 1.27-.17 1.913-.178 1.34-.353 2.663.253 3.71.627 1.084 1.89 1.599 3.137 2.107.59.24 1.176.479 1.69.776zM13 3.153c4.459 0 8.087 3.628 8.087 8.088 0 4.46-3.628 8.088-8.088 8.088-4.46 0-8.088-3.628-8.088-8.088 0-4.46 3.628-8.088 8.088-8.088zm8.21 16.789 3.787 6.89c.27.489.04.81-.51.711l-1.736-.309c-.55-.098-1.17.247-1.376.766l-.637 1.594c-.207.52-.597.543-.866.054l-3.705-6.743c.442-.297.85-.617 1.226-.914.454-.358.883-.696 1.279-.925.422-.245.946-.458 1.501-.684.34-.138.69-.281 1.038-.44zm-15.385.44c.555.226 1.079.44 1.501.684.396.23.825.567 1.279.925.376.297.784.618 1.226.915l-3.705 6.742c-.269.49-.659.466-.866-.053L4.624 28c-.207-.519-.827-.863-1.377-.765l-1.735.309c-.55.098-.78-.223-.51-.712l3.786-6.89c.348.159.698.302 1.037.44zm13.739-9.14a6.572 6.572 0 0 1-6.565 6.564 6.572 6.572 0 0 1-6.564-6.565 6.572 6.572 0 0 1 6.564-6.564 6.572 6.572 0 0 1 6.565 6.564z" fill="url(#a)"/><defs><linearGradient id="a" x1="16.142" y1="4.677" x2="14.391" y2="23.254" gradientUnits="userSpaceOnUse"><stop stop-color="#B300BE"/><stop offset="1" stop-color="#11D9EB"/></linearGradient></defs></svg>