<svg xmlns="http://www.w3.org/2000/svg" viewBox="0 0 210 210" style="enable-background:new 0 0 210 210" xml:space="preserve"><path d="m105 10 82.5 47.5v95L105 200l-82.5-47.5v-95L105 10z" style="fill:#361963"/><linearGradient id="a" gradientUnits="userSpaceOnUse" x1="253.33" y1="374.003" x2="253.33" y2="563.997" gradientTransform="translate(-148.32 -364)"><stop offset="0" style="stop-color:#11d9eb"/><stop offset="1" style="stop-color:#d533ce"/></linearGradient><path d="m23 57.8 82-47.2 82 47.2v94.4l-82 47.2-82-47.2V57.8z" style="fill:none;stroke:url(#a)"/><linearGradient id="b" gradientUnits="userSpaceOnUse" x1="253.32" y1="364" x2="253.32" y2="573.96" gradientTransform="translate(-148.32 -364)"><stop offset="0" style="stop-color:#11d9eb"/><stop offset="1" style="stop-color:#d533ce"/></linearGradient><path d="M195.2 57v99.9L105 208.8l-.5-.3v1.1l.5.3 91.2-52.5v-101l-1 .6zM105 1.1V0L13.8 52.5v104.8l1-.7V53.1l90.2-52z" style="fill-rule:evenodd;clip-rule:evenodd;fill:url(#b)"/><linearGradient id="c" gradientUnits="userSpaceOnUse" x1="229.675" y1="416.932" x2="278.095" y2="521.532" gradientTransform="translate(-148.32 -364)"><stop offset="0" style="stop-color:#11d9eb"/><stop offset="1" style="stop-color:#11d9eb;stop-opacity:0"/></linearGradient><path d="m105 39 56.4 32.5v65L105 169l-56.4-32.5v-65L105 39z" style="fill:url(#c);fill-opacity:.3"/></svg>