<svg width="732" height="413" xmlns="http://www.w3.org/2000/svg" fill="none"><path d="M727 122.74v132.43L651.784 396H132.431M592.44 17H82.757L1 170.076v92.473" stroke="url(#a)"/><g filter="url(#b)"><path d="m0 352.101 59.923 59.923H0v-59.923z" fill="url(#c)" fill-opacity=".3"/></g><g filter="url(#d)"><path d="M731.695 59.923 671.772 0h59.923v59.923z" fill="url(#e)" fill-opacity=".3"/></g><g filter="url(#f)"><path d="M93.954 29h622.16v220.303l-72.638 133.342H15V173.936L93.954 29z" fill="url(#g)" fill-opacity=".15"/><path d="M15.5 174.064 94.251 29.5h621.363v219.676l-72.435 132.969H15.5V174.064z" stroke="url(#h)"/></g><defs><linearGradient id="a" x1="1" y1="206.5" x2="727" y2="206.5" gradientUnits="userSpaceOnUse"><stop stop-color="#82F7CE"/><stop offset=".492" stop-color="#4630C7"/><stop offset="1" stop-color="#D750EC"/></linearGradient><linearGradient id="c" x1="29.962" y1="352.101" x2="29.962" y2="412.024" gradientUnits="userSpaceOnUse"><stop stop-color="#11D9EB"/><stop offset="1" stop-color="#11D9EB" stop-opacity=".3"/></linearGradient><linearGradient id="e" x1="701.734" y1="59.923" x2="701.734" y2="0" gradientUnits="userSpaceOnUse"><stop stop-color="#11D9EB"/><stop offset="1" stop-color="#11D9EB" stop-opacity=".3"/></linearGradient><linearGradient id="g" x1="129" y1="76" x2="617" y2="383" gradientUnits="userSpaceOnUse"><stop stop-color="#11D9EB"/><stop offset="1" stop-color="#5670FD"/></linearGradient><linearGradient id="h" x1="31.361" y1="320.74" x2="707.737" y2="299.544" gradientUnits="userSpaceOnUse"><stop stop-color="#E42BC8"/><stop offset=".529" stop-color="#5670FD"/><stop offset="1" stop-color="#1DCEF4"/></linearGradient><filter id="b" x="-46.329" y="305.772" width="152.582" height="152.582" filterUnits="userSpaceOnUse" color-interpolation-filters="sRGB"><feFlood flood-opacity="0" result="BackgroundImageFix"/><feGaussianBlur in="BackgroundImage" stdDeviation="23.165"/><feComposite in2="SourceAlpha" operator="in" result="effect1_backgroundBlur_446_951"/><feBlend in="SourceGraphic" in2="effect1_backgroundBlur_446_951" result="shape"/></filter><filter id="d" x="625.443" y="-46.329" width="152.582" height="152.582" filterUnits="userSpaceOnUse" color-interpolation-filters="sRGB"><feFlood flood-opacity="0" result="BackgroundImageFix"/><feGaussianBlur in="BackgroundImage" stdDeviation="23.165"/><feComposite in2="SourceAlpha" operator="in" result="effect1_backgroundBlur_446_951"/><feBlend in="SourceGraphic" in2="effect1_backgroundBlur_446_951" result="shape"/></filter><filter id="f" x="-31.329" y="-17.329" width="793.772" height="446.304" filterUnits="userSpaceOnUse" color-interpolation-filters="sRGB"><feFlood flood-opacity="0" result="BackgroundImageFix"/><feGaussianBlur in="BackgroundImage" stdDeviation="23.165"/><feComposite in2="SourceAlpha" operator="in" result="effect1_backgroundBlur_446_951"/><feBlend in="SourceGraphic" in2="effect1_backgroundBlur_446_951" result="shape"/></filter></defs></svg>