<svg width="332" height="186" fill="none" xmlns="http://www.w3.org/2000/svg"><path d="M330.883 48.25v58.192l-34.924 78.39H60.728M268.195 1.175H39.325L1.45 78.686v46.221" stroke="url(#a)"/><path d="m1 155.653 27.026 29.951H1v-29.951z" fill="url(#b)" fill-opacity=".3"/><path d="m331 30.951-27.026-29.95H331v29.95z" fill="url(#c)" fill-opacity=".3"/><path d="M43.375 8.173h280.598v97.337l-32.76 72.647H7.766v-97.54L43.375 8.172z" fill="url(#d)" fill-opacity=".15"/><path d="m8.266 80.733 35.42-72.06h279.787v96.729l-32.583 72.255H8.266V80.732z" stroke="url(#e)"/><defs><linearGradient id="a" x1="1.451" y1="93.004" x2="330.883" y2="93.004" gradientUnits="userSpaceOnUse"><stop stop-color="#82F7CE"/><stop offset=".492" stop-color="#4630C7"/><stop offset="1" stop-color="#D750EC"/></linearGradient><linearGradient id="b" x1="14.513" y1="155.653" x2="14.513" y2="185.604" gradientUnits="userSpaceOnUse"><stop stop-color="#11D9EB"/><stop offset="1" stop-color="#11D9EB" stop-opacity=".3"/></linearGradient><linearGradient id="c" x1="317.487" y1="30.951" x2="317.487" y2="1" gradientUnits="userSpaceOnUse"><stop stop-color="#11D9EB"/><stop offset="1" stop-color="#11D9EB" stop-opacity=".3"/></linearGradient><linearGradient id="d" x1="59.181" y1="31.665" x2="291.512" y2="163.549" gradientUnits="userSpaceOnUse"><stop stop-color="#11D9EB"/><stop offset="1" stop-color="#5670FD"/></linearGradient><linearGradient id="e" x1="15.145" y1="148.402" x2="320.231" y2="139.431" gradientUnits="userSpaceOnUse"><stop stop-color="#E42BC8"/><stop offset=".529" stop-color="#5670FD"/><stop offset="1" stop-color="#1DCEF4"/></linearGradient></defs></svg>