<svg width="22" height="17" fill="none" xmlns="http://www.w3.org/2000/svg"><path d="M18.624 1.41A17.932 17.932 0 0 0 14.146.003a.067.067 0 0 0-.041.005.07.07 0 0 0-.031.029c-.193.348-.407.803-.558 1.161a16.524 16.524 0 0 0-5.03 0A11.818 11.818 0 0 0 7.922.037a.072.072 0 0 0-.03-.03.069.069 0 0 0-.042-.006A17.92 17.92 0 0 0 3.37 1.409a.065.065 0 0 0-.03.025C.49 5.755-.292 9.97.092 14.13a.077.077 0 0 0 .029.052 18.151 18.151 0 0 0 5.493 2.814.07.07 0 0 0 .077-.025c.424-.585.801-1.204 1.124-1.853a.071.071 0 0 0-.038-.099 11.936 11.936 0 0 1-1.716-.829.072.072 0 0 1-.007-.118c.115-.088.23-.18.341-.27a.068.068 0 0 1 .071-.01c3.6 1.666 7.499 1.666 11.056 0a.067.067 0 0 1 .072.008c.11.093.225.184.341.272a.071.071 0 0 1 .028.06.072.072 0 0 1-.033.058c-.548.325-1.118.6-1.717.829a.071.071 0 0 0-.045.07c0 .01.003.02.008.029.33.648.707 1.266 1.122 1.853.009.012.021.02.035.025a.069.069 0 0 0 .042 0 18.093 18.093 0 0 0 5.502-2.814.071.071 0 0 0 .03-.051c.458-4.81-.769-8.99-3.254-12.695a.055.055 0 0 0-.028-.026zM7.352 11.596c-1.084 0-1.977-1.01-1.977-2.248 0-1.239.876-2.247 1.977-2.247 1.109 0 1.995 1.017 1.977 2.247 0 1.24-.876 2.248-1.977 2.248zm7.31 0c-1.084 0-1.977-1.01-1.977-2.248 0-1.239.875-2.247 1.977-2.247 1.11 0 1.995 1.017 1.977 2.247 0 1.24-.867 2.248-1.977 2.248z" fill="#fff"/></svg>