<svg width="21" height="17" fill="none" xmlns="http://www.w3.org/2000/svg"><path d="M20.912 2.017c-.77.34-1.595.57-2.464.675A4.3 4.3 0 0 0 20.334.317c-.841.5-1.763.852-2.724 1.041a4.292 4.292 0 0 0-7.31 3.914A12.184 12.184 0 0 1 1.455.79a4.292 4.292 0 0 0 1.328 5.729A4.28 4.28 0 0 1 .841 5.98v.056a4.292 4.292 0 0 0 3.442 4.207 4.32 4.32 0 0 1-1.938.073 4.293 4.293 0 0 0 4.008 2.979 8.61 8.61 0 0 1-5.329 1.837c-.342 0-.684-.02-1.024-.06A12.134 12.134 0 0 0 6.576 17c7.893 0 12.207-6.537 12.207-12.207 0-.184-.004-.37-.012-.554a8.721 8.721 0 0 0 2.139-2.22l.002-.002z" fill="#fff"/></svg>