<svg width="65" height="65" fill="none" xmlns="http://www.w3.org/2000/svg"><path fill-rule="evenodd" clip-rule="evenodd" d="M27.5 55C12.311 55 0 42.689 0 27.5S12.311 0 27.5 0 55 12.311 55 27.5 42.689 55 27.5 55zm0-44.688L10.312 27.5 27.5 44.688 44.688 27.5 27.5 10.312z" fill="url(#a)" fill-opacity=".2"/><path d="m27.854 9.959-.354-.354-.354.354L9.96 27.146l-.354.354.354.354L27.146 45.04l.354.354.354-.354L45.04 27.854l.354-.354-.354-.354L27.854 9.96zM27.5 54.5c-14.912 0-27-12.087-27-27 0-14.912 12.088-27 27-27 14.913 0 27 12.088 27 27 0 14.913-12.087 27-27 27z" stroke="url(#b)"/><defs><linearGradient id="a" x1="8.393" y1="32.464" x2="44.315" y2="34.485" gradientUnits="userSpaceOnUse"><stop stop-color="#CE43FF"/><stop offset="1" stop-color="#2DB3FF" stop-opacity=".9"/></linearGradient><linearGradient id="b" x1="1.283" y1="45.372" x2="54.382" y2="44.533" gradientUnits="userSpaceOnUse"><stop stop-color="#E42BC8"/><stop offset=".529" stop-color="#5670FD"/><stop offset="1" stop-color="#1DCEF4"/></linearGradient></defs></svg>