<svg width="180" height="28" fill="none" xmlns="http://www.w3.org/2000/svg"><path d="m29.834 21.466-4.951 5.316a1.143 1.143 0 0 1-.839.366H.575a.575.575 0 0 1-.422-.968L5.1 20.865a1.144 1.144 0 0 1 .838-.367h23.469a.573.573 0 0 1 .428.968zM24.883 10.76a1.159 1.159 0 0 0-.839-.366H.575a.575.575 0 0 0-.422.967L5.1 16.68a1.157 1.157 0 0 0 .838.366h23.469a.576.576 0 0 0 .42-.968l-4.943-5.318zM.575 6.941h23.47a1.143 1.143 0 0 0 .838-.366l4.95-5.315a.573.573 0 0 0-.427-.968H5.936A1.144 1.144 0 0 0 5.1.658L.153 5.973a.577.577 0 0 0 .422.968z" fill="url(#a)"/><path d="M58.446 11.65H45.89V7.51h15.82V3.37H45.849a4.122 4.122 0 0 0-3.827 2.53c-.21.5-.32 1.037-.322 1.58v4.196a4.136 4.136 0 0 0 2.566 3.808c.502.206 1.04.31 1.583.307H58.42v4.14H41.998v4.14h16.448a4.123 4.123 0 0 0 3.827-2.53c.21-.5.32-1.036.322-1.579v-4.196a4.135 4.135 0 0 0-2.566-3.81 4.124 4.124 0 0 0-1.583-.306zM82.77 3.37H70.168a4.123 4.123 0 0 0-3.836 2.527 4.13 4.13 0 0 0-.324 1.582v12.483a4.13 4.13 0 0 0 4.16 4.11H82.77a4.12 4.12 0 0 0 3.827-2.53c.21-.501.32-1.038.323-1.58V7.479a4.134 4.134 0 0 0-2.569-3.804 4.122 4.122 0 0 0-1.58-.306zm-.03 16.56H70.198V7.51h12.536l.006 12.42zM126.915 3.37h-12.293a4.123 4.123 0 0 0-3.827 2.53 4.12 4.12 0 0 0-.322 1.579v16.592h4.191v-6.8h12.237v6.8h4.191V7.48a4.135 4.135 0 0 0-2.587-3.812 4.13 4.13 0 0 0-1.59-.298zm-.031 9.76h-12.237V7.51h12.237v5.62zM175.851 3.37h-12.293a4.123 4.123 0 0 0-3.827 2.53 4.12 4.12 0 0 0-.322 1.58v16.592h4.191V17.27h12.209v6.8H180V7.48a4.133 4.133 0 0 0-2.568-3.804 4.123 4.123 0 0 0-1.581-.305zm-.042 9.76h-12.237V7.51h12.237v5.62zM151.502 19.931h-1.677l-5.993-14.827a2.761 2.761 0 0 0-2.559-1.734h-3.719a2.751 2.751 0 0 0-2.766 2.741v17.96h4.191V7.51h1.677l5.99 14.827a2.775 2.775 0 0 0 2.57 1.723h3.719a2.742 2.742 0 0 0 1.95-.797 2.752 2.752 0 0 0 .816-1.944V3.369h-4.199v16.562zM94.813 3.37h-4.191v16.592a4.134 4.134 0 0 0 4.163 4.11h12.572v-4.14H94.813V3.37z" fill="#fff"/><defs><linearGradient id="a" x1="2.531" y1="27.789" x2="27.176" y2=".041" gradientUnits="userSpaceOnUse"><stop offset=".08" stop-color="#9945FF"/><stop offset=".3" stop-color="#8752F3"/><stop offset=".5" stop-color="#5497D5"/><stop offset=".6" stop-color="#43B4CA"/><stop offset=".72" stop-color="#28E0B9"/><stop offset=".97" stop-color="#19FB9B"/></linearGradient></defs></svg>