<svg width="1881" height="473" fill="none" xmlns="http://www.w3.org/2000/svg"><g opacity=".7" fill="#4630C7"><path d="M1400.35 275.738c.67-.222 1.33-.111 1.89 0 .66.222 1.33.111 1.89.444.66.222 1.11.667 1.66 1 .45.222 1.11.666 1.44 1.221 1.34 2.11 4.22 1.999 6.55 2.554 1.23.111 2.56.556 3.45 1.555.77.999 1.99 1.333 3.1 1.888 2.11 1.11 4.56 2.554 5.44 4.886.56 1.221 1 2.332 1.78 3.331.78 1 1.89 1.444 3.11 1.888 2.22.999 4.55 1.888 6.44 3.553 1.99 1.666 3.99 2.999 6.1 4.331 2.11 1.444 4.33 2.554 6.44 3.887 1 .555 2 1.332 3.11 2.11 1 .666 1.55 1.888 2.22 2.887 1.11 2.332 3.11 3.887 5.22 5.108 2.22 1.222 3.99 2.887 5.88 4.553 1.67 1.777 2.67 4.553 5.22 5.108 4.99 1.444 7.66 6.33 10.21 10.328 4.11 2.665 8.99 4.664 11.77 8.883-2.78-4.219-7.66-6.218-11.77-8.772-.78-1-1.33-2.11-2-3.221-.77-.999-1.44-1.999-2.22-2.998-1.55-1.777-3.55-3.553-5.99-4.22-2.67-.555-3.55-3.331-5.22-4.997-1.89-1.666-3.77-3.331-5.88-4.553-2.22-1.221-4.22-2.776-5.44-5.108-.56-.999-1.11-2.221-2.11-2.887-1-.777-2.11-1.444-3.11-2.11-2.11-1.222-4.33-2.443-6.44-3.776-2.11-1.332-4.22-2.776-6.1-4.33-1.89-1.666-4.22-2.555-6.44-3.554-1.11-.444-2.45-.888-3.22-1.999-.78-.999-1.22-2.221-1.78-3.22-.89-2.443-3.22-3.776-5.44-4.775-1-.666-2.33-1-3.11-1.999-.77-.999-1.99-1.333-3.22-1.555-1.22-.111-2.44-.333-3.66-.555-1.22-.333-2.55-.888-3.22-1.999-.22-.555-.78-.888-1.33-1.221-.56-.333-1-.778-1.56-.889-.55-.222-1.11-.222-1.77-.444-.67-.111-1.22-.222-1.78 0l-.11-.333zM1327.97 200.449c3.78-.111 7.44.222 11.1.999 3.55.889 7.03 2.11 10.44 3.665 6.77 2.887 12.99 6.663 19.31 10.105 3.22 1.777 6.44 3.443 9.77 4.886 1.67.667 3.33 1.333 5 1.888 1.66.444 3.44.555 5.22.666 7.21.111 14.54-1.332 21.86.333 3.67.778 7.33 2.999 8.66 6.774 1.34 3.665 1.45 7.329 2 10.883.45 3.553 1.45 6.996 3.78 9.772 2.22 2.776 5.1 5.108 7.66 7.662 5.21 5.108 10.54 9.994 15.09 15.769 4.78 5.663 7.22 12.77 11.44 18.656 2.11 2.887 4.77 5.552 8.32 6.218 3.45.667 7.11.222 10.77 0 7.22-.666 14.43-1.999 21.76-1.999 3.66 0 7.33.334 10.88 1.111 3.55.777 6.99 2.554 9.66 4.997 5.44 4.997 8.88 11.66 15.1 15.658 5.99 4.108 12.98 6.329 19.87 8.883 6.77 2.554 13.65 4.997 20.42 7.774 13.44 5.219 26.65 12.104 37.53 21.765-10.99-9.661-24.09-16.324-37.64-21.654-6.77-2.665-13.65-4.997-20.42-7.552-6.89-2.554-13.88-4.663-19.99-8.883-6.32-3.998-9.88-10.772-15.2-15.547-5.33-5.108-13.1-5.885-20.21-5.885-7.33 0-14.43 1.332-21.76 1.999-3.55.333-7.21.777-10.99.111-3.77-.667-6.66-3.554-8.77-6.552-4.33-5.886-6.77-12.993-11.43-18.434-4.55-5.663-9.99-10.549-15.21-15.657-2.55-2.555-5.44-4.775-7.77-7.774-1.11-1.443-2.11-2.998-2.78-4.886-.66-1.777-1-3.553-1.22-5.33-.55-3.665-.78-7.329-2-10.66-1.22-3.221-4.44-5.22-7.77-5.997-6.99-1.444-14.32-.111-21.64-.222-1.89 0-3.78-.111-5.56-.666-1.88-.556-3.55-1.111-5.21-1.888-3.44-1.444-6.66-3.109-9.88-4.886-6.44-3.443-12.66-7.107-19.32-9.994a57.04 57.04 0 0 0-10.21-3.443c-3.44-.777-7-.999-10.55-.888l-.11-1.777z"/><path d="m1379.48 220.548 9.1 4.109c3.11 1.443 6.11 3.109 8.66 5.441 2.45 2.443 4.11 5.552 5 8.884.78 3.331 1 6.662 1.11 10.105.22 6.663-.33 13.436-1.22 20.099-1.22 6.552-3.11 13.104-2.56 19.767.12 1.665.45 3.331 1.11 4.775.78 1.443 1.89 2.665 3.22 3.664 2.67 1.999 5.89 3.109 9 4.331 3.1 1.221 6.32 2.332 9.21 3.998 1.44.888 2.78 1.887 4 3.109 1.22 1.11 2.22 2.554 3.33 3.887 3.88 5.552 5.33 12.326 6.66 18.766.77 3.332 1.55 6.552 2.88 9.661 1.45 2.999 3.33 5.886 5.78 8.107a23.538 23.538 0 0 1-5.78-8.107c-1.33-3.109-2.22-6.329-2.99-9.661-1.45-6.44-2.89-13.214-6.78-18.655-1.11-1.333-2.1-2.666-3.33-3.776a18.538 18.538 0 0 0-3.88-2.998c-3-1.666-6.11-2.776-9.22-3.887-3.21-1.221-6.32-2.332-9.1-4.442-1.44-.999-2.66-2.221-3.44-3.775-.67-1.555-1-3.221-1.22-4.886-.56-6.885 1.33-13.437 2.44-19.989.89-6.663 1.33-13.325 1.11-19.988-.11-3.332-.44-6.663-1.22-9.883-.78-3.221-2.44-6.219-4.77-8.44-4.89-4.442-11.55-6.33-17.54-9.217l.44-.999zM912.341 269.631c13.432-4.886 27.309-8.662 41.074-11.882l20.76-4.775c6.883-1.555 13.543-3.442 20.204-5.663 13.431-4.331 26.531-9.661 39.741-14.881 6.55-2.554 13.21-5.108 19.98-7.44 6.55-2.221 13.99-4.775 21.65-4.108 7.66.555 14.43 4.33 20.54 7.773 6.22 3.664 12.21 6.996 18.65 9.772 12.88 5.552 26.42 9.772 40.07 12.659 13.66 3.221 27.87 2.11 42.19 3.11 7.1.555 14.43 1.776 21.2 4.775 6.66 3.109 12.32 8.217 16.43 14.325 1.89 3.22 3.22 6.662 4.78 9.661.66 1.554 1.55 3.109 2.55 4.33.89 1.333 2.22 2.332 3.55 3.332 5.55 3.887 12.43 5.774 19.21 7.44 13.76 2.998 27.86 5.774 41.4 9.994 6.78 2.221 13.55 4.997 19.65 8.662 6.22 3.664 11.66 8.773 16.21 14.103 4.66 5.441 9.1 10.882 13.32 16.657 2.07 2.887 4.07 5.848 6 8.883 1.88 2.999 3.44 6.441 4.55 9.773 2.22 6.773 3.77 13.769 6.66 20.099 1.55 3.109 3.44 6.108 6.66 7.551 3 1.555 6.44 2.554 9.88 3.332 6.77 1.776 13.99 2.443 20.76 4.775a585.935 585.935 0 0 0 20.43 5.663c6.88 1.703 13.8 3.257 20.76 4.664 6.88 1.555 13.87 2.554 20.87 4.109a164.625 164.625 0 0 1 20.31 6.218c6.55 2.554 13.1 5.553 18.76 9.772-5.66-4.219-12.21-7.107-18.87-9.661a141.584 141.584 0 0 0-20.32-5.885c-6.88-1.555-13.98-2.554-20.87-3.998a401.33 401.33 0 0 1-20.76-4.553 385.112 385.112 0 0 1-20.64-5.441c-6.66-2.221-13.77-2.887-20.65-4.553-3.55-.777-7-1.777-10.21-3.331-3.45-1.666-5.67-4.997-7.22-8.107-3.11-6.551-4.66-13.547-6.99-20.21-2.11-6.663-6.33-12.326-10.44-18.101a236.226 236.226 0 0 0-13.43-16.435c-4.55-5.33-9.66-9.994-15.77-13.547-5.99-3.554-12.54-6.219-19.31-8.329-13.43-4.109-27.31-6.663-41.3-9.55-6.88-1.666-13.99-3.553-20.2-7.773-1.56-1-3-2.221-4.22-3.776-1.22-1.554-2.11-3.109-2.89-4.775-1.66-3.22-3-6.552-4.66-9.439-3.77-5.552-9.1-10.327-15.32-12.992-6.22-2.776-13.21-3.887-20.09-4.331-13.99-.888-28.53.333-42.63-2.776a218.732 218.732 0 0 1-40.97-12.659c-6.55-2.777-12.98-6.219-19.09-9.662-6.22-3.553-12.32-6.773-18.87-7.107-6.66-.555-13.1 1.666-19.76 3.998-6.66 2.332-13.21 4.886-19.76 7.551-13.21 5.22-26.31 10.772-39.856 15.325a219.503 219.503 0 0 1-20.648 5.996l-20.648 4.886c-13.766 3.332-27.309 7.107-40.409 12.104l-1.998-5.552z"/><path d="M1222.95 262.302c5-4.553 11.55-6.552 17.43-7.885 6-1.443 11.55-2.332 16.77-4.886 10.76-4.441 20.64-10.993 30.08-18.1 9.44-7.107 18.43-14.88 27.64-22.654l13.88-11.215c4.55-3.887 8.88-8.107 14.1-11.66 2.66-1.666 5.55-3.221 8.77-3.998 3.11-.888 6.33-1.11 9.54-.999 6.22.333 12.22 1.776 17.99 2.776 11.54 2.332 23.42 1.888 35.08.333 11.65-1.888 23.2-4.886 34.41-8.662 11.33-3.997 22.43-8.106 32.64-14.103 20.65-11.882 38.52-27.983 55.4-44.751a722.67 722.67 0 0 0 12.54-12.882c4.11-4.22 7.66-9.106 12.1-13.325 2.22-2 4.66-4.22 7.99-4.775 3.44-.556 6.44 1.11 8.99 2.443 2.67 1.332 5.33 2.554 8.11 3.331 2.77.888 5.66.777 8.44 0 5.55-1.777 10.1-5.886 14.87-9.55 4.78-3.553 10.21-6.33 15.65-8.773 5.44-2.554 10.88-4.997 15.77-8.44 4.88-3.33 8.88-7.773 12.88-12.214 3.88-4.553 7.77-9.106 12.54-12.993 4.66-3.775 10.32-6.44 16.32-6.996 1.44-.11 3-.11 4.44-.222 1.55.074 3.07.111 4.55.111 2.89-.11 5.88-.444 8.77-1.555 5.66-1.998 10.1-6.218 14.77-9.883-4.67 3.665-9.11 7.996-14.77 10.106-2.77.999-5.77 1.443-8.77 1.554-1.48.074-3 .074-4.55 0-1.44.111-3 .111-4.44.222-5.88.667-11.44 3.332-15.99 7.107-4.66 3.776-8.43 8.44-12.32 12.993-3.88 4.553-7.99 8.995-12.88 12.548-4.88 3.554-10.43 6.108-15.87 8.662-5.33 2.443-10.66 5.219-15.32 8.883-4.66 3.554-9.22 7.885-15.21 9.773-3 .999-6.22 1.11-9.21.222-3-.889-5.78-2.11-8.44-3.443-2.67-1.332-5.44-2.665-7.99-2.11-2.67.334-5 2.443-7.11 4.331-4.22 4.109-7.66 8.995-11.88 13.437-4.1 4.331-8.21 8.661-12.43 12.992-16.76 16.99-34.64 33.425-55.4 45.751-10.43 6.219-21.75 10.55-33.08 14.659-11.32 3.997-22.98 7.218-34.97 9.105-11.99 1.888-24.31 2.443-36.41.111-5.88-.999-11.65-2.332-17.43-2.554-5.66-.111-10.99 1.222-15.65 4.442-4.66 3.221-8.88 7.44-13.43 11.438l-13.88 11.438c-9.1 7.773-18.09 15.768-27.64 23.098-9.55 7.329-19.76 14.213-31.08 19.1-11.44 5.441-24.65 4.663-32.42 11.993l-3.89-4.331zM1099.95 230.431c4.66-1.998 9.55-1.998 14.1-1.776 4.66.222 8.88.333 13.21-.444 8.66-1.444 17.32-4.664 25.2-8.551 7.66-4.109 13.77-11.327 22.31-15.547 4.33-1.998 9.22-3.109 14.1-2.332 4.78.778 8.88 3.11 12.99 4.442 2.11.667 4.22 1.111 6.22 1.111 2.11-.111 4.33-.556 6.44-1.111 4.33-.999 8.54-2.665 12.65-4.442l12.32-5.552c4.22-1.999 8.55-3.442 12.66-5.219 16.54-7.218 31.97-16.879 48.18-24.986 4.11-1.998 8.32-3.886 12.54-5.552 4.33-1.666 8.66-2.776 12.88-4.331a116.945 116.945 0 0 0 24.09-12.215c14.99-10.105 28.2-22.875 37.86-38.311 2.55-3.664 5.44-7.218 8.77-10.327 3.33-3.22 7.43-5.553 11.65-7.107 8.44-3.443 17.32-5.886 26.31-6.885 8.99-1.11 18.21-.666 27.09 1.666 8.77 2.331 16.87 6.995 23.42 13.214-6.66-6.219-14.76-10.771-23.53-12.992-8.77-2.221-17.99-2.665-26.98-1.444-8.88 1.11-17.76 3.553-26.09 6.996-4.21 1.666-8.1 3.998-11.32 7.107-3.33 2.998-6.11 6.663-8.66 10.327-9.55 15.547-22.76 28.539-37.85 38.756-7.55 5.108-15.66 9.439-24.2 12.659-4.33 1.555-8.66 2.776-12.88 4.442-4.11 1.665-8.22 3.553-12.32 5.552-16.1 8.218-31.42 17.879-48.07 25.43-4.22 1.888-8.55 3.331-12.55 5.219l-12.43 5.774c-4.11 1.777-8.44 3.554-12.88 4.664-2.22.667-4.55 1.111-6.99 1.222-2.44 0-4.89-.444-7.11-1.222-4.44-1.443-8.43-3.553-12.65-4.219-4.22-.667-8.55.333-12.44 2.22-7.77 3.887-13.76 10.994-22.09 15.658-8.32 4.22-16.87 7.44-26.08 9.106-9.33 1.999-18.88-1.222-26.54 2.11l-1.33-3.11z"/><path d="M1504.48 147.257c1.67.888 2.55 2.443 3.89 3.664 1.11 1.222 2.55 2.221 4.21 2.554 3.34 1 6.89.778 10.33.556 6.99-.556 13.99-.778 20.87 0 6.99.777 13.77 2.221 20.54 3.886 3.33.889 6.77 1.666 9.99 2.776a83.21 83.21 0 0 1 9.55 4.22l9.21 4.997c3 1.777 6.33 2.999 9.77 3.554 6.77 1.221 14.1.666 20.09 4.553 5.89 3.997 8.88 10.66 13.21 15.99 1.22 1.333 2.33 2.666 3.78 3.665.77.444 1.55.888 2.33 1.222.77.222 1.66.333 2.55.444 3.44 0 7.11-.889 10.21 1.11-3.1-1.999-6.77-1.11-10.21-1.11-.89-.111-1.78-.111-2.55-.444-.89-.334-1.56-.778-2.33-1.222-1.45-.999-2.67-2.332-3.78-3.554-4.44-5.33-7.32-12.104-13.21-15.99-5.99-3.887-13.32-3.332-20.2-4.553-3.44-.444-6.77-1.777-9.77-3.443l-9.1-4.997c-3.11-1.665-6.33-3.109-9.55-4.219-3.33-1.111-6.66-1.888-10.1-2.777-6.66-1.665-13.55-3.109-20.43-3.886-6.88-.667-13.88-.555-20.87.111-3.44.222-6.99.333-10.44-.555-1.66-.445-3.22-1.444-4.44-2.666-1.22-1.221-2.22-2.776-3.66-3.553l.11-.333zM1646.58 319.936c-5.11-1.888-9.99-4.442-15.21-6.219-5.11-1.888-10.55-2.777-15.99-3.554-5.33-.667-10.88-.778-16.32-.111-10.88 1.11-21.31 4.886-32.19 6.441-5.33.889-10.99.778-16.21-.666-2.77-.444-5.44-.444-8.21-.222-2.67.111-5.44.888-7.33 2.776l-.33-.222c2.11-1.999 4.99-2.665 7.66-2.887 2.77-.222 5.55-.222 8.21.222 5.33 1.555 10.77 1.555 16.21.666 10.88-1.444 21.31-5.109 32.19-6.33 5.44-.556 10.99-.445 16.43.222 5.33.777 10.77 1.666 15.99 3.554 5.11 1.888 9.99 4.331 15.1 6.33 5.1 1.999 10.65 3.11 16.09 2.221-5.44.889-10.99-.111-16.09-2.221zM1418.89 228.432c10.44 4.442 20.2 9.994 30.64 13.881 5.22 1.999 10.55 3.887 15.99 3.442 5.55-.111 10.99-1.443 16.65-2.109 11.21-1.222 22.64-1.111 33.63 1.998 5.44 1.555 10.77 3.554 15.88 5.886 5.11 2.332 9.88 5.441 14.65 8.328 9.44 6.108 20.21 9.55 31.42 9.995 11.1.555 22.31-1.111 33.53-1.333 11.21-.333 22.86 1.444 32.85 6.774 10.11 5.33 18.1 13.436 27.43 19.544 2.33 1.555 4.77 2.887 7.43 3.442 2.67.667 5.44.556 8.22.334 2.77-.222 5.66-.556 8.43-.445 2.89.111 5.67.667 8.33 1.555 5.44 1.666 10.55 4.109 15.54 6.663 5 2.776 8.77 7.107 12.44 11.438 3.55 4.219 6.88 8.772 11.1 12.437 2.11 1.888 4.44 3.442 6.99 4.553 2.55.999 5.22 1.666 7.99 1.777 5.67.333 10.99-1.666 16.66-2.11 2.88-.222 5.66.111 8.43.777 2.74.592 5.44 1.296 8.11 2.11a121.416 121.416 0 0 1 15.65 6.33c2.55 1.221 4.99 2.443 7.44 3.997 2.33 1.555 4.44 3.554 6.21 5.664 3.67 4.219 6.66 9.105 11.33 12.326 4.66 3.109 9.77 5.441 14.98 7.551 5.11 2.11 10.55 3.998 16.21 3.998 5.55.111 11.1-.889 16.65-1.777 5.55-1 11.1-1.777 16.77-1.333 5.66.556 10.76 3.11 15.87 5.331-5.11-2.221-10.32-4.775-15.87-5.22-5.67-.555-11.22.334-16.77 1.222-5.55.999-11.1 2.11-16.65 1.999-5.66 0-11.1-1.888-16.32-3.998-5.1-2.11-10.32-4.442-14.98-7.551-4.78-3.221-7.77-8.107-11.44-12.326-1.89-2.11-3.88-3.998-6.21-5.553-2.34-1.554-4.89-2.776-7.33-3.997-5.11-2.443-10.33-4.553-15.65-6.219-2.67-.814-5.37-1.518-8.11-2.11-2.66-.666-5.44-.888-8.21-.666-5.55.444-10.99 2.443-16.77 2.11-2.77-.111-5.55-.778-8.21-1.888-2.67-1.11-5-2.665-7.11-4.553-4.33-3.664-7.66-8.217-11.32-12.548-3.55-4.22-7.33-8.44-12.21-11.105-5-2.554-10.1-4.997-15.43-6.663-2.55-.777-5.33-1.332-8.11-1.443-2.77-.111-5.55.222-8.32.444-2.78.222-5.66.333-8.55-.333-2.77-.555-5.33-1.999-7.66-3.554-9.55-6.107-17.54-14.214-27.42-19.322-9.88-5.219-21.2-6.996-32.41-6.552-11.11.223-22.32 1.999-33.64 1.444-11.21-.333-22.43-3.998-31.97-10.105-4.78-2.887-9.55-5.886-14.55-8.218a101.268 101.268 0 0 0-15.65-5.663c-10.77-3.109-22.09-3.109-33.19-1.999-5.44.666-10.99 1.999-16.65 2.221-2.89.111-5.78 0-8.55-.888-2.78-.667-5.44-1.555-8.1-2.554-10.66-3.998-20.43-9.439-30.76-13.77l.67-1.666zM1083.63 225.323c1.56.555 2.34 1.999 3.22 3.11l2.56 3.553 5.1 7.218c3.22 4.886 7.77 8.773 12.44 12.215 2.44 1.777 4.77 3.554 7.32 4.886 2.67 1.222 5.55 1.999 8.44 2.665 2.89.556 5.66 1.555 8.44 2.332l4.33 1.222c1.33.555 2.77.888 4.1 1.443 5.78 1.444 10.44 5.553 14.88 9.217 2.33 1.888 4.55 3.776 6.88 5.553 1.22.777 2.56 1.332 4 1.554 1.55.222 3 .222 4.44.333 2.89.334 5.88 1.222 8.21 2.999 2.34 1.776 4.44 3.886 7.22 5.108 2.66.999 5.66 1.443 8.44 2.221 1.44.333 2.88.777 4.1 1.554l3.67 2.443-3.67-2.443c-1.22-.777-2.66-1.221-4.1-1.554-2.78-.778-5.78-1.111-8.44-2.221-2.78-1.111-4.88-3.332-7.22-4.997-2.33-1.888-5.32-2.665-8.21-2.998-1.44-.112-2.89-.112-4.44-.334-1.44-.222-2.89-.777-4-1.665-2.44-1.666-4.66-3.554-6.99-5.442-4.44-3.664-8.99-7.662-14.77-9.216-1.44-.445-2.88-.889-4.21-1.333l-4.22-1.222c-2.89-.777-5.66-1.776-8.55-2.332-2.78-.666-5.66-1.443-8.33-2.665-2.66-1.332-4.99-3.22-7.43-4.886-4.78-3.442-9.33-7.329-12.55-12.215l-5.11-7.218-2.66-3.553c-.89-1.111-1.55-2.554-2.89-2.999v-.333zM1271.8 300.946c.22-1.443 1-2.776 1.78-3.886.88-1.111 1.66-2.11 2.77-3.221 1-.999 2.78-1.221 4.11-.999 1.33.222 2.66.555 3.99.444 2.78-.111 5.33-.999 8-1.665 1.33-.223 2.77-.667 4.22-.445 1.33.111 2.44-.555 3.66-1.221 1.22-.777 2.89-1.111 4.22-.333.55.444 1.11.888 1.66 1.11.67.111 1.33.222 2 .222 2.67-.111 5.33-1.443 8.1-1.443 5.78-.222 10.22 4.664 15.88 4.108 5.44-.111 10.88-2.11 16.43-1.11 1.33.333 2.44 1.443 3.55 2.221l3.33 2.443c2.11 1.777 4.89 2.332 7.55 2.998 2.55.888 5.33.888 8.1 1.111 2.78.222 5.33 1.554 7.66 2.998 2.45 1.332 4.22 3.553 6.44 5.108 1.11.777 2.45 1.444 3.89 1.444 1.22-.111 2.77-.556 4 .333-1.23-.889-2.67-.444-4-.333-1.44 0-2.78-.667-3.89-1.444-2.22-1.555-4.1-3.776-6.44-5.108-2.33-1.444-4.88-2.665-7.66-2.887-2.77-.222-5.55-.222-8.21-1-2.66-.666-5.44-1.221-7.66-2.998l-3.22-2.554c-1.22-.777-2.22-1.777-3.55-2.11-5.33-.999-10.77 1.11-16.32 1.221-5.88.556-10.32-4.33-15.88-3.997-2.66 0-5.21 1.332-8.1 1.443-.67 0-1.44 0-2.11-.222-.78-.333-1.22-.777-1.89-1.11-1.11-.666-2.44-.444-3.66.333-1.11.666-2.44 1.444-3.88 1.222-1.45-.112-2.67.333-4 .555-2.67.666-5.33 1.665-8.22 1.776-2.77.334-5.66-1.665-7.66.445-1.66 1.999-3.88 4.108-4.33 6.662l-.66-.111zM1315.09 312.827c-.66 2.776.11 5.886 1.67 8.218 1.55 2.554 4.88 2.776 7.33 4.442 1.33.777 2.55 1.554 3.66 2.554 1.11.999 2.11 2.443 2.22 3.997 0 1.555-.22 2.888.11 4.442.22 1.333.33 2.999 1.33 3.998.45.555 1.11.888 1.67 1.444.55.444.89 1.221 1 1.998.11 1.555-.11 2.999-.22 4.442a28.89 28.89 0 0 0-.34 4.442c0 .666-.11 1.555.45 1.888.22.111.77-.111 1.11.222l.88.666c.67.444 1.23.778 1.78 1.444.44.555.56 1.332.67 2.11 0 1.443.11 2.887.33 4.331l.44 4.441c.11.667.11 1.555.67 1.999.67.333 1.44.667 1.89 1.222-.45-.555-1.22-.889-1.89-1.111-.56-.555-.56-1.443-.67-2.11l-.55-4.33a31.354 31.354 0 0 1-.33-4.442c-.12-.778-.23-1.555-.67-1.999-.56-.555-1.11-.999-1.78-1.444l-.88-.555c-.34-.333-.56-.111-1-.222-.78-.555-.67-1.444-.67-2.11 0-1.555.11-2.998.22-4.442.22-1.443.34-2.998.22-4.442 0-1.554-1.55-2.221-2.66-3.22-1.11-1.221-1.11-2.776-1.44-4.22-.34-1.443 0-2.998-.11-4.442-.34-2.887-3.22-4.664-5.67-6.107-1.22-.777-2.55-1.222-3.99-1.777-1.33-.555-2.78-1.444-3.67-2.665-1.55-2.554-2.44-5.663-1.77-8.773l.66.111z"/><path d="M1333.3 293.506a27.698 27.698 0 0 0 10.21 8.773c2.11.777 4.55 1.11 6.44 2.443 2.11 1.443 2.33 4.108 2.67 6.218.22 1.111.44 2.221 1 3.221.66.999 1.55 1.665 2.55 2.22 1.89 1.222 4.11 1.888 6.33 2.444 1.11.333 2.22.444 3.33 1.11 1 .444 1.88 1.221 2.66 1.999 1.67 1.665 2.67 3.886 5 4.664 1.99.888 4.33.999 6.55 1.554 2.22.556 4.44 1.333 6.44 2.554 1.99 1.111 3.44 2.999 5.55 3.998 1.11.222 2.22.111 3.33.222 1.22-.111 2.33.333 3.33.778 1.99 1.11 3.66 2.776 5.55 4.108l2.66 2.11c.89.778 1.89 1.555 3 1.333 1.22 0 2.33-.333 3.44-.333 1.11.111 2.22.555 3.11 1.221 1.89 1.333 3.33 3.332 5.66 3.887-2.33-.555-3.77-2.443-5.66-3.887-.89-.666-2-1.11-3.11-1.11-1.11-.111-2.22.222-3.44.333-1.22.111-2.11-.666-3-1.444l-2.66-2.11c-1.89-1.332-3.56-2.887-5.55-3.997-1-.556-2.11-.889-3.33-.889-1.11 0-2.22.111-3.45-.222-1.99-.888-3.55-2.776-5.55-3.886-1.88-1.222-4.1-1.999-6.32-2.555-2.22-.444-4.56-.666-6.66-1.554-2.34-.666-3.33-3.109-5-4.553-.78-.888-1.67-1.555-2.66-2.11-1-.555-2.22-.666-3.33-.999-2.11-.556-4.33-1.222-6.33-2.443-1-.556-2-1.333-2.56-2.332-.66-1-.88-2.11-1.11-3.221-.33-2.221-.66-4.775-2.55-5.996-1.89-1.333-4.22-1.666-6.33-2.443-4.22-1.999-7.88-5.219-10.43-8.773l.22-.333zM1248.26 193.897c1-2.776 2.78-5.108 4.67-7.329l2.88-3.22c.89-1.222 2.11-2.11 3.44-2.776 2.56-1.222 5-2.888 7.44-4.331 2.44-1.666 4.89-3.332 7.11-5.108 2.33-1.666 4.44-3.665 6.21-6.108l5.33-6.774 5.44-6.885 2.67-3.442c.88-1.111 1.66-2.332 2.88-3.221 1.11-.999 2.45-1.665 3.56-2.443 1.22-.777 2.33-1.776 3.33-2.776 2.11-1.999 4.33-3.997 6.66-5.663 4.55-3.665 8.77-7.662 12.32-12.215 4-4.442 4.66-10.55 8.1-15.325 3.11-4.886 7.44-9.217 12.99-11.326-5.55 2.11-9.88 6.44-12.99 11.326-3.33 4.775-4.1 10.883-7.99 15.325-3.55 4.664-7.88 8.661-12.32 12.326-2.33 1.666-4.55 3.664-6.66 5.663-1 1-2.11 1.999-3.33 2.776-1.22.889-2.45 1.555-3.56 2.444-1.22.888-1.88 2.109-2.88 3.22l-2.67 3.442-5.33 6.885-5.43 6.885c-1.67 2.332-3.78 4.331-6.11 6.108-2.33 1.776-4.77 3.442-7.11 5.108-2.55 1.443-4.88 3.109-7.54 4.442-1.34.666-2.45 1.443-3.33 2.554l-2.89 3.331c-1.78 2.221-3.55 4.553-4.55 7.218l-.34-.111zM1151.13 251.863c1.22-.444 2.22-1.888 3.22-2.887 1.11-1.11 2.22-2.11 3.11-3.22 1.88-2.332 3.88-4.664 6.32-6.441 2.34-1.777 4.78-3.665 7.55-4.997 2.67-1.333 5.55-2.11 8.55-2.665 3-.444 6-.555 8.99-.444 3 .111 6 .444 9 .222 2.99-.222 5.99-.778 8.77-1.777 2.77-1 5.55-2.443 8.54-2.665 1.56-.111 3.11.222 4.44.999 1.22.778 2.33 1.777 3.56 2.665 2.33 1.999 5.55 2.554 8.43 2.11 2.89-.666 5.66-1.777 8.55-2.665 2.89-1.11 5.88-1.444 8.77-2.11l4.44-.999 4.44-.666c1.45-.223 2.89-.556 4.44-.667 1.45-.111 3-.111 4.44-.111 1.56 0 3 0 4.55-.222 1.45-.333 2.89-.777 4.33-1.11l4.33-1.222c1.45-.333 2.89-.999 4.33-.999-1.44 0-2.88.666-4.33.999l-4.33 1.222c-1.44.333-2.88.777-4.33 1.11-1.55.222-2.99.333-4.55.333-1.44 0-2.99 0-4.44.111-1.55.111-2.99.444-4.44.667l-4.44.666-4.44.999c-2.89.667-5.88 1-8.66 2.11-2.88.889-5.66 1.999-8.66 2.665-2.88.444-6.21-.111-8.55-2.11-1.22-.888-2.22-1.887-3.55-2.665-1.33-.777-2.77-.999-4.33-.888-2.99.222-5.66 1.555-8.43 2.665-2.89.999-5.89 1.555-8.88 1.777-3 .222-6-.111-9-.222-2.99-.111-5.99 0-8.88.555-3 .444-5.88 1.332-8.55 2.554-2.66 1.333-5.1 3.22-7.54 4.997-2.34 1.888-4.33 3.998-6.22 6.441-.89 1.11-2 2.221-3.11 3.22l-1.55 1.666c-.56.444-1 1.11-1.89 1.332v-.333z"/><path d="M1219.96 228.211c1.44-1.888 2.77-3.887 4.88-5.109 2-1.332 4.44-1.665 6.66-2.332 4.44-1.665 9.44-.888 13.77-2.554 2.22-.888 3.22-3.22 5.1-4.775 1.89-1.443 3.89-2.776 6.11-3.553 4.44-1.888 9.32-.777 13.88-2.11 9.32-1.666 18.09-5.108 27.3-6.996 2.45-.111 4.67-.999 6.78-1.888 2.22-.888 4.22-2.11 6.21-3.22 1.11-.555 2.11-1.222 3.22-1.555 1.11-.333 2.33-.666 3.44-.999 1.11-.333 2-1.111 3.11-1.666 1-.555 2.11-1.11 2.67-2.11-.56 1-1.67 1.555-2.67 2.11-1.11.555-2 1.333-3.11 1.666-1.11.444-2.33.666-3.44.999-1.11.333-2.11 1-3.11 1.555-2.11 1.11-4.1 2.332-6.32 3.22-2.11 1-4.33 1.888-6.78 1.999-9.1 1.888-17.98 5.33-27.3 6.996-4.44 1.444-9.44.333-13.88 2.221-2.11.777-4.11 2.11-6 3.553-1.77 1.444-2.77 3.887-5.1 4.775-4.44 1.666-9.33.889-13.77 2.666-2.33.555-4.66.999-6.66 2.221-1.89 1.332-3.33 3.22-4.77 5.108l-.22-.222zM1364.38 364.576c2.34-.444 4.67-.999 7-.666 2.44.444 4.44 1.665 6.55 2.665 4.55 1.666 7.77 5.552 12.1 7.218 2.22.777 4.55-.333 6.99-.222 2.33.111 4.66.444 6.88 1.332 4.56 1.555 7.55 5.664 11.88 7.552 8 4.886 16.88 8.217 25.09 12.881 1.89 1.443 4.11 2.221 6.33 2.998 2.22.777 4.55 1.111 6.88 1.666 1.11.333 2.22.555 3.33.999 1.11.444 2.11 1 3.22 1.444 1.11.555 2.33.555 3.44.888 1.11.222 2.33.444 3.44.111-1.11.333-2.33.111-3.44-.111-1.11-.222-2.33-.333-3.44-.888-1.11-.444-2.11-1-3.22-1.444-1.11-.444-2.22-.666-3.33-.888-2.33-.555-4.66-1-6.88-1.777-2.22-.666-4.55-1.443-6.44-2.887-8.1-4.664-16.98-7.995-25.09-12.77-4.33-1.999-7.33-5.997-11.88-7.552-2.11-.888-4.44-1.221-6.77-1.332-2.33-.111-4.66 1.11-7.1.222-4.44-1.666-7.66-5.552-12.1-7.107-2.11-.999-4.11-2.332-6.44-2.665-2.33-.333-4.66.222-6.89.666l-.11-.333zM1476.51 245.201c-.34-1.666.66-2.888 1.33-3.887.78-1.111 1.66-2.11 2.55-2.998 1.56-2.11 3.44-3.998 5.77-5.331 2.22-1.443 5.11-1.332 7.55-1.665 2.45-.333 4.55-1.999 6.66-3.443 2-1.554 4.11-3.109 6.78-3.775 2.66-.445 5.21.222 7.77.222 2.55 0 5.1.111 7.66-.222 2.44-.333 4.88-1.333 7.55-1.666 2.55-.444 5.1-.444 7.66-.111 2.55.222 5.1.777 7.66.555 5.1-.444 9.54-3.775 14.87-3.886 2.55-.112 5.11.444 7.55 1.221 1.22.333 2.44.888 3.66.999 1.34.111 2.56-.222 3.78-.666 2.44-.777 4.66-2.11 6.99-3.109 2.44-1 5-1.222 7.55-1.777-2.55.555-5.11.777-7.55 1.888-2.33.888-4.55 2.221-6.99 3.109-1.22.444-2.44.778-3.78.778-1.33-.223-2.44-.778-3.66-1.111-2.44-.666-5-1.221-7.55-1.11-5.22.222-9.66 3.442-14.87 4.108-2.56.222-5.11-.333-7.66-.555-2.56-.333-5.11-.222-7.66.222-2.45.333-4.89 1.333-7.44 1.777-2.67.333-5.22.222-7.77.111-2.56.111-5.22-.555-7.55 0-2.44.555-4.55 2.11-6.55 3.665-2.11 1.443-4.22 3.109-7 3.553-2.55.333-5.1.333-7.21 1.666-2.22 1.221-4 3.109-5.55 5.108-.78.999-1.67 1.999-2.33 2.998-.78 1-1.45 2.11-1.22 3.109l-1 .223z"/><path d="M1528.24 222.88c4.33 2.332 8.88 3.998 13.54 5.22 2.37.592 4.74 1.073 7.11 1.444 2.44.222 4.77 1.11 6.88 2.332 2.11 1.221 4.22 2.443 6.66 2.554 2.44.222 4.77-.222 7.22-.666 2.33-.444 4.66-1 7.1-1.333 2.44-.333 4.89 0 7.22.778 2.33.777 4.55 1.776 6.88 2.443 2.33.555 4.77.555 7.21.888 4.78.556 9.66 1.222 14.44 1.555 4.88.111 9.65 0 14.54.333 2.44-.111 4.77-.555 7.21-.888 2.34-.444 4.78-1 6.78-2.554-2 1.554-4.44 2.11-6.78 2.554-2.44.444-4.77.777-7.21.888-4.89-.333-9.66-.111-14.54-.222-4.89-.333-9.66-.999-14.44-1.444-2.44-.333-4.88-.444-7.21-.999-2.44-.555-4.66-1.666-6.88-2.332-4.67-1.888-9.66-.445-14.32.555-2.34.444-4.78.888-7.22.666-2.55 0-4.66-1.332-6.77-2.554-2.11-1.111-4.44-1.999-6.77-2.221-2.45-.37-4.85-.889-7.22-1.555-4.66-1.111-9.32-2.777-13.54-5.109l.11-.333zM1476.28 165.247c3.56-7.884 7.78-15.657 13.88-22.098 3.22-2.998 7.55-4.331 10.77-7.218 3.33-2.665 6.1-6.108 8.44-9.661 4.33-7.551 3.22-16.99 6.99-24.986.89-1.999 2-3.886 3.33-5.552 1.33-1.666 3-3.331 5-4.33 3.99-1.667 7.32-4.443 10.32-7.552 3-3.11 5.66-6.552 8.44-9.994 2.66-3.443 5.55-6.663 8.21-9.994 1.44-1.666 2.89-3.332 4.11-5.109a35.3 35.3 0 0 0 2.89-5.774c.88-1.999 1.66-3.998 2.44-6.108.77-1.998 2.66-3.553 4.77-4.108 1-.333 2.11-.667 3-1.222 1-.444 1.77-1.221 2.55-1.999 1.33-1.665 2.33-3.553 3.22-5.552.78-1.999 1.44-4.109 2.33-6.108l2.89-5.885c.89-1.888 1.44-3.998 2.44-5.997 1.11-1.887 2.33-3.664 3.55-5.44 2.67-3.443 5.78-6.553 8.66-9.773-2.88 3.22-5.88 6.33-8.55 9.883-1.33 1.666-2.55 3.443-3.55 5.441-1.11 1.888-1.66 3.998-2.55 5.997l-2.78 5.886c-.88 1.998-1.55 3.997-2.33 5.996-.89 1.999-1.88 3.998-3.22 5.663-.77.778-1.55 1.555-2.55 2.11-1 .445-2 .778-3.11 1.11-2 .556-3.88 2.11-4.55 4.11-.78 2.11-1.55 4.108-2.44 6.107-.78 1.999-1.78 3.998-3 5.774-1.11 1.888-2.66 3.443-4 5.109-2.77 3.442-5.55 6.662-8.21 10.105-2.67 3.442-5.33 6.885-8.44 9.994-2.88 3.11-6.44 5.997-10.43 7.662-1.89 1-3.44 2.554-4.78 4.22-1.33 1.666-2.44 3.553-3.33 5.552-3.66 7.885-2.44 17.213-6.88 24.986-2.44 3.664-5.11 7.107-8.55 9.883-3.33 2.887-7.66 4.331-10.77 7.218-2.99 2.998-5.32 6.774-7.66 10.438-2.44 3.554-3.99 7.552-5.88 11.549l-.67-.333zM924.33 266.743l11.546 3.221c3.774 1.11 7.771 2.22 11.545 3.664 7.66 2.776 14.765 6.996 21.203 11.882 13.1 9.661 23.313 22.32 34.636 33.314 5.77 5.552 11.88 10.438 18.76 14.547 6.77 4.109 13.88 7.44 21.32 10.327 7.43 2.888 14.98 5.553 22.53 7.774 7.66 2.221 15.54 3.331 23.43 4.886 7.88 1.443 15.54 3.997 23.31 5.663 7.77 1.777 15.54 3.554 23.2 6.219 3.77 1.332 7.55 2.887 10.99 4.886 3.55 1.999 6.66 4.775 9.55 7.551 2.88 2.776 5.55 5.663 8.77 8.106 2.99 2.443 6.66 4.109 10.32 5.664 3.66 1.443 7.33 3.442 11.21 3.886 3.89.667 7.77-.333 11.44-1.776 3.77-1.444 7.44-3.11 11.43-3.998 3.85-.814 7.77-1.444 11.77-1.888 7.99-.888 15.98-.999 23.98 0 2 .333 3.99.555 5.88 1 2 .555 3.89 1.221 5.77 1.887 3.67 1.222 7.66 2.888 11.55 1.777-3.89 1.111-7.88-.444-11.66-1.666-1.88-.666-3.77-1.332-5.66-1.887-2-.333-3.88-.667-5.88-.889-8-.888-15.99-.777-23.87.222-4 .445-7.88 1.111-11.77 1.999-3.88.889-7.55 2.554-11.32 3.998-3.66 1.555-7.77 2.554-11.77 1.999-4.11-.555-7.77-2.443-11.43-3.887-3.67-1.555-7.44-3.22-10.66-5.663-3.22-2.443-5.99-5.331-8.88-8.107-2.89-2.776-5.88-5.441-9.33-7.329-3.44-1.888-7.1-3.331-10.87-4.664-7.55-2.554-15.32-4.219-23.1-5.996-7.88-1.555-15.54-4.109-23.31-5.442-7.88-1.443-15.76-2.554-23.64-4.663-7.77-2.221-15.21-4.775-22.76-7.663-7.55-2.887-14.88-6.218-21.76-10.327-6.99-3.998-13.43-9.106-19.32-14.658-11.652-10.994-21.865-23.431-34.632-32.759-6.327-4.664-13.21-8.662-20.537-11.327-3.663-1.332-7.438-2.332-11.323-3.331l-11.546-3.22.888-3.332z"/><path d="M1043.34 344.81c2.88 3.22 6.88 4.997 10.87 6.329 4 1.444 7.78 3.443 11.44 5.664a77.759 77.759 0 0 1 10.32 7.551c3.11 2.776 6.33 5.663 9.77 8.217 3.33 2.554 7.22 4.331 10.77 6.774 1.78 1.111 3.33 2.554 4.44 4.442 1.22 1.777 2.22 3.664 3.55 5.33 1.45 1.555 3.56 2.332 5.55 2.998 2 .556 4.11 1 6.22 1.444 4.11.888 7.88 2.998 11.77 4.664-3.89-1.666-7.66-3.776-11.88-4.664-2-.444-4.11-.777-6.22-1.444-2-.555-4.1-1.332-5.44-2.998-1.44-1.554-2.44-3.553-3.55-5.33-1.11-1.777-2.77-3.22-4.55-4.331-3.55-2.332-7.44-4.22-10.77-6.774-3.44-2.554-6.66-5.441-9.88-8.217a78.618 78.618 0 0 0-10.21-7.44c-3.67-2.221-7.44-4.109-11.44-5.664-3.99-1.221-8.1-3.109-10.99-6.218l.23-.333zM1102.5 360.356c2.78.111 5.56-.666 8.33-1.222 2.89-.777 5.77-.666 8.55-.888 2.89-.111 5.77-.444 8.66-.222 2.88.222 5.66.555 8.55.999 5.66.778 11.32 1.666 16.98 1.111 5.77-.555 10.99-3.221 16.43-4.886 2.78-.889 5.55-1.444 8.44-1.444 2.88-.111 5.77.111 8.55.111 5.77.222 11.32-1.888 16.54-4.109 2.66-1.11 5.21-2.331 7.99-3.22a36.097 36.097 0 0 1 8.44-1.332c5.77-.111 11.43.111 17.09-.889-5.66 1-11.32.778-17.09.889-2.89.111-5.67.555-8.44 1.443-2.78.778-5.33 2.11-7.88 3.221-5.22 2.22-10.77 4.33-16.65 4.108-2.78 0-5.67-.222-8.55-.111-2.89.111-5.66.555-8.44 1.444-5.44 1.666-10.55 4.331-16.32 4.997-5.77.555-11.54-.333-17.21-1.111-2.77-.333-5.66-.777-8.43-.888-2.89-.222-5.77.111-8.55.222-2.89.111-5.77.111-8.55.889-2.77.555-5.55 1.332-8.44 1.332v-.444zM974.508 254.084c.222-.444.888-.888 1.443-.888h.444c.296.074.444.148.444.222.222.074.407.148.555.222.333.111.555.222.777.333l1.443.888 2.554 1.666 5.106 3.443c3.331 2.221 6.772 4.886 9.991 6.662 6.995 3.443 15.095 5.109 22.975 5.553 16.1.555 31.98-3.887 48.18-6.219 4.11-.444 8.22-.666 12.44 0 2 .333 4.11 1 5.99 1.999 1.89 1.11 3.33 2.665 5 3.665 1.55 1.11 3.44 1.332 5.44 1.665 2 .222 4.11.222 6.1.333 4.11.222 8.11 1.111 12.21 1.333 4 .444 8.11.666 12.11 1.221 4.1.667 8.1 1.444 11.98 2.555 7.89 2.22 15.32 5.996 21.65 11.104-6.44-4.997-13.87-8.661-21.76-10.66-3.88-1-7.88-1.777-11.99-2.332-3.99-.556-7.99-.667-12.1-1-4.1-.111-8.1-.999-12.1-1.11-2.11-.111-4.1-.111-6.21-.333-2-.111-4.22-.444-6.11-1.666-1.78-1.11-3.22-2.665-4.88-3.553-1.78-.889-3.67-1.444-5.55-1.777-4-.555-8-.222-11.99.333-15.99 2.554-31.75 7.329-48.52 6.996-8.21-.333-16.54-1.777-24.197-5.441-3.885-2.11-6.994-4.442-10.546-6.663l-4.996-3.332-2.553-1.554-1.332-.778a.848.848 0 0 0-.555-.222c-.074-.074-.148-.111-.222-.111h.444c.444 0 1.11-.333 1.221-.777l-2.886-1.777z"/><path d="M994.38 266.077c4.773 3.887 8.99 8.44 13.54 12.548 4.78 3.887 8.77 8.662 14.1 11.549 2.67 1.555 5.77 1.888 8.88 1.888 3 0 6.11 0 8.99-1.11 1.45-.445 3-.889 4.56-1l4.55-.222c3.11-.222 6.1-.555 9.21-.444 6.22.333 11.99 2.776 17.99 3.998 2.99.666 6.1.999 9.1.444 3-.555 5.77-1.999 8.44-3.554 2.66-1.443 5.21-3.22 8.1-4.331 2.77-1.221 5.99-1.443 8.99-.777 3 .555 6.11 1.444 9.1.666 3-.777 5.56-2.887 8.77-2.776-3.21-.111-5.77 1.999-8.77 2.776-2.99.778-6.1 0-9.1-.555-3-.666-6.1-.444-8.99.777-2.78 1.222-5.44 2.888-8.1 4.442-2.56 1.444-5.33 2.999-8.44 3.443-3 .666-6.22.333-9.22-.222-5.99-1.222-11.76-3.665-17.87-3.998-3-.111-6.1.333-9.21.444l-4.55.333c-1.45.111-3 .556-4.44 1-2.89 1.11-6.11 1.11-9.11 1.11-3.11 0-6.33-.333-9.1-1.777-5.55-2.998-9.55-7.884-14.21-11.659-4.66-4.109-8.881-8.551-13.654-12.438l.444-.555z"/><path d="M1024.46 272.962c.56-1.666 2-2.554 3.33-3.553 1.22-1 2.67-1.777 3.89-2.888 2.55-1.998 5.33-3.775 8.44-4.775 1.48-.518 3.03-.962 4.66-1.332 1.55-.222 3.22-.333 4.88-.444 1.56-.222 3.22-.334 4.67-.889a32.384 32.384 0 0 0 4.44-1.999c5.77-2.887 10.1-8.106 16.09-10.771 2.89-1.222 6.44-1.888 9.33-.222 1.44.777 2.99 1.443 4.55 1.332 1.66 0 3.22-.333 4.88-.222-1.66-.111-3.22.222-4.88.222-1.56.111-3.11-.555-4.55-1.332-2.89-1.666-6.44-1-9.33.333-5.88 2.665-10.21 7.884-15.98 10.882-1.45.667-2.89 1.444-4.44 1.999-1.56.556-3.22.667-4.78.889-1.66.111-3.22.222-4.88.444-1.56.37-3.07.814-4.55 1.332-3.11 1.111-5.89 2.777-8.33 4.775-1.33 1.111-2.66 1.999-4 2.888-1.22.999-2.66 1.999-3.1 3.442l-.34-.111zM975.729 291.729c2.443-.333 4.996.444 7.105 1.666 2.221 1.332 3.997 2.998 5.662 4.664 1.776 1.555 3.33 3.331 5.218 4.664a18.522 18.522 0 0 0 6.326 2.554c2.22.444 4.55.555 7 .444 2.22-.111 4.77-.333 7.21 0 4.77.666 9.21 2.554 13.77 3.887 4.44 1.332 9.21 2.554 13.65 4.108 2.22.667 4.44.556 6.66-.222 2.11-.777 4.11-2.11 6.22-3.22 1.11-.555 2.11-1.221 3.22-1.666 1.22-.444 2.55-.555 3.77-.111 1.22.333 2.22 1.222 3.11 1.999.89.777 1.89 1.222 3 1.555 4.44 1.443 9.32 1.11 13.99 1.554 2.44.223 4.77.445 7.1 1 2.44.444 4.66 1.332 6.88 1.777 4.67 1.332 9.22-.778 13.55-2.666 2.22-.888 4.44-1.887 6.77-2.443l6.99-1.332c4.66-1.111 9.55-.666 14.1.555 2.33.666 4.77.777 6.77 2.221 1.11.666 1.56 1.888 2.11 2.998.45 1 1.67 1.555 2.67 1.888 4.55 1.333 9.32 2.332 14.09 1.888 2.34-.111 4.67-.222 7.11 0 2.33.222 4.66.666 6.99 1.332 4.55 1.222 9.11 2.888 13.88 3.221-4.77-.222-9.33-1.888-13.88-3.109a38.693 38.693 0 0 0-6.99-1.333c-2.44-.222-4.77 0-7.11.111-4.77.333-9.54-.555-14.09-1.777-1.11-.444-2.34-.999-2.89-2.11-.56-1.11-1-2.221-2-2.887-2-1.332-4.44-1.443-6.66-2.11-4.66-1.221-9.44-1.554-14.1-.555l-6.88 1.444c-2.33.555-4.55 1.554-6.66 2.443-2.22.999-4.33 1.998-6.66 2.665-2.33.666-4.89.777-7.22.222s-4.55-1.333-6.88-1.777c-2.33-.555-4.66-.777-6.99-.888-4.78-.444-9.55-.111-14.21-1.555a9.24 9.24 0 0 1-3.33-1.666c-.89-.777-1.78-1.554-2.78-1.887-2.11-.778-4.33.555-6.33 1.776-2.11 1.111-4.11 2.443-6.33 3.332-2.33.888-4.99.999-7.32.222-4.55-1.555-9.11-2.665-13.66-3.998-4.55-1.332-8.99-3.109-13.65-3.775-2.33-.223-4.55-.111-6.99.111-2.45.111-4.78 0-7.221-.445-2.442-.444-4.773-1.332-6.772-2.776-2.109-1.332-3.663-3.109-5.439-4.775-3.22-3.22-7.216-6.44-11.767-5.885l-.112-1.333zM1604.72 269.298c5.11-2.221 9.88-5.33 14.55-8.329 4.77-3.109 9.88-5.441 14.32-8.995l12.99-10.549c4.33-3.664 8.99-6.774 13.54-10.216l6.77-4.997c2.22-1.666 4.66-3.11 7.33-4.109 2.66-.999 5.44-1.666 8.21-1.666 2.89-.111 5.66.555 8.33 1.111 2.77.666 5.55.666 8.44.888 2.77.222 5.55.333 8.32.111 5.66-.666 10.77-2.998 16.32-4.109 5.55-.777 11.1-1.887 16.65-2.776 2.78-.444 5.33-1.554 8-2.443 2.66-.999 5.44-1.777 8.21-1.888 2.89 0 5.55 1 8.1 2.11 2.67 1 5.44 1.666 8.22 1.777 5.66.222 11.1-1.444 16.43-2.998 2.77-.889 5.44-1.444 8.21-2.332 2.67-.777 5.33-1.777 8.11-1.888 5.66.333 11.21-.999 16.76-1.666 1.33-.333 2.67-.777 3.89-1.554.55-.333 1.11-.889 1.88-1 .67 0 1.34.222 2 .444 2.67.889 5.44 1.666 8.11 2.221 5.55 1.222 11.1 2.221 16.2 4.553-5.1-2.221-10.65-3.22-16.2-4.553-2.67-.555-5.44-1.221-8.11-2.221-.66-.111-1.33-.333-2-.333-.77 0-1.33.556-1.88.889-1.22.777-2.56 1.332-3.89 1.554-5.55.667-11.1 2.11-16.76 1.777-2.78.111-5.44 1-8.11 1.888-2.66.888-5.44 1.443-8.1 2.221-5.44 1.554-10.88 3.331-16.54 3.109-2.78-.111-5.66-.777-8.22-1.777-2.55-1.11-5.21-2.11-8.1-2.11-2.77.112-5.55.889-8.1 1.888-2.67.889-5.33 2.11-8.11 2.443-5.55 1-11.1 1.999-16.54 2.888-5.55.999-10.77 3.442-16.43 3.997-2.77.333-5.55.222-8.43 0-2.78-.222-5.56-.222-8.33-.888-2.78-.555-5.55-1.222-8.33-1.111-2.77 0-5.55.667-8.1 1.666-2.66.999-5.11 2.443-7.33 4.109l-6.77 4.997c-4.44 3.442-9.1 6.552-13.43 10.216l-13.1 10.55c-4.33 3.553-9.55 5.996-14.21 8.994-4.77 2.999-9.44 6.108-14.65 8.44l-.12-.333zM1723.18 309.052c1.33.667 2.88.778 4.21 1.111 1.45.333 2.89.555 4.45.666 2.88 0 5.88 0 8.77.556 1.44.222 2.99.333 4.44.777 1.44.333 2.66 1.111 4.1 1.666 2.67 1.11 5.66 1.222 8.66 1.222l8.77.111c3 .222 5.89-.556 8.88.111 2.89.555 5.66 1.888 8.11 3.554 2.44 1.665 5.21 2.554 8.1 3.442 2.78.889 5.66 1.555 8.66 1.333 2.89 0 5.88-.777 8.77-.666 1.55.111 3 .333 4.44.555 1.44.111 2.89-.111 4.33-.444 2.89-.778 5.44-2.221 8.21-3.221 1.45-.555 2.78-.999 4.33-1.222 1.45-.222 2.89.111 4.33.334 1.56 0 2.89-.556 4.33-1.111 1.34-.666 2.56-1.444 3.78-2.221 2.44-1.555 4.88-3.443 7.88-3.998 2.89-1 5.88 1.332 8.66-.222-2.78 1.554-5.77-.667-8.66.222-3 .666-5.33 2.443-7.77 4.109-1.33.777-2.55 1.555-3.89 2.11-1.33.555-2.77 1.222-4.33 1.111-1.44-.111-2.88-.445-4.33-.222-1.44.222-2.88.666-4.21 1.11-2.78 1.111-5.44 2.555-8.22 3.332-1.44.333-3 .555-4.44.444-1.44-.222-2.89-.444-4.44-.555-2.89-.111-5.77.666-8.77.666-3 .222-5.88-.444-8.77-1.332-2.78-.778-5.66-1.777-8.1-3.443-2.45-1.555-5.22-2.888-8-3.443-2.88-.667-5.88.111-8.88-.111l-8.77-.111c-3 0-5.99 0-8.77-1.111-1.44-.666-2.66-1.444-4.11-1.777-1.44-.333-2.88-.444-4.32-.666-2.89-.556-5.89-.556-8.77-.556-1.56-.111-3-.333-4.45-.666-1.44-.333-2.99-.444-4.32-1.111l.11-.333zM1383.81 185.902c-.44-.667.22-2.332.56-3.443a18.31 18.31 0 0 1 1.77-3.664c1.45-2.221 3.33-4.331 4.89-6.552 1.66-2.11 3.99-3.554 6.55-4.442 2.55-.777 5.33-1.332 7.88-2.332 2.66-.999 5.22-2.221 7.44-3.775 2.33-1.555 4.55-3.332 6.55-5.109 2.11-1.887 3.66-4.219 5.44-6.329l4.99-6.552c1.67-2.11 4.11-3.776 6.77-3.776 1.34 0 2.78.445 4.22 0 1.33-.444 2.55-1.221 3.66-1.998 4.67-2.777 9.55-5.553 13.88-8.995 4.33-3.221 9.55-5.553 15.21-5.553 1.33-.222 2.55-1.11 3.66-1.776l3.56-1.999c2.44-1.444 5.1-2.332 7.88-2.332-2.78 0-5.44.888-7.88 2.221l-3.56 2.11c-1.22.666-2.33 1.443-3.77 1.665-5.55-.111-10.88 2.221-15.32 5.442-4.33 3.442-9.1 6.107-13.88 8.994-1.11.667-2.33 1.444-3.55 1.777-1.33.444-2.66 0-4.11 0-2.88-.111-5.44 1.666-7.21 3.887l-5 6.552c-1.77 2.109-3.33 4.33-5.44 6.107-4.11 3.665-8.55 6.885-13.76 8.662-10.77 1.443-21.43 9.883-22.32 21.876l.89-.666z"/></g><g opacity=".7" fill="#4630C7"><path d="M511.989 197.693c-.666.222-1.332.111-1.887 0-.666-.222-1.332-.111-1.887-.444-.666-.222-1.11-.666-1.665-1-.444-.222-1.11-.666-1.444-1.221-1.332-2.11-4.218-1.999-6.549-2.554-1.221-.111-2.554-.555-3.442-1.555-.777-.999-1.998-1.332-3.108-1.888-2.109-1.11-4.551-2.554-5.44-4.886-.555-1.221-.999-2.332-1.776-3.331-.777-.999-1.887-1.444-3.108-1.888-2.22-.999-4.552-1.888-6.439-3.553-1.998-1.666-3.996-2.999-6.106-4.331-2.109-1.444-4.329-2.554-6.438-3.887-.999-.555-1.999-1.332-3.109-2.11-.999-.666-1.554-1.887-2.22-2.887-1.11-2.332-3.108-3.886-5.217-5.108-2.221-1.222-3.997-2.887-5.884-4.553-1.665-1.777-2.664-4.553-5.218-5.108-4.995-1.444-7.66-6.33-10.213-10.327-4.107-2.666-8.992-4.664-11.767-8.884 2.775 4.22 7.66 6.218 11.767 8.773.777.999 1.332 2.109 1.998 3.22.777.999 1.444 1.999 2.221 2.998 1.554 1.777 3.552 3.554 5.994 4.22 2.665.555 3.553 3.331 5.218 4.997 1.887 1.666 3.774 3.331 5.884 4.553 2.22 1.221 4.218 2.776 5.439 5.108.555 1 1.11 2.221 2.109 2.887.999.778 2.11 1.444 3.109 2.11 2.109 1.222 4.329 2.443 6.438 3.776 2.11 1.332 4.219 2.776 6.106 4.331 1.887 1.665 4.219 2.554 6.439 3.553 1.11.444 2.442.888 3.219 1.999.777.999 1.221 2.221 1.776 3.22.889 2.443 3.22 3.776 5.44 4.775.999.667 2.331 1 3.108 1.999.777 1 1.999 1.333 3.22 1.555 1.221.111 2.442.333 3.663.555 1.221.333 2.553.888 3.22 1.999.222.555.777.888 1.332 1.221.555.334.999.778 1.554.889.555.222 1.11.222 1.776.444.666.111 1.221.222 1.776 0l.111.333zM584.369 272.983a46.417 46.417 0 0 1-11.101-1 60.282 60.282 0 0 1-10.435-3.664c-6.772-2.888-12.989-6.663-19.316-10.106-3.22-1.776-6.439-3.442-9.77-4.886-1.665-.666-3.33-1.332-4.995-1.887-1.665-.445-3.442-.556-5.218-.667-7.216-.111-14.542 1.333-21.869-.333-3.664-.777-7.327-2.998-8.659-6.774-1.332-3.664-1.443-7.329-1.998-10.882-.444-3.554-1.444-6.996-3.775-9.772-2.22-2.777-5.106-5.109-7.66-7.663-5.217-5.108-10.546-9.994-15.097-15.768-4.774-5.664-7.216-12.771-11.435-18.656-2.109-2.887-4.773-5.552-8.326-6.219-3.441-.666-7.104-.222-10.768 0-7.216.667-14.431 1.999-21.758 1.999-3.664 0-7.327-.333-10.879-1.11-3.553-.778-6.994-2.554-9.659-4.997-5.439-4.997-8.88-11.66-15.097-15.658-5.995-4.109-12.989-6.33-19.871-8.884-6.772-2.554-13.655-4.997-20.427-7.773-13.432-5.219-26.643-12.104-37.522-21.765 10.99 9.661 24.09 16.324 37.633 21.654 6.772 2.665 13.655 4.997 20.427 7.551 6.882 2.554 13.876 4.664 19.982 8.884 6.328 3.998 9.88 10.771 15.209 15.546 5.328 5.109 13.099 5.886 20.204 5.886 7.327 0 14.431-1.333 21.758-1.999 3.553-.333 7.216-.777 10.99-.111 3.775.666 6.661 3.554 8.77 6.552 4.33 5.885 6.772 12.992 11.435 18.434 4.551 5.663 9.991 10.549 15.208 15.657 2.554 2.554 5.44 4.775 7.771 7.773 1.11 1.444 2.11 2.999 2.776 4.886.666 1.777.999 3.554 1.221 5.331.555 3.664.777 7.329 1.998 10.66 1.221 3.22 4.44 5.219 7.771 5.997 6.994 1.443 14.32.111 21.647.222 1.888 0 3.775.111 5.551.666 1.887.555 3.552 1.11 5.218 1.888 3.441 1.443 6.66 3.109 9.88 4.886 6.438 3.442 12.655 7.107 19.316 9.994a57.12 57.12 0 0 0 10.213 3.442c3.441.778 6.994 1 10.546.889l.111 1.777z"/><path d="m532.86 252.884-9.103-4.109c-3.109-1.444-6.106-3.109-8.659-5.441-2.443-2.443-4.108-5.553-4.996-8.884-.777-3.331-.999-6.663-1.11-10.105-.222-6.663.333-13.437 1.221-20.1 1.221-6.551 3.108-13.103 2.553-19.766-.111-1.666-.444-3.331-1.11-4.775-.777-1.444-1.887-2.665-3.219-3.664-2.664-1.999-5.884-3.11-8.992-4.331-3.108-1.222-6.328-2.332-9.214-3.998-1.443-.888-2.775-1.888-3.997-3.109-1.221-1.111-2.22-2.554-3.33-3.887-3.885-5.552-5.329-12.326-6.661-18.767-.777-3.331-1.554-6.552-2.886-9.661-1.443-2.998-3.33-5.885-5.773-8.106a23.512 23.512 0 0 1 5.773 8.106c1.332 3.109 2.22 6.33 2.997 9.661 1.443 6.441 2.887 13.215 6.772 18.656 1.11 1.333 2.109 2.665 3.33 3.776a18.842 18.842 0 0 0 3.886 2.998c2.997 1.666 6.106 2.776 9.214 3.887 3.219 1.221 6.328 2.332 9.103 4.441 1.443 1 2.664 2.221 3.441 3.776.666 1.555.999 3.22 1.221 4.886.556 6.885-1.332 13.437-2.442 19.988-.888 6.663-1.332 13.326-1.11 19.989.111 3.331.444 6.663 1.221 9.883.777 3.22 2.442 6.219 4.774 8.44 4.884 4.441 11.545 6.329 17.54 9.216l-.444 1zM1000 203.801c-13.433 4.886-27.309 8.661-41.075 11.882l-20.759 4.775c-6.883 1.554-13.543 3.442-20.204 5.663-13.433 4.331-26.532 9.661-39.743 14.88-6.549 2.554-13.21 5.108-19.982 7.44-6.55 2.221-13.987 4.775-21.647 4.109-7.66-.555-14.432-4.331-20.538-7.773-6.216-3.665-12.211-6.996-18.65-9.772-12.877-5.553-26.421-9.772-40.075-12.66-13.655-3.22-27.864-2.11-42.185-3.109-7.105-.555-14.432-1.777-21.203-4.775-6.661-3.109-12.323-8.217-16.43-14.325-1.887-3.22-3.22-6.663-4.774-9.661-.666-1.555-1.554-3.109-2.553-4.331-.888-1.332-2.22-2.332-3.552-3.331-5.551-3.887-12.434-5.775-19.206-7.44-13.765-2.999-27.864-5.775-41.407-9.995-6.772-2.22-13.544-4.997-19.649-8.661-6.217-3.665-11.657-8.773-16.208-14.103-4.663-5.441-9.103-10.883-13.322-16.657a186.37 186.37 0 0 1-5.994-8.884c-1.888-2.998-3.442-6.441-4.552-9.772-2.22-6.774-3.774-13.77-6.661-20.1-1.554-3.109-3.441-6.107-6.66-7.55-2.998-1.555-6.439-2.555-9.881-3.332-6.771-1.777-13.987-2.443-20.759-4.775a590.671 590.671 0 0 0-20.426-5.663 494.96 494.96 0 0 0-20.759-4.664c-6.883-1.555-13.877-2.554-20.871-4.109a164.7 164.7 0 0 1-20.315-6.219c-6.55-2.554-13.1-5.552-18.761-9.772 5.661 4.22 12.211 7.107 18.872 9.661a141.86 141.86 0 0 0 20.315 5.886c6.883 1.554 13.988 2.554 20.871 3.997a399.266 399.266 0 0 1 20.759 4.553 384.26 384.26 0 0 1 20.648 5.442c6.661 2.22 13.766 2.887 20.648 4.553 3.553.777 6.994 1.776 10.214 3.331 3.441 1.666 5.661 4.997 7.215 8.106 3.109 6.552 4.663 13.548 6.994 20.211 2.109 6.663 6.328 12.326 10.435 18.1a234.381 234.381 0 0 0 13.433 16.435c4.551 5.331 9.658 9.995 15.764 13.548 5.994 3.554 12.544 6.219 19.316 8.329 13.432 4.108 27.309 6.662 41.296 9.55 6.883 1.665 13.988 3.553 20.205 7.773 1.554.999 2.997 2.221 4.218 3.775 1.221 1.555 2.109 3.11 2.887 4.775 1.665 3.221 2.997 6.552 4.662 9.439 3.774 5.553 9.103 10.328 15.32 12.993 6.216 2.776 13.21 3.886 20.093 4.331 13.988.888 28.53-.334 42.629 2.776a218.709 218.709 0 0 1 40.963 12.659c6.55 2.776 12.989 6.219 19.095 9.661 6.216 3.554 12.322 6.774 18.872 7.107 6.66.555 13.099-1.666 19.76-3.998 6.661-2.332 13.21-4.886 19.76-7.551 13.211-5.219 26.31-10.771 39.854-15.324a219.721 219.721 0 0 1 20.648-5.997l20.648-4.886c13.766-3.331 27.309-7.107 40.409-12.104l1.998 5.553z"/><path d="M689.387 211.13c-4.996 4.553-11.546 6.552-17.429 7.884-5.995 1.444-11.546 2.332-16.763 4.886-10.768 4.442-20.648 10.994-30.084 18.101-9.437 7.107-18.429 14.88-27.643 22.653l-13.876 11.216c-4.552 3.887-8.881 8.106-14.099 11.66-2.664 1.666-5.55 3.22-8.77 3.998-3.108.888-6.327 1.11-9.547.999-6.216-.333-12.211-1.777-17.984-2.776-11.545-2.332-23.423-1.888-35.08-.333-11.656 1.888-23.201 4.886-34.414 8.661-11.323 3.998-22.424 8.107-32.637 14.103-20.649 11.882-38.522 27.984-55.395 44.752a689.658 689.658 0 0 0-12.545 12.881c-4.107 4.22-7.66 9.106-12.1 13.326-2.22 1.999-4.663 4.22-7.993 4.775-3.442.555-6.439-1.11-8.992-2.443-2.664-1.332-5.329-2.554-8.104-3.331-2.775-.889-5.662-.778-8.437 0-5.551 1.776-10.102 5.885-14.876 9.55-4.773 3.553-10.213 6.329-15.652 8.772-5.44 2.554-10.88 4.997-15.764 8.44-4.885 3.331-8.881 7.773-12.878 12.215-3.885 4.553-7.77 9.106-12.544 12.992-4.663 3.776-10.324 6.441-16.319 6.996-1.443.111-2.997.111-4.44.223a94.5 94.5 0 0 0-4.552-.112c-2.886.111-5.884.445-8.77 1.555-5.662 1.999-10.102 6.219-14.765 9.883 4.663-3.664 9.103-7.995 14.765-10.105 2.775-.999 5.773-1.444 8.77-1.555a46.689 46.689 0 0 1 4.552 0c1.443-.111 2.997-.111 4.44-.222 5.884-.666 11.434-3.331 15.986-7.107 4.662-3.775 8.437-8.439 12.322-12.992 3.886-4.553 7.993-8.995 12.878-12.548 4.884-3.554 10.435-6.108 15.875-8.662 5.328-2.443 10.657-5.219 15.319-8.884 4.663-3.553 9.214-7.884 15.209-9.772 2.997-.999 6.217-1.11 9.214-.222 2.997.888 5.773 2.11 8.437 3.442 2.664 1.333 5.44 2.666 7.993 2.11 2.664-.333 4.995-2.443 7.105-4.33 4.218-4.109 7.659-8.995 11.878-13.437 4.107-4.331 8.215-8.662 12.433-12.993 16.763-16.99 34.636-33.425 55.396-45.751 10.435-6.218 21.758-10.549 33.081-14.658 11.324-3.998 22.98-7.218 34.969-9.106 11.99-1.888 24.312-2.443 36.412-.111 5.884 1 11.657 2.332 17.429 2.554 5.662.111 10.99-1.221 15.653-4.442 4.663-3.22 8.881-7.44 13.433-11.437l13.876-11.438c9.103-7.773 18.095-15.769 27.642-23.098 9.547-7.329 19.76-14.214 31.084-19.1 11.434-5.441 24.644-4.664 32.415-11.993l3.886 4.331zM812.39 243c-4.663 1.999-9.547 1.999-14.099 1.777-4.662-.222-8.881-.333-13.21.444-8.659 1.444-17.318 4.664-25.2 8.551-7.66 4.108-13.766 11.326-22.314 15.546-4.329 1.999-9.214 3.11-14.098 2.332-4.774-.777-8.881-3.109-12.989-4.442-2.109-.666-4.218-1.11-6.217-1.11-2.109.111-4.329.555-6.438 1.11-4.33 1-8.548 2.665-12.656 4.442l-12.322 5.553c-4.219 1.998-8.548 3.442-12.655 5.219-16.541 7.218-31.972 16.879-48.18 24.985-4.107 1.999-8.326 3.887-12.544 5.553-4.33 1.665-8.659 2.776-12.878 4.33a117.012 117.012 0 0 0-24.089 12.215c-14.987 10.106-28.198 22.876-37.856 38.312-2.553 3.664-5.439 7.218-8.77 10.327-3.33 3.22-7.437 5.552-11.656 7.107-8.437 3.442-17.318 5.885-26.31 6.885-8.992 1.11-18.206.666-27.087-1.666-8.77-2.332-16.874-6.996-23.424-13.214 6.661 6.218 14.765 10.771 23.535 12.992s17.984 2.665 26.976 1.444c8.881-1.111 17.762-3.554 26.088-6.996 4.218-1.666 8.104-3.998 11.323-7.107 3.331-2.999 6.106-6.663 8.659-10.328 9.547-15.546 22.758-28.539 37.855-38.755 7.549-5.108 15.653-9.439 24.201-12.659 4.33-1.555 8.659-2.776 12.878-4.442 4.107-1.666 8.215-3.554 12.322-5.552 16.097-8.218 31.417-17.879 48.068-25.43 4.219-1.888 8.548-3.332 12.545-5.219l12.433-5.775c4.108-1.776 8.437-3.553 12.878-4.664 2.22-.666 4.551-1.11 6.993-1.221 2.443 0 4.885.444 7.105 1.221 4.441 1.444 8.437 3.554 12.656 4.22 4.218.666 8.548-.333 12.433-2.221 7.771-3.886 13.766-10.993 22.092-15.657 8.326-4.22 16.873-7.441 26.088-9.106 9.325-1.999 18.872 1.221 26.531-2.11L812.39 243z"/><path d="M407.86 326.174c-1.665-.888-2.554-2.443-3.886-3.664-1.11-1.222-2.553-2.221-4.218-2.554-3.331-1-6.883-.778-10.324-.555-6.994.555-13.988.777-20.871 0-6.994-.778-13.765-2.221-20.537-3.887-3.33-.889-6.772-1.666-9.991-2.776a82.685 82.685 0 0 1-9.547-4.22l-9.214-4.997a27.976 27.976 0 0 0-9.769-3.554c-6.772-1.221-14.099-.666-20.094-4.553-5.883-3.997-8.881-10.66-13.21-15.99-1.221-1.333-2.331-2.665-3.774-3.665-.778-.444-1.555-.888-2.332-1.221-.777-.222-1.665-.333-2.553-.445-3.441 0-7.105.889-10.213-1.11 3.108 1.999 6.772 1.11 10.213 1.11.888.112 1.776.112 2.553.445.888.333 1.554.777 2.332 1.221 1.443 1 2.664 2.332 3.774 3.554 4.44 5.33 7.327 12.104 13.21 15.99 5.995 3.887 13.322 3.332 20.205 4.553 3.441.444 6.771 1.777 9.769 3.443l9.103 4.997c3.108 1.666 6.327 3.109 9.547 4.22 3.33 1.11 6.661 1.887 10.102 2.776 6.661 1.665 13.544 3.109 20.426 3.886 6.883.667 13.877.556 20.871-.111 3.441-.222 6.993-.333 10.435.556 1.665.444 3.219 1.443 4.44 2.665 1.221 1.221 2.221 2.776 3.664 3.553l-.111.333zM265.763 153.495c5.107 1.888 9.991 4.443 15.209 6.22 5.106 1.888 10.546 2.776 15.986 3.554 5.328.666 10.879.777 16.318.111 10.88-1.111 21.315-4.887 32.194-6.442 5.329-.888 10.99-.777 16.208.667 2.775.444 5.44.444 8.215.222 2.664-.111 5.439-.889 7.327-2.777l.333.222c-2.11 2-4.996 2.666-7.66 2.888-2.775.222-5.551.222-8.215-.222-5.329-1.555-10.768-1.555-16.208-.666-10.879 1.443-21.314 5.108-32.194 6.33-5.439.555-10.99.444-16.429-.222-5.329-.778-10.769-1.666-15.986-3.554-5.107-1.888-9.991-4.331-15.098-6.331-5.106-1.999-10.657-3.109-16.097-2.221 5.44-.888 10.991.111 16.097 2.221zM493.451 245c-10.435-4.442-20.204-9.995-30.639-13.881-5.218-1.999-10.547-3.887-15.986-3.443-5.551.111-10.99 1.444-16.652 2.11-11.212 1.222-22.647 1.111-33.637-1.999-5.439-1.554-10.768-3.553-15.875-5.885-5.106-2.332-9.88-5.441-14.653-8.329-9.436-6.107-20.204-9.55-31.417-9.994-11.101-.555-22.313 1.111-33.526 1.333-11.212.333-22.868-1.444-32.859-6.774-10.102-5.33-18.095-13.437-27.42-19.544-2.332-1.555-4.774-2.888-7.438-3.443-2.664-.666-5.44-.555-8.215-.333-2.775.222-5.662.555-8.437.444-2.886-.111-5.662-.666-8.326-1.554-5.44-1.666-10.546-4.109-15.542-6.663-4.995-2.776-8.77-7.107-12.433-11.438-3.552-4.22-6.883-8.773-11.101-12.437-2.11-1.888-4.441-3.443-6.994-4.553-2.553-1-5.218-1.666-7.993-1.777-5.662-.333-10.99 1.666-16.652 2.11-2.886.222-5.662-.111-8.437-.777a100.686 100.686 0 0 1-8.104-2.11 121.427 121.427 0 0 1-15.653-6.33c-2.553-1.221-4.995-2.443-7.437-3.998-2.332-1.554-4.44-3.553-6.217-5.663-3.664-4.22-6.66-9.106-11.323-12.326-4.663-3.109-9.77-5.441-14.987-7.551-5.107-2.11-10.546-3.998-16.208-3.998-5.55-.111-11.101.888-16.652 1.777-5.55 1-11.101 1.776-16.763 1.332-5.661-.555-10.768-3.109-15.874-5.33 5.106 2.221 10.324 4.775 15.874 5.22 5.662.555 11.213-.334 16.763-1.222 5.55-1 11.102-2.11 16.652-2 5.662 0 11.101 1.889 16.319 3.999 5.107 2.109 10.324 4.442 14.987 7.551 4.773 3.22 7.77 8.106 11.434 12.326 1.887 2.11 3.885 3.998 6.217 5.552 2.331 1.555 4.884 2.776 7.327 3.998 5.106 2.443 10.324 4.553 15.652 6.219 2.665.814 5.366 1.517 8.104 2.109 2.664.667 5.44.889 8.215.667 5.551-.444 10.99-2.443 16.763-2.11 2.775.111 5.551.777 8.215 1.888 2.664 1.11 4.995 2.665 7.105 4.553 4.329 3.664 7.66 8.217 11.323 12.548 3.552 4.22 7.327 8.439 12.211 11.104 4.996 2.555 10.102 4.998 15.431 6.663 2.553.778 5.329 1.333 8.104 1.444 2.775.111 5.551-.222 8.326-.444 2.775-.222 5.662-.333 8.548.333 2.775.555 5.328 1.999 7.66 3.553 9.547 6.108 17.54 14.214 27.42 19.322 9.88 5.22 21.203 6.996 32.415 6.552 11.102-.222 22.314-1.999 33.637-1.443 11.213.333 22.425 3.997 31.972 10.105 4.773 2.887 9.547 5.885 14.543 8.217a101.597 101.597 0 0 0 15.652 5.664c10.768 3.109 22.092 3.109 33.193 1.999 5.44-.667 10.99-1.999 16.652-2.221 2.886-.111 5.773 0 8.548.888 2.775.666 5.439 1.555 8.104 2.554 10.657 3.998 20.426 9.439 30.75 13.77l-.666 1.666zM828.707 248.108c-1.554-.555-2.331-1.998-3.219-3.109l-2.554-3.553-5.106-7.218c-3.22-4.886-7.771-8.773-12.434-12.216-2.442-1.776-4.773-3.553-7.326-4.886-2.665-1.221-5.551-1.998-8.437-2.665-2.887-.555-5.662-1.554-8.437-2.332l-4.33-1.221c-1.332-.555-2.775-.889-4.107-1.444-5.773-1.443-10.435-5.552-14.876-9.217-2.331-1.887-4.551-3.775-6.883-5.552-1.221-.777-2.553-1.333-3.996-1.555-1.554-.222-2.997-.222-4.441-.333-2.886-.333-5.883-1.221-8.215-2.998-2.331-1.777-4.44-3.887-7.215-5.108-2.665-1-5.662-1.444-8.437-2.221-1.443-.333-2.887-.777-4.108-1.555l-3.663-2.443 3.663 2.443c1.221.778 2.665 1.222 4.108 1.555 2.775.777 5.772 1.11 8.437 2.221 2.775 1.11 4.884 3.331 7.215 4.997 2.332 1.888 5.329 2.665 8.215 2.998 1.444.111 2.887.111 4.441.333 1.443.222 2.886.778 3.996 1.666 2.443 1.666 4.663 3.553 6.994 5.441 4.441 3.665 8.992 7.662 14.765 9.217 1.443.444 2.886.888 4.218 1.333l4.219 1.221c2.886.778 5.661 1.777 8.548 2.332 2.775.666 5.661 1.444 8.326 2.665 2.664 1.333 4.995 3.221 7.437 4.886 4.774 3.443 9.325 7.329 12.545 12.215l5.106 7.218 2.665 3.554c.888 1.11 1.554 2.554 2.886 2.998v.333zM640.542 172.485c-.222 1.444-.999 2.776-1.776 3.887-.888 1.11-1.665 2.11-2.775 3.22-1 1-2.776 1.222-4.108 1-1.332-.222-2.664-.556-3.996-.445-2.776.111-5.329 1-7.993 1.666-1.332.222-2.776.666-4.219.444-1.332-.111-2.442.556-3.663 1.222-1.221.777-2.887 1.11-4.219.333-.555-.444-1.11-.888-1.665-1.11-.666-.112-1.332-.223-1.998-.223-2.664.111-5.329 1.444-8.104 1.444-5.773.222-10.213-4.664-15.875-4.109-5.439.111-10.879 2.11-16.43 1.111-1.332-.333-2.442-1.444-3.552-2.221l-3.33-2.443c-2.11-1.777-4.885-2.332-7.549-2.998-2.554-.889-5.329-.889-8.104-1.111-2.775-.222-5.329-1.555-7.66-2.998-2.442-1.333-4.218-3.554-6.439-5.108-1.11-.778-2.442-1.444-3.885-1.444-1.221.111-2.775.555-3.997-.333 1.222.888 2.665.444 3.997.333 1.443 0 2.775.666 3.885 1.444 2.221 1.554 4.108 3.775 6.439 5.108 2.331 1.443 4.885 2.665 7.66 2.887 2.775.222 5.55.222 8.215.999 2.664.667 5.439 1.222 7.66 2.999l3.219 2.554c1.221.777 2.22 1.777 3.552 2.11 5.329.999 10.769-1.111 16.319-1.222 5.884-.555 10.324 4.331 15.875 3.998 2.664 0 5.218-1.333 8.104-1.444.666 0 1.443 0 2.109.222.777.333 1.221.778 1.887 1.111 1.11.666 2.443.444 3.664-.333 1.11-.667 2.442-1.444 3.885-1.222 1.443.111 2.665-.333 3.997-.555 2.664-.666 5.328-1.666 8.215-1.777 2.775-.333 5.661 1.666 7.659-.444 1.666-1.999 3.886-4.109 4.33-6.663l.666.111zM597.247 160.604c.666-2.776-.111-5.885-1.665-8.217-1.554-2.554-4.885-2.776-7.327-4.442-1.332-.777-2.553-1.555-3.664-2.554-1.11-1-2.109-2.443-2.22-3.998 0-1.554.222-2.887-.111-4.442-.222-1.332-.333-2.998-1.332-3.997-.444-.556-1.11-.889-1.665-1.444-.555-.444-.888-1.221-.999-1.999-.111-1.554.111-2.998.222-4.442.222-1.443.333-2.998.333-4.441 0-.667.111-1.555-.444-1.888-.222-.111-.777.111-1.11-.222l-.888-.667c-.667-.444-1.222-.777-1.777-1.443-.444-.555-.555-1.333-.666-2.11 0-1.444-.111-2.887-.333-4.331l-.444-4.442c-.111-.666-.111-1.554-.666-1.999-.666-.333-1.443-.666-1.887-1.221.444.555 1.221.888 1.887 1.11.555.556.555 1.444.666 2.11l.555 4.331c.222 1.555.333 2.998.333 4.442.111.777.222 1.555.666 1.999.555.555 1.111.999 1.777 1.443l.888.556c.333.333.555.111.999.222.777.555.666 1.443.666 2.11 0 1.554-.111 2.998-.222 4.441-.222 1.444-.333 2.999-.222 4.442 0 1.555 1.554 2.221 2.664 3.221 1.11 1.221 1.11 2.776 1.443 4.219.333 1.444 0 2.999.111 4.442.333 2.887 3.22 4.664 5.662 6.108 1.221.777 2.553 1.221 3.996 1.777 1.333.555 2.776 1.443 3.664 2.665 1.554 2.554 2.442 5.663 1.776 8.772l-.666-.111z"/><path d="M579.042 179.926a27.69 27.69 0 0 0-10.213-8.773c-2.11-.777-4.552-1.11-6.439-2.443-2.109-1.444-2.331-4.109-2.665-6.219-.222-1.11-.444-2.22-.999-3.22-.666-.999-1.554-1.666-2.553-2.221-1.887-1.221-4.107-1.888-6.328-2.443-1.11-.333-2.22-.444-3.33-1.11-.999-.445-1.887-1.222-2.664-1.999-1.665-1.666-2.665-3.887-4.996-4.664-1.998-.889-4.329-1-6.55-1.555-2.22-.555-4.44-1.332-6.438-2.554-1.999-1.11-3.442-2.998-5.551-3.998-1.11-.222-2.22-.111-3.33-.222-1.221.111-2.332-.333-3.331-.777-1.998-1.11-3.663-2.776-5.55-4.109l-2.665-2.11c-.888-.777-1.887-1.554-2.997-1.332-1.221 0-2.331.333-3.441.333a6.334 6.334 0 0 1-3.109-1.221c-1.887-1.333-3.33-3.332-5.661-3.887 2.331.555 3.774 2.443 5.661 3.887.888.666 1.999 1.11 3.109 1.11 1.11.111 2.22-.222 3.441-.333 1.221-.111 2.109.666 2.997 1.443l2.665 2.11c1.887 1.333 3.552 2.888 5.55 3.998.999.555 2.11.888 3.331.888 1.11 0 2.22-.111 3.441.222 1.998.889 3.552 2.777 5.551 3.887 1.887 1.222 4.107 1.999 6.327 2.554 2.221.444 4.552.666 6.661 1.555 2.331.666 3.331 3.109 4.996 4.553.777.888 1.665 1.554 2.664 2.11.999.555 2.22.666 3.33.999 2.11.555 4.33 1.222 6.328 2.443.999.555 1.998 1.333 2.553 2.332.666.999.888 2.11 1.111 3.22.333 2.221.666 4.775 2.553 5.997 1.887 1.332 4.218 1.666 6.328 2.443 4.218 1.999 7.881 5.219 10.435 8.773l-.222.333zM664.076 279.535c-.999 2.776-2.775 5.108-4.662 7.329l-2.887 3.22c-.888 1.221-2.109 2.11-3.441 2.776-2.553 1.222-4.996 2.887-7.438 4.331-2.442 1.666-4.884 3.331-7.105 5.108-2.331 1.666-4.44 3.665-6.216 6.108l-5.329 6.773-5.44 6.885-2.664 3.443c-.888 1.11-1.665 2.332-2.886 3.22-1.11 1-2.443 1.666-3.553 2.443-1.221.778-2.331 1.777-3.33 2.776-2.109 1.999-4.329 3.998-6.661 5.664-4.551 3.664-8.77 7.662-12.322 12.215-3.997 4.442-4.663 10.549-8.104 15.324-3.108 4.886-7.438 9.217-12.989 11.327 5.551-2.11 9.881-6.441 12.989-11.327 3.33-4.775 4.107-10.882 7.993-15.324 3.552-4.664 7.882-8.662 12.322-12.326 2.331-1.666 4.552-3.665 6.661-5.664.999-.999 2.109-1.999 3.33-2.776 1.221-.888 2.443-1.554 3.553-2.443 1.221-.888 1.887-2.11 2.886-3.22l2.664-3.443 5.329-6.885 5.44-6.884c1.665-2.332 3.774-4.331 6.105-6.108 2.332-1.777 4.774-3.442 7.105-5.108 2.553-1.444 4.885-3.109 7.549-4.442 1.332-.666 2.442-1.444 3.33-2.554l2.887-3.331c1.776-2.221 3.552-4.553 4.551-7.218l.333.111zM761.213 221.568c-1.221.445-2.22 1.888-3.219 2.888-1.111 1.11-2.221 2.11-3.109 3.22-1.887 2.332-3.885 4.664-6.328 6.441-2.331 1.776-4.773 3.664-7.548 4.997-2.665 1.332-5.551 2.11-8.548 2.665-2.998.444-5.995.555-8.992.444-2.998-.111-5.995-.444-8.992-.222-2.998.222-5.995.777-8.77 1.777-2.776.999-5.551 2.443-8.548 2.665-1.554.111-3.109-.222-4.441-1-1.221-.777-2.331-1.776-3.552-2.665-2.331-1.999-5.551-2.554-8.437-2.11-2.886.667-5.662 1.777-8.548 2.666-2.886 1.11-5.884 1.443-8.77 2.109l-4.441 1-4.44.666c-1.443.222-2.886.555-4.441.666-1.443.111-2.997.111-4.44.111-1.554 0-2.997 0-4.552.223-1.443.333-2.886.777-4.329 1.11l-4.33 1.222c-1.443.333-2.886.999-4.329.999 1.443 0 2.886-.666 4.329-.999l4.33-1.222c1.443-.333 2.886-.777 4.329-1.11a31.275 31.275 0 0 1 4.552-.334c1.443 0 2.997 0 4.44-.111 1.555-.111 2.998-.444 4.441-.666l4.44-.666 4.441-1c2.886-.666 5.884-.999 8.659-2.109 2.886-.889 5.662-1.999 8.659-2.666 2.886-.444 6.217.111 8.548 2.11 1.221.889 2.22 1.888 3.552 2.665 1.332.778 2.776 1 4.33.889 2.997-.222 5.661-1.555 8.437-2.665 2.886-1 5.883-1.555 8.881-1.777 2.997-.222 5.994.111 8.992.222 2.997.111 5.994 0 8.881-.555a31.757 31.757 0 0 0 8.548-2.554c2.664-1.333 5.106-3.221 7.548-4.997 2.332-1.888 4.33-3.998 6.217-6.441.888-1.111 1.998-2.221 3.108-3.22l1.555-1.666c.555-.444.999-1.111 1.887-1.333v.333z"/><path d="M692.385 245.221c-1.443 1.888-2.776 3.887-4.885 5.108-1.998 1.333-4.44 1.666-6.661 2.332-4.44 1.666-9.436.889-13.765 2.554-2.22.889-3.219 3.221-5.107 4.775-1.887 1.444-3.885 2.776-6.105 3.554-4.441 1.888-9.325.777-13.877 2.11-9.325 1.665-18.095 5.108-27.309 6.996-2.442.111-4.662.999-6.772 1.887-2.22.889-4.218 2.11-6.216 3.221-1.111.555-2.11 1.221-3.22 1.554-1.11.334-2.331.667-3.441 1-1.11.333-1.998 1.11-3.109 1.666-.999.555-2.109 1.11-2.664 2.109.555-.999 1.665-1.554 2.664-2.109 1.111-.556 1.999-1.333 3.109-1.666 1.11-.444 2.331-.666 3.441-1 1.11-.333 2.109-.999 3.109-1.554 2.109-1.111 4.107-2.332 6.327-3.221 2.11-.999 4.33-1.887 6.772-1.998 9.103-1.888 17.984-5.331 27.309-6.996 4.441-1.444 9.436-.334 13.877-2.221 2.109-.778 4.107-2.11 5.994-3.554 1.777-1.443 2.776-3.886 5.107-4.775 4.44-1.665 9.325-.888 13.765-2.665 2.332-.555 4.663-.999 6.661-2.221 1.887-1.332 3.331-3.22 4.774-5.108l.222.222zM547.957 108.856c-2.331.444-4.662 1-6.994.666-2.442-.444-4.44-1.665-6.549-2.665-4.552-1.665-7.771-5.552-12.101-7.218-2.22-.777-4.551.333-6.994.222-2.331-.11-4.662-.444-6.882-1.332-4.552-1.555-7.549-5.664-11.879-7.551-7.993-4.886-16.874-8.218-25.089-12.882-1.887-1.443-4.107-2.22-6.327-2.998-2.221-.777-4.552-1.11-6.883-1.666-1.11-.333-2.22-.555-3.33-1-1.111-.443-2.11-.999-3.22-1.443-1.11-.555-2.331-.555-3.441-.888-1.11-.222-2.331-.444-3.442-.111 1.111-.333 2.332-.111 3.442.11 1.11.223 2.331.334 3.441.89 1.11.443 2.109.999 3.22 1.443 1.11.444 2.22.666 3.33.888 2.331.555 4.662 1 6.883 1.777 2.22.666 4.551 1.444 6.438 2.887 8.104 4.664 16.985 7.996 25.089 12.77 4.33 2 7.327 5.997 11.879 7.552 2.109.888 4.44 1.221 6.771 1.332 2.332.111 4.663-1.11 7.105-.222 4.441 1.666 7.66 5.552 12.101 7.107 2.109 1 4.107 2.332 6.438 2.665 2.332.333 4.663-.222 6.883-.666l.111.333zM435.834 228.231c.333 1.666-.666 2.887-1.332 3.887-.777 1.11-1.665 2.11-2.553 2.998-1.554 2.11-3.442 3.998-5.773 5.33-2.22 1.444-5.106 1.333-7.549 1.666-2.442.333-4.551 1.999-6.66 3.442-1.999 1.555-4.108 3.11-6.772 3.776-2.665.444-5.218-.222-7.771-.222s-5.107-.111-7.66.222c-2.442.333-4.885 1.333-7.549 1.666-2.553.444-5.106.444-7.66.111-2.553-.222-5.106-.778-7.66-.555-5.106.444-9.547 3.775-14.875 3.886-2.553.111-5.107-.444-7.549-1.221-1.221-.334-2.442-.889-3.663-1-1.333-.111-2.554.222-3.775.666-2.442.778-4.662 2.11-6.994 3.11-2.442.999-4.995 1.221-7.549 1.777 2.554-.556 5.107-.778 7.549-1.888 2.332-.889 4.552-2.221 6.994-3.11 1.221-.444 2.442-.777 3.775-.777 1.332.222 2.442.777 3.663 1.111 2.442.666 4.996 1.221 7.549 1.11 5.217-.222 9.658-3.442 14.875-4.109 2.554-.222 5.107.333 7.66.556 2.554.333 5.107.222 7.66-.223 2.442-.333 4.885-1.332 7.438-1.776 2.664-.333 5.218-.222 7.771-.111 2.553-.111 5.217.555 7.549 0 2.442-.556 4.551-2.11 6.55-3.665 2.109-1.443 4.218-3.109 6.993-3.553 2.554-.334 5.107-.334 7.216-1.666 2.22-1.222 3.997-3.109 5.551-5.108.777-1 1.665-1.999 2.331-2.998.777-1 1.443-2.11 1.221-3.11l.999-.222z"/><path d="M384.102 250.552c-4.33-2.333-8.881-3.998-13.544-5.22a80.56 80.56 0 0 0-7.104-1.444c-2.443-.222-4.774-1.11-6.883-2.332-2.109-1.222-4.219-2.443-6.661-2.555-2.442-.222-4.774.223-7.216.667-2.331.444-4.662.999-7.105 1.333-2.442.333-4.884 0-7.215-.778-2.332-.777-4.552-1.777-6.883-2.443-2.331-.555-4.774-.556-7.216-.889-4.773-.555-9.658-1.221-14.432-1.555-4.884-.111-9.658 0-14.542-.333-2.443.111-4.774.556-7.216.889-2.331.444-4.774.999-6.772 2.554 1.998-1.555 4.441-2.11 6.772-2.554 2.442-.444 4.773-.778 7.216-.889 4.884.333 9.658.111 14.542.222 4.885.334 9.659 1 14.432 1.444 2.442.333 4.885.444 7.216 1 2.442.555 4.662 1.666 6.883 2.332 4.662 1.888 9.658.444 14.32-.555 2.331-.445 4.774-.889 7.216-.667 2.553 0 4.663 1.333 6.772 2.555 2.109 1.11 4.44 1.999 6.772 2.221 2.442.37 4.847.888 7.215 1.555 4.663 1.11 9.325 2.776 13.544 5.109l-.111.333zM436.057 308.185c-3.553 7.884-7.771 15.657-13.877 22.098-3.219 2.998-7.549 4.331-10.768 7.218-3.33 2.665-6.106 6.107-8.437 9.661-4.33 7.551-3.219 16.99-6.994 24.985-.888 1.999-1.998 3.887-3.33 5.553-1.332 1.665-2.998 3.331-4.996 4.331-3.996 1.665-7.327 4.441-10.324 7.551-2.997 3.109-5.662 6.551-8.437 9.994-2.664 3.442-5.551 6.663-8.215 9.994-1.443 1.666-2.886 3.331-4.107 5.108a35.142 35.142 0 0 0-2.887 5.775c-.888 1.998-1.665 3.997-2.442 6.107-.777 1.999-2.664 3.554-4.773 4.109-1 .333-2.11.666-2.998 1.221-.999.445-1.776 1.222-2.553 1.999-1.332 1.666-2.331 3.554-3.219 5.553-.777 1.998-1.444 4.108-2.332 6.107l-2.886 5.886c-.888 1.887-1.443 3.997-2.442 5.996-1.11 1.888-2.331 3.665-3.553 5.441-2.664 3.443-5.772 6.552-8.659 9.773 2.887-3.221 5.884-6.33 8.548-9.884 1.332-1.665 2.554-3.442 3.553-5.441 1.11-1.888 1.665-3.998 2.553-5.996l2.775-5.886c.888-1.999 1.555-3.998 2.332-5.996.888-1.999 1.887-3.998 3.219-5.664.777-.777 1.554-1.554 2.553-2.11.999-.444 1.998-.777 3.109-1.11 1.998-.555 3.885-2.11 4.551-4.109.777-2.11 1.554-4.109 2.442-6.107.777-1.999 1.777-3.998 2.998-5.775 1.11-1.888 2.664-3.442 3.996-5.108 2.775-3.442 5.551-6.663 8.215-10.105 2.664-3.443 5.329-6.885 8.437-9.994 2.886-3.11 6.439-5.997 10.435-7.663 1.887-.999 3.442-2.554 4.774-4.219 1.332-1.666 2.442-3.554 3.33-5.553 3.664-7.884 2.442-17.212 6.883-24.985 2.442-3.665 5.106-7.107 8.548-9.883 3.33-2.888 7.66-4.331 10.768-7.218 2.997-2.999 5.329-6.774 7.66-10.439 2.442-3.553 3.996-7.551 5.884-11.549l.666.334zM988.01 206.688l-11.545-3.22c-3.774-1.11-7.771-2.221-11.545-3.664-7.66-2.777-14.765-6.996-21.204-11.882-13.099-9.661-23.312-22.321-34.636-33.314-5.772-5.553-11.878-10.439-18.761-14.547-6.771-4.109-13.876-7.441-21.314-10.328-7.438-2.887-14.987-5.552-22.536-7.773-7.659-2.221-15.541-3.331-23.423-4.886-7.882-1.444-15.542-3.998-23.313-5.664-7.771-1.776-15.542-3.553-23.201-6.218-3.775-1.333-7.549-2.887-10.991-4.886-3.552-1.999-6.66-4.775-9.547-7.551-2.886-2.777-5.55-5.664-8.77-8.107-2.997-2.443-6.66-4.108-10.324-5.663-3.663-1.444-7.327-3.443-11.212-3.887-3.886-.666-7.771.333-11.434 1.777-3.775 1.444-7.438 3.11-11.435 3.998a121.811 121.811 0 0 1-11.767 1.887c-7.993.889-15.986 1-23.979 0-1.998-.333-3.996-.555-5.883-.999-1.999-.555-3.886-1.221-5.773-1.888-3.663-1.221-7.66-2.887-11.545-1.776 3.885-1.11 7.882.444 11.656 1.665 1.887.666 3.774 1.333 5.662 1.888 1.998.333 3.885.666 5.883.888 7.993.889 15.986.778 23.868-.222 3.996-.444 7.882-1.11 11.767-1.999 3.886-.888 7.549-2.554 11.324-3.997 3.663-1.555 7.77-2.554 11.767-2 4.107.556 7.771 2.444 11.434 3.888 3.664 1.554 7.438 3.22 10.657 5.663 3.22 2.443 5.995 5.33 8.881 8.106 2.887 2.776 5.884 5.442 9.325 7.33 3.442 1.887 7.105 3.331 10.88 4.663 7.548 2.554 15.319 4.22 23.09 5.997 7.882 1.554 15.542 4.109 23.313 5.441 7.882 1.444 15.764 2.554 23.646 4.664 7.77 2.221 15.208 4.775 22.757 7.662 7.549 2.888 14.876 6.219 21.759 10.328 6.993 3.997 13.432 9.105 19.316 14.658 11.656 10.993 21.869 23.431 34.636 32.759 6.327 4.664 13.21 8.661 20.537 11.326 3.663 1.333 7.438 2.332 11.323 3.332l11.545 3.22-.888 3.331z"/><path d="M869.006 128.622c-2.887-3.22-6.883-4.997-10.88-6.33-3.996-1.443-7.771-3.442-11.434-5.663a78.454 78.454 0 0 1-10.324-7.551c-3.109-2.776-6.328-5.664-9.769-8.218-3.331-2.554-7.216-4.33-10.768-6.773-1.777-1.11-3.331-2.555-4.441-4.442-1.221-1.777-2.22-3.665-3.552-5.33-1.444-1.555-3.553-2.332-5.551-2.999-1.998-.555-4.107-1-6.217-1.443-4.107-.889-7.882-2.999-11.767-4.664 3.885 1.665 7.66 3.775 11.878 4.664 1.999.444 4.108.777 6.217 1.443 1.998.555 4.107 1.333 5.44 2.998 1.443 1.555 2.442 3.554 3.552 5.33 1.11 1.777 2.775 3.221 4.552 4.331 3.552 2.333 7.437 4.22 10.768 6.774 3.441 2.554 6.661 5.442 9.88 8.218a78.378 78.378 0 0 0 10.213 7.44c3.663 2.221 7.438 4.109 11.434 5.663 3.997 1.222 8.104 3.11 10.991 6.219l-.222.333zM809.836 113.076c-2.775-.111-5.551.666-8.326 1.221-2.886.778-5.773.666-8.548.889-2.886.111-5.773.444-8.659.222a112.013 112.013 0 0 1-8.548-1c-5.662-.777-11.323-1.665-16.985-1.11-5.772.555-10.99 3.22-16.43 4.886-2.775.888-5.55 1.443-8.437 1.443-2.886.111-5.772-.111-8.548-.111-5.772-.222-11.323 1.888-16.54 4.109-2.665 1.111-5.218 2.332-7.993 3.22a36.103 36.103 0 0 1-8.437 1.333c-5.773.111-11.435-.111-17.096.888 5.661-.999 11.323-.777 17.096-.888 2.886-.111 5.661-.555 8.437-1.444 2.775-.777 5.328-2.109 7.882-3.22 5.217-2.221 10.768-4.331 16.651-4.109 2.776 0 5.662.222 8.548.111 2.887-.111 5.662-.555 8.437-1.443 5.44-1.666 10.547-4.331 16.319-4.997 5.773-.555 11.545.333 17.207 1.11 2.775.333 5.662.778 8.437.889 2.886.222 5.773-.111 8.548-.223 2.886-.111 5.773-.111 8.548-.888 2.775-.555 5.551-1.332 8.437-1.332v.444zM937.833 219.347c-.222.445-.888.889-1.443.889h-.444c-.296-.074-.444-.148-.444-.222a4.307 4.307 0 0 1-.555-.222c-.333-.111-.555-.222-.777-.333l-1.444-.889-2.553-1.666-5.106-3.442c-3.331-2.221-6.772-4.886-9.992-6.663-6.993-3.442-15.097-5.108-22.979-5.552-16.097-.555-31.972 3.887-48.18 6.218-4.107.445-8.214.667-12.433 0-1.998-.333-4.107-.999-5.995-1.998-1.887-1.111-3.33-2.665-4.995-3.665-1.554-1.11-3.442-1.332-5.44-1.666-1.998-.222-4.107-.222-6.105-.333-4.108-.222-8.104-1.11-12.212-1.332-3.996-.444-8.104-.667-12.1-1.222-4.108-.666-8.104-1.443-11.99-2.554-7.881-2.221-15.319-5.996-21.647-11.105 6.439 4.998 13.877 8.662 21.758 10.661 3.886.999 7.882 1.777 11.99 2.332 3.996.555 7.993.666 12.1.999 4.108.111 8.104 1 12.101 1.111 2.109.111 4.107.111 6.216.333 1.998.111 4.219.444 6.106 1.666 1.776 1.11 3.219 2.665 4.884 3.553 1.777.889 3.664 1.444 5.551 1.777 3.997.555 7.993.222 11.989-.333 15.986-2.554 31.75-7.329 48.513-6.996 8.215.333 16.541 1.777 24.201 5.441 3.885 2.11 6.993 4.442 10.546 6.663l4.995 3.331 2.554 1.555 1.332.777a.848.848 0 0 0 .555.222c.074.074.148.111.222.111h-.444c-.444 0-1.11.334-1.221.778l2.886 1.776z"/><path d="M917.961 207.354c-4.773-3.886-8.992-8.439-13.543-12.548-4.774-3.886-8.77-8.661-14.099-11.549-2.664-1.554-5.773-1.887-8.881-1.887-2.997 0-6.106 0-8.992 1.11-1.443.444-2.997.888-4.551.999l-4.552.223c-3.108.222-6.106.555-9.214.444-6.217-.333-11.989-2.776-17.984-3.998-2.997-.666-6.106-.999-9.103-.444-2.997.555-5.773 1.999-8.437 3.553-2.664 1.444-5.218 3.221-8.104 4.331-2.775 1.222-5.994 1.444-8.992.778-2.997-.556-6.106-1.444-9.103-.667-2.997.778-5.55 2.887-8.77 2.776 3.22.111 5.773-1.998 8.77-2.776 2.997-.777 6.106 0 9.103.555 2.998.667 6.106.445 8.992-.777 2.775-1.221 5.44-2.887 8.104-4.442 2.553-1.443 5.329-2.998 8.437-3.442 2.997-.666 6.217-.333 9.214.222 5.995 1.221 11.767 3.664 17.873 3.998 2.997.111 6.106-.333 9.214-.445l4.552-.333c1.443-.111 2.997-.555 4.44-.999 2.886-1.111 6.106-1.111 9.103-1.111 3.108 0 6.328.334 9.103 1.777 5.551 2.998 9.547 7.884 14.21 11.66 4.662 4.109 8.881 8.551 13.654 12.437l-.444.555z"/><path d="M887.877 200.47c-.555 1.665-1.998 2.554-3.33 3.553-1.222.999-2.665 1.777-3.886 2.887-2.553 1.999-5.328 3.776-8.437 4.775-1.48.518-3.034.963-4.662 1.333-1.554.222-3.22.333-4.885.444-1.554.222-3.219.333-4.662.888a31.99 31.99 0 0 0-4.441 1.999c-5.773 2.887-10.102 8.107-16.097 10.772-2.886 1.221-6.438 1.888-9.325.222-1.443-.778-2.997-1.444-4.551-1.333-1.665 0-3.22.333-4.885.222 1.665.111 3.22-.222 4.885-.222 1.554-.111 3.108.555 4.551 1.333 2.887 1.666 6.439.999 9.325-.333 5.884-2.665 10.213-7.885 15.986-10.883 1.443-.666 2.886-1.443 4.441-1.999 1.554-.555 3.219-.666 4.773-.888 1.665-.111 3.219-.222 4.885-.444a46.065 46.065 0 0 0 4.551-1.333c3.109-1.11 5.884-2.776 8.326-4.775 1.332-1.11 2.664-1.999 3.997-2.887 1.221-.999 2.664-1.999 3.108-3.442l.333.111zM936.611 181.702c-2.442.334-4.995-.444-7.104-1.665-2.221-1.333-3.997-2.999-5.662-4.664-1.776-1.555-3.33-3.332-5.218-4.664-1.887-1.222-4.107-2.11-6.327-2.554-2.221-.444-4.552-.556-6.994-.444-2.22.111-4.774.333-7.216 0-4.774-.667-9.214-2.555-13.766-3.887-4.44-1.333-9.214-2.554-13.654-4.109-2.22-.666-4.441-.555-6.661.222-2.109.778-4.107 2.11-6.217 3.221-1.11.555-2.109 1.221-3.219 1.665-1.221.444-2.553.556-3.774.111-1.221-.333-2.221-1.221-3.109-1.998-.888-.778-1.887-1.222-2.997-1.555-4.44-1.444-9.325-1.111-13.988-1.555-2.442-.222-4.773-.444-7.104-.999-2.443-.444-4.663-1.333-6.883-1.777-4.663-1.333-9.214.777-13.544 2.665-2.22.889-4.44 1.888-6.771 2.443l-6.994 1.333c-4.663 1.11-9.547.666-14.099-.555-2.331-.667-4.773-.778-6.772-2.221-1.11-.667-1.554-1.888-2.109-2.999-.444-.999-1.665-1.554-2.664-1.887-4.552-1.333-9.325-2.332-14.099-1.888-2.331.111-4.662.222-7.104 0a38.805 38.805 0 0 1-6.994-1.333c-4.552-1.221-9.103-2.887-13.877-3.22 4.774.222 9.325 1.888 13.877 3.109a38.805 38.805 0 0 0 6.994 1.333c2.442.222 4.773 0 7.104-.111 4.774-.333 9.547.555 14.099 1.776 1.11.445 2.331 1 2.886 2.11.555 1.111.999 2.221 1.998 2.888 1.999 1.332 4.441 1.443 6.661 2.109 4.663 1.222 9.436 1.555 14.099.556l6.883-1.444c2.331-.555 4.551-1.555 6.66-2.443 2.221-.999 4.33-1.999 6.661-2.665 2.331-.666 4.885-.777 7.216-.222 2.331.555 4.551 1.332 6.883 1.777 2.331.555 4.662.777 6.993.888 4.774.444 9.548.111 14.21 1.555a9.4 9.4 0 0 1 3.33 1.665c.889.778 1.777 1.555 2.776 1.888 2.109.777 4.329-.555 6.327-1.777 2.11-1.11 4.108-2.443 6.328-3.331 2.331-.888 4.996-1 7.327-.222 4.551 1.554 9.103 2.665 13.654 3.997 4.552 1.333 8.993 3.11 13.655 3.776 2.331.222 4.552.111 6.994-.111 2.442-.111 4.773 0 7.216.444 2.442.444 4.773 1.333 6.771 2.776 2.11 1.333 3.664 3.11 5.44 4.775 3.219 3.221 7.216 6.441 11.767 5.886l.111 1.332zM307.616 204.134c-5.106 2.221-9.88 5.33-14.542 8.328-4.774 3.11-9.881 5.442-14.321 8.995l-12.989 10.55c-4.329 3.664-8.992 6.773-13.543 10.216l-6.772 4.997c-2.22 1.666-4.662 3.109-7.327 4.109-2.664.999-5.439 1.665-8.215 1.665-2.886.111-5.661-.555-8.325-1.11-2.776-.666-5.551-.666-8.437-.888-2.776-.223-5.551-.334-8.326-.111-5.662.666-10.769 2.998-16.319 4.108-5.551.778-11.101 1.888-16.652 2.776-2.775.445-5.329 1.555-7.993 2.443-2.664 1-5.44 1.777-8.215 1.888-2.886 0-5.55-.999-8.104-2.11-2.664-.999-5.439-1.665-8.215-1.776-5.661-.223-11.101 1.443-16.43 2.998-2.775.888-5.439 1.443-8.215 2.332-2.664.777-5.328 1.777-8.103 1.888-5.662-.334-11.213.999-16.763 1.665-1.332.333-2.665.778-3.886 1.555-.555.333-1.11.888-1.887.999-.666 0-1.332-.222-1.998-.444-2.664-.888-5.44-1.666-8.104-2.221-5.55-1.221-11.101-2.221-16.208-4.553 5.107 2.221 10.657 3.221 16.208 4.553 2.664.555 5.44 1.222 8.104 2.221.666.111 1.332.333 1.998.333.777 0 1.332-.555 1.887-.888 1.221-.777 2.554-1.333 3.886-1.555 5.55-.666 11.101-2.11 16.763-1.776 2.775-.111 5.439-1 8.103-1.888 2.665-.889 5.44-1.444 8.104-2.221 5.44-1.555 10.88-3.332 16.541-3.109 2.776.111 5.662.777 8.215 1.776 2.554 1.111 5.218 2.11 8.104 2.11 2.775-.111 5.551-.888 8.104-1.888 2.664-.888 5.329-2.11 8.104-2.443 5.551-.999 11.101-1.998 16.541-2.887 5.55-.999 10.768-3.442 16.43-3.998 2.775-.333 5.55-.222 8.437 0 2.775.223 5.55.223 8.326.889 2.775.555 5.55 1.221 8.325 1.11 2.776 0 5.551-.666 8.104-1.665 2.665-1 5.107-2.443 7.327-4.109l6.772-4.997c4.44-3.443 9.103-6.552 13.432-10.217l13.1-10.549c4.329-3.553 9.547-5.996 14.209-8.995 4.774-2.998 9.437-6.107 14.654-8.439l.111.333zM189.164 164.379c-1.332-.666-2.886-.777-4.218-1.11a28.504 28.504 0 0 0-4.441-.667c-2.886 0-5.883 0-8.77-.555-1.443-.222-2.997-.333-4.44-.777-1.443-.334-2.664-1.111-4.108-1.666-2.664-1.111-5.661-1.222-8.659-1.222l-8.77-.111c-2.997-.222-5.883.555-8.881-.111-2.886-.555-5.661-1.888-8.103-3.554-2.443-1.666-5.218-2.554-8.104-3.443-2.776-.888-5.662-1.555-8.659-1.333-2.887 0-5.884.778-8.77.667-1.554-.111-2.998-.333-4.44-.555-1.444-.112-2.887.111-4.33.444-2.886.777-5.44 2.221-8.215 3.221-1.443.555-2.775.999-4.33 1.221-1.443.222-2.886-.111-4.33-.333-1.553 0-2.886.555-4.329 1.111-1.332.666-2.553 1.443-3.774 2.221-2.442 1.555-4.885 3.443-7.882 3.998-2.886 1-5.884-1.333-8.659.222 2.775-1.555 5.773.666 8.659-.222 2.997-.666 5.329-2.443 7.77-4.109 1.333-.778 2.554-1.555 3.886-2.11 1.333-.556 2.776-1.222 4.33-1.111 1.443.111 2.886.444 4.33.222 1.442-.222 2.886-.666 4.218-1.11 2.775-1.111 5.44-2.555 8.215-3.332 1.443-.333 2.997-.556 4.44-.445 1.443.223 2.887.445 4.441.556 2.886.111 5.772-.667 8.77-.667 2.997-.222 5.883.445 8.77 1.333 2.775.778 5.661 1.777 8.104 3.443 2.442 1.555 5.217 2.888 7.992 3.443 2.887.666 5.884-.111 8.881.111l8.77.111c2.998 0 5.995 0 8.771 1.111 1.443.666 2.664 1.443 4.107 1.777 1.443.333 2.886.444 4.329.666 2.887.555 5.884.555 8.77.555 1.555.111 2.998.333 4.441.667 1.443.333 2.997.444 4.329 1.11l-.111.333zM528.53 287.53c.444.667-.222 2.332-.555 3.443a18.559 18.559 0 0 1-1.776 3.664c-1.444 2.221-3.331 4.331-4.885 6.552-1.665 2.11-3.996 3.554-6.55 4.442-2.553.777-5.328 1.333-7.882 2.332-2.664.999-5.217 2.221-7.437 3.776-2.332 1.554-4.552 3.331-6.55 5.108-2.109 1.888-3.664 4.22-5.44 6.329l-4.995 6.552c-1.666 2.11-4.108 3.776-6.772 3.776-1.332 0-2.775-.444-4.219 0-1.332.444-2.553 1.221-3.663 1.999-4.662 2.776-9.547 5.552-13.877 8.994-4.329 3.221-9.547 5.553-15.208 5.553-1.332.222-2.553 1.11-3.664 1.776l-3.552 1.999c-2.442 1.444-5.107 2.332-7.882 2.332 2.775 0 5.44-.888 7.882-2.221l3.552-2.11c1.222-.666 2.332-1.443 3.775-1.665 5.55.111 10.879-2.221 15.32-5.442 4.329-3.442 9.103-6.107 13.876-8.994 1.11-.667 2.331-1.444 3.552-1.777 1.333-.444 2.665 0 4.108 0 2.886.111 5.44-1.666 7.216-3.887l4.995-6.551c1.776-2.11 3.331-4.331 5.44-6.108 4.107-3.665 8.548-6.885 13.765-8.662 10.769-1.443 21.426-9.883 22.314-21.876l-.888.666z"/></g></svg>