<svg width="1074" height="149" fill="none" xmlns="http://www.w3.org/2000/svg"><path d="m13.542 125 15.6-88.44h58.2l15.12 18.36-9.12 51.72-21.6 18.36h-58.2zm25.68-17.04h25.56l7.56-6.36 7.32-41.64-5.28-6.36h-25.56l-9.6 54.36zM98.639 125l11.04-62.76h22.68l-1.68 9.84 12.36-9.72h12.48l-3.48 20.04h-18.24l-5.76 4.44-6.72 38.16h-22.68zm63.015-69.72 3-16.8h22.92l-3 16.8h-22.92zM149.534 125l11.04-62.76h22.68L172.214 125h-22.68zm49.006 0-11.16-62.64h24.84l3 45.72h4.32l16.2-45.72h27.72L230.22 125h-31.68zm68.631 0-10.92-13.32 6.24-36 15.72-13.32h35.76l10.92 13.32-4.08 23.76h-39.72l-1.08 5.52 3.6 4.2h34.44l-2.76 15.84h-48.12zm16.2-38.52h19.08l1.32-7.44-3.6-4.2h-10.44l-5.04 4.2-1.32 7.44zM350.714 125l3.6-20.64 54.12-39.72 1.32-7.44-2.88-3.6h-15.84l-4.2 3.6-1.68 9.24h-22.68l3.24-18.12 14.64-11.76h43.08l10.56 11.76-4.2 23.76-48.6 35.04h43.08l-3.12 17.88h-70.44zm106.645 0 15.6-88.44h67.68l-3.24 18.24h-45l-2.88 16.32h40.56l-2.88 16.92h-40.68l-3.24 18.72h45l-3.24 18.24h-67.68zm68.963 0 42-88.44h36.6l10.08 88.44h-22.8l-1.32-17.64h-31.56l-7.44 17.64h-25.56zm40.08-34.92h23.04l-2.88-36.6h-4.32l-15.84 36.6zM620.081 125l15.6-88.44h60.72l11.16 13.32-5.64 31.68-12.48 10.56 7.56 32.88h-21.48l-6.36-30.12h-21.12l-5.28 30.12h-22.68zm30.96-47.16h25.2l5.04-4.2 2.76-15.84-3.48-4.2h-25.2l-4.32 24.24zM705.544 125l15.6-88.44h23.28L765.784 92l9.84-55.44h21.12l-15.6 88.44h-21.12l-19.92-51.84h-4.32l-9.12 51.84h-21.12zm105.206 0 42-88.44h36.6L899.43 125h-22.8l-1.32-17.64h-31.56L836.31 125h-25.56zm40.08-34.92h23.04l-2.88-36.6h-4.32l-15.84 36.6zM904.509 125l15.6-88.44h59.64l11.04 13.32-6 34.08-15.72 13.32h-36.96l-4.92 27.72h-22.68zm30.6-44.76h24.12l4.92-4.2 3.24-18.24-3.48-4.2h-24.12l-4.68 26.64zM983.644 125l15.6-88.44h59.636l11.04 13.32-6 34.08-15.72 13.32h-36.96l-4.92 27.72h-22.676zm30.596-44.76h24.12l4.92-4.2 3.24-18.24-3.48-4.2h-24.12l-4.68 26.64z" fill="#2600FF"/><path d="m13.542 125-.492-.087-.104.587h.596v-.5zm15.6-88.44v-.5h-.42l-.072.413.492.087zm58.2 0 .386-.318-.15-.182h-.236v.5zm15.12 18.36.492.087.04-.227-.146-.178-.386.318zm-9.12 51.72.324.381.137-.117.031-.177-.492-.087zM71.742 125v.5h.184l.14-.119-.324-.381zm-32.52-17.04-.492-.087-.104.587h.596v-.5zm25.56 0v.5h.182l.14-.117-.322-.383zm7.56-6.36.322.383.139-.117.032-.179-.493-.087zm7.32-41.64.492.087.04-.228-.147-.178-.385.319zm-5.28-6.36.385-.32-.15-.18h-.235v.5zm-25.56 0v-.5h-.42l-.072.413.492.087zm-34.788 71.487 15.6-88.44-.984-.174-15.6 88.44.984.174zM29.142 37.06h58.2v-1h-58.2v1zm57.814-.182 15.12 18.36.772-.636-15.12-18.36-.772.636zm15.014 17.955-9.12 51.72.984.174 9.12-51.72-.984-.174zm-8.952 51.426-21.6 18.36.648.762 21.6-18.36-.648-.762zM71.742 124.5h-58.2v1h58.2v-1zm-32.52-16.04h25.56v-1h-25.56v1zm25.882-.117 7.56-6.36-.644-.766-7.56 6.36.644.766zm7.73-6.656 7.32-41.64-.984-.174-7.32 41.64.985.174zm7.213-42.046-5.28-6.36-.77.638 5.28 6.36.77-.638zM74.382 53.1h-25.56v1h25.56v-1zm-26.052.413-9.6 54.36.984.174 9.6-54.36-.984-.174zM98.639 125l-.492-.087-.104.587h.596v-.5zm11.04-62.76v-.5h-.42l-.073.413.493.087zm22.68 0 .493.084.099-.584h-.592v.5zm-1.68 9.84-.493-.084-.218 1.28 1.02-.803-.309-.393zm12.36-9.72v-.5h-.173l-.136.107.309.393zm12.48 0 .493.086.101-.586h-.594v.5zm-3.48 20.04v.5h.421l.072-.415-.493-.085zm-18.24 0v-.5h-.17l-.135.104.305.396zm-5.76 4.44-.305-.396-.154.118-.034.191.493.087zm-6.72 38.16v.5h.42l.072-.413-.492-.087zm-22.188.087 11.04-62.76-.985-.174-11.04 62.76.985.174zM109.68 62.74h22.68v-1h-22.68v1zm22.187-.584-1.68 9.84.986.168 1.68-9.84-.986-.168zm-.878 10.317 12.36-9.72-.618-.786-12.36 9.72.618.786zm12.051-9.613h12.48v-1h-12.48v1zm11.987-.585-3.48 20.04.986.17 3.48-20.04-.986-.17zM152.039 81.9h-18.24v1h18.24v-1zm-18.545.104-5.76 4.44.61.792 5.76-4.44-.61-.792zm-5.948 4.75-6.72 38.159.985.174 6.72-38.16-.985-.174zm-6.227 37.746h-22.68v1h22.68v-1zm40.335-69.22-.492-.088-.105.588h.597v-.5zm3-16.8v-.5h-.419l-.073.412.492.088zm22.92 0 .492.088.105-.588h-.597v.5zm-3 16.8v.5h.419l.073-.412-.492-.088zM149.534 125l-.493-.087-.103.587h.596v-.5zm11.04-62.76v-.5h-.42l-.073.413.493.087zm22.68 0 .492.087.104-.587h-.596v.5zM172.214 125v.5h.42l.072-.413-.492-.087zm-10.068-69.632 3-16.8-.984-.176-3 16.8.984.176zm2.508-16.388h22.92v-1h-22.92v1zm22.428-.588-3 16.8.984.176 3-16.8-.984-.176zm-2.508 16.388h-22.92v1h22.92v-1zm-34.548 70.307 11.04-62.76-.985-.174-11.04 62.76.985.174zm10.548-62.347h22.68v-1h-22.68v1zm22.187-.587-11.04 62.76.985.174 11.04-62.76-.985-.174zM172.214 124.5h-22.68v1h22.68v-1zm26.326.5-.492.088.073.412h.419v-.5zm-11.16-62.64v-.5h-.597l.105.588.492-.088zm24.84 0 .499-.033-.031-.467h-.468v.5zm3 45.72-.499.033.031.467h.468v-.5zm4.32 0v.5h.353l.118-.333-.471-.167zm16.2-45.72v-.5h-.353l-.118.333.471.167zm27.72 0 .441.234.39-.734h-.831v.5zM230.22 125v.5h.301l.14-.266-.441-.234zm-31.188-.088-11.16-62.64-.984.176 11.16 62.64.984-.176zM187.38 62.86h24.84v-1h-24.84v1zm24.341-.467 3 45.72.998-.066-3-45.72-.998.066zm3.499 46.187h4.32v-1h-4.32v1zm4.791-.333 16.2-45.72-.942-.334-16.2 45.72.942.334zM235.74 62.86h27.72v-1h-27.72v1zm27.278-.734-33.24 62.64.883.468 33.24-62.64-.883-.468zM230.22 124.5h-31.68v1h31.68v-1zm36.951.5-.386.317.15.183h.236v-.5zm-10.92-13.32-.492-.085-.039.225.145.177.386-.317zm6.24-36-.323-.382-.138.118-.031.179.492.085zm15.72-13.32v-.5h-.183l-.14.118.323.382zm35.76 0 .387-.317-.15-.183h-.237v.5zm10.92 13.32.493.085.039-.225-.145-.177-.387.317zm-4.08 23.76v.5h.422l.071-.415-.493-.085zm-39.72 0v-.5h-.411l-.079.404.49.096zm-1.08 5.52-.49-.096-.047.238.158.183.379-.325zm3.6 4.2-.379.325.149.175h.23v-.5zm34.44 0 .493.086.102-.586h-.595v.5zm-2.76 15.84v.5h.421l.072-.414-.493-.086zm-31.92-38.52-.492-.087-.104.587h.596v-.5zm19.08 0v.5h.42l.073-.413-.493-.087zm1.32-7.44.493.087.041-.233-.154-.18-.38.326zm-3.6-4.2.38-.325-.15-.175h-.23v.5zm-10.44 0v-.5h-.181l-.139.116.32.384zm-5.04 4.2-.32-.384-.14.117-.032.18.492.087zm-17.133 45.643-10.92-13.32-.773.634 10.92 13.32.773-.634zm-10.814-12.918 6.24-36-.985-.17-6.24 36 .985.17zm6.071-35.704 15.72-13.32-.647-.763-15.72 13.32.647.763zm15.396-13.201h35.76v-1h-35.76v1zm35.374-.183 10.92 13.32.773-.634-10.92-13.32-.773.634zm10.814 12.918-4.08 23.76.985.17 4.08-23.76-.985-.17zm-3.588 23.345h-39.72v1h39.72v-1zm-40.21.404-1.08 5.52.981.192 1.08-5.52-.981-.192zm-.969 5.941 3.6 4.2.759-.65-3.6-4.2-.759.65zm3.979 4.375h34.44v-1h-34.44v1zm33.948-.586-2.76 15.84.985.172 2.76-15.84-.985-.172zm-2.268 15.426h-48.12v1h48.12v-1zm-31.92-37.52h19.08v-1h-19.08v1zm19.573-.413 1.32-7.44-.985-.174-1.32 7.44.985.174zm1.207-7.852-3.6-4.2-.759.65 3.6 4.2.759-.65zm-3.98-4.375h-10.44v1h10.44v-1zm-10.76.116-5.04 4.2.641.768 5.039-4.2-.64-.768zm-5.212 4.497-1.32 7.44.985.174 1.32-7.44-.985-.174zM350.714 125l-.493-.086-.102.586h.595v-.5zm3.6-20.64-.296-.403-.162.119-.035.198.493.086zm54.12-39.72.296.403.161-.118.035-.198-.492-.087zm1.32-7.44.492.087.04-.223-.142-.176-.39.312zm-2.88-3.6.39-.312-.15-.188h-.24v.5zm-15.84 0v-.5h-.185l-.141.12.326.38zm-4.2 3.6-.326-.38-.134.116-.032.175.492.089zm-1.68 9.24v.5h.417l.075-.41-.492-.09zm-22.68 0-.492-.088-.105.588h.597v-.5zm3.24-18.12-.313-.39-.146.117-.033.185.492.088zm14.64-11.76v-.5h-.176l-.137.11.313.39zm43.08 0 .372-.334-.149-.166h-.223v.5zm10.56 11.76.492.087.043-.24-.163-.181-.372.334zm-4.2 23.76.292.406.165-.12.035-.199-.492-.087zm-48.6 35.04-.293-.406-1.256.906h1.549v-.5zm43.08 0 .492.086.103-.586h-.595v.5zm-3.12 17.88v.5h.42l.072-.414-.492-.086zm-69.948.086 3.6-20.64-.985-.172-3.6 20.64.985.172zm3.404-20.323 54.12-39.72-.592-.806-54.12 39.72.592.806zm54.316-40.036 1.32-7.44-.984-.174-1.32 7.44.984.174zm1.218-7.84-2.88-3.6-.781.625 2.88 3.6.781-.624zm-3.27-3.787h-15.84v1h15.84v-1zm-16.166.12-4.2 3.6.651.76 4.2-3.6-.651-.76zm-4.366 3.89-1.68 9.24.984.18 1.68-9.24-.984-.18zm-1.188 8.83h-22.68v1h22.68v-1zm-22.188.588 3.24-18.12-.984-.176-3.24 18.12.984.176zm3.061-17.818 14.64-11.76-.626-.78-14.64 11.76.626.78zm14.327-11.65h43.08v-1h-43.08v1zm42.708-.166 10.56 11.76.744-.668-10.56-11.76-.744.668zm10.44 11.339-4.2 23.76.984.174 4.2-23.76-.984-.174zm-4.001 23.441-48.6 35.04.585.812 48.6-35.04-.585-.812zm-48.307 35.946h43.08v-1h-43.08v1zm42.587-.586-3.12 17.88.985.172 3.12-17.88-.985-.172zm-2.627 17.466h-70.44v1h70.44v-1zm36.205.5-.492-.087-.104.587h.596v-.5zm15.6-88.44v-.5h-.419l-.073.413.492.087zm67.68 0 .493.087.104-.587h-.597v.5zm-3.24 18.24v.5h.419l.074-.413-.493-.087zm-45 0v-.5h-.419l-.073.413.492.087zm-2.88 16.32-.492-.087-.104.587h.596v-.5zm40.56 0 .493.084.1-.584h-.593v.5zm-2.88 16.92v.5h.422l.071-.416-.493-.084zm-40.68 0v-.5h-.421l-.071.415.492.085zm-3.24 18.72-.492-.085-.102.585h.594v-.5zm45 0 .493.087.104-.587h-.597v.5zm-3.24 18.24v.5h.419l.073-.413-.492-.087zm-67.187.087 15.6-88.44-.985-.174-15.6 88.44.985.174zm15.107-88.027h67.68v-1h-67.68v1zm67.188-.588-3.24 18.24.985.175 3.24-18.24-.985-.175zM537.399 54.3h-45v1h45v-1zm-45.492.413-2.88 16.32.985.174 2.88-16.32-.985-.174zm-2.388 16.907h40.56v-1h-40.56v1zm40.067-.584-2.88 16.92.986.168 2.88-16.92-.986-.168zm-2.387 16.504h-40.68v1h40.68v-1zm-41.172.415-3.24 18.72.985.17 3.24-18.72-.985-.17zm-2.748 19.305h45v-1h-45v1zm44.508-.587-3.24 18.24.984.174 3.241-18.24-.985-.174zm-2.748 17.827h-67.68v1h67.68v-1zm1.283.5-.452-.214-.339.714h.791v-.5zm42-88.44v-.5h-.316l-.136.285.452.215zm36.6 0 .496-.057-.05-.443h-.446v.5zm10.08 88.44v.5h.56l-.064-.557-.496.057zm-22.8 0-.499.037.035.463h.464v-.5zm-1.32-17.64.498-.037-.034-.463h-.464v.5zm-31.56 0v-.5h-.332l-.129.306.461.194zm-7.44 17.64v.5h.331l.129-.306-.46-.194zm14.52-34.92-.459-.199-.302.699h.761v-.5zm23.04 0v.5h.541l-.043-.54-.498.04zm-2.88-36.6.498-.04-.036-.46h-.462v.5zm-4.32 0v-.5h-.329l-.13.301.459.199zm-55.469 71.734 42-88.44-.903-.428-42 88.44.903.428zm41.549-88.154h36.6v-1h-36.6v1zm36.103-.443 10.08 88.44.993-.114-10.08-88.44-.993.114zm10.577 87.883h-22.8v1h22.8v-1zm-22.302.463-1.32-17.64-.997.074 1.32 17.64.997-.074zm-1.818-18.103h-31.56v1h31.56v-1zm-32.021.306-7.44 17.64.921.388 7.44-17.64-.921-.388zm-6.979 17.334h-25.56v1h25.56v-1zm14.52-33.92h23.04v-1h-23.04v1zm23.538-.54-2.88-36.6-.997.08 2.88 36.6.997-.08zm-3.378-37.06h-4.32v1h4.32v-1zm-4.779.301-15.84 36.6.918.398 15.84-36.6-.918-.398zM620.081 125l-.492-.087-.104.587h.596v-.5zm15.6-88.44v-.5h-.419l-.073.413.492.087zm60.72 0 .383-.321-.15-.179h-.233v.5zm11.16 13.32.492.088.041-.23-.15-.18-.383.322zm-5.64 31.68.323.382.138-.117.031-.177-.492-.088zm-12.48 10.56-.323-.382-.233.197.069.297.487-.112zm7.56 32.88v.5h.628l-.141-.612-.487.112zm-21.48 0-.489.103.084.397h.405v-.5zm-6.36-30.12.489-.103-.083-.397h-.406v.5zm-21.12 0v-.5h-.42l-.072.414.492.086zm-5.28 30.12v.5h.42l.073-.414-.493-.086zm8.28-47.16-.492-.088-.105.588h.597v-.5zm25.2 0v.5h.181l.139-.116-.32-.384zm5.04-4.2.32.384.141-.117.032-.181-.493-.086zm2.76-15.84.493.086.039-.227-.147-.178-.385.319zm-3.48-4.2.385-.319-.15-.181h-.235v.5zm-25.2 0v-.5h-.419l-.073.412.492.088zm-34.788 71.487 15.6-88.44-.984-.174-15.6 88.44.984.174zm15.108-88.027h60.72v-1h-60.72v1zm60.337-.179 11.16 13.32.766-.642-11.16-13.32-.766.642zm11.051 12.911-5.64 31.68.984.176 5.64-31.68-.984-.176zm-5.471 31.386-12.48 10.56.646.764 12.48-10.56-.646-.764zm-12.644 11.054 7.56 32.88.974-.224-7.56-32.88-.974.224zm8.047 32.268h-21.48v1h21.48v-1zm-20.991.397-6.36-30.12-.978.206 6.36 30.12.978-.206zm-6.849-30.517h-21.12v1h21.12v-1zm-21.612.414-5.28 30.12.985.172 5.28-30.12-.985-.172zm-4.788 29.706h-22.68v1h22.68v-1zm8.28-46.16h25.2v-1h-25.2v1zm25.52-.116 5.04-4.2-.64-.768-5.04 4.2.64.768zm5.213-4.498 2.76-15.84-.985-.172-2.76 15.84.985.172zm2.652-16.245-3.48-4.2-.77.638 3.48 4.2.77-.638zm-3.865-4.381h-25.2v1h25.2v-1zm-25.692.412-4.32 24.24.984.176 4.32-24.24-.984-.176zM705.544 125l-.493-.087-.103.587h.596v-.5zm15.6-88.44v-.5h-.42l-.073.413.493.087zm23.28 0 .466-.18-.123-.32h-.343v.5zM765.784 92l-.467.18.645 1.674.314-1.767-.492-.087zm9.84-55.44v-.5h-.419l-.074.413.493.087zm21.12 0 .492.087.104-.587h-.596v.5zm-15.6 88.44v.5h.419l.073-.413-.492-.087zm-21.12 0-.467.179.123.321h.344v-.5zm-19.92-51.84.466-.18-.123-.32h-.343v.5zm-4.32 0v-.5h-.42l-.073.413.493.087zm-9.12 51.84v.5h.419l.073-.413-.492-.087zm-20.628.087 15.6-88.44-.985-.174-15.6 88.44.985.174zm15.108-88.027h23.28v-1h-23.28v1zm22.813-.32 21.36 55.44.933-.36-21.36-55.44-.933.36zm22.319 55.347 9.84-55.44-.985-.174-9.84 55.44.985.174zm9.348-55.027h21.12v-1h-21.12v1zm20.627-.587-15.6 88.44.985.174 15.6-88.44-.985-.174zM781.144 124.5h-21.12v1h21.12v-1zm-20.654.321-19.92-51.84-.933.358 19.92 51.84.933-.358zM740.104 72.66h-4.32v1h4.32v-1zm-4.813.413-9.12 51.84.985.174 9.12-51.84-.985-.174zm-8.627 51.427h-21.12v1h21.12v-1zm84.086.5-.452-.214-.339.714h.791v-.5zm42-88.44v-.5h-.316l-.136.285.452.215zm36.6 0 .497-.057-.051-.443h-.446v.5zM899.43 125v.5h.56l-.063-.557-.497.057zm-22.8 0-.499.037.035.463h.464v-.5zm-1.32-17.64.498-.037-.034-.463h-.464v.5zm-31.56 0v-.5h-.332l-.129.306.461.194zM836.31 125v.5h.332l.129-.306-.461-.194zm14.52-34.92-.459-.199-.302.699h.761v-.5zm23.04 0v.5h.541l-.043-.54-.498.04zm-2.88-36.6.498-.04-.036-.46h-.462v.5zm-4.32 0v-.5h-.329l-.13.301.459.199zm-55.469 71.734 42-88.44-.903-.428-42 88.44.903.428zM852.75 37.06h36.6v-1h-36.6v1zm36.103-.443 10.08 88.44.994-.114-10.08-88.44-.994.114zM899.43 124.5h-22.8v1h22.8v-1zm-22.302.463-1.32-17.64-.997.074 1.32 17.64.997-.074zm-1.818-18.103h-31.56v1h31.56v-1zm-32.021.306-7.44 17.64.922.388 7.44-17.64-.922-.388zM836.31 124.5h-25.56v1h25.56v-1zm14.52-33.92h23.04v-1h-23.04v1zm23.538-.54-2.88-36.6-.997.08 2.88 36.6.997-.08zm-3.378-37.06h-4.32v1h4.32v-1zm-4.779.301-15.84 36.6.918.398 15.84-36.6-.918-.398zM904.509 125l-.492-.087-.104.587h.596v-.5zm15.6-88.44v-.5h-.419l-.073.413.492.087zm59.64 0 .385-.32-.15-.18h-.235v.5zm11.04 13.32.493.087.04-.228-.148-.178-.385.319zm-6 34.08.323.382.138-.117.032-.178-.493-.087zm-15.72 13.32v.5h.184l.139-.118-.323-.382zm-36.96 0v-.5h-.419l-.073.413.492.087zm-4.92 27.72v.5h.419l.073-.413-.492-.087zm7.92-44.76-.492-.087-.103.587h.595v-.5zm24.12 0v.5h.185l.14-.12-.325-.38zm4.92-4.2.325.38.136-.116.031-.177-.492-.087zm3.24-18.24.492.087.041-.228-.148-.178-.385.319zm-3.48-4.2.385-.319-.15-.181h-.235v.5zm-24.12 0v-.5h-.42l-.072.413.492.087zm-34.787 71.487 15.6-88.44-.985-.174-15.6 88.44.985.174zm15.107-88.027h59.64v-1h-59.64v1zm59.255-.18 11.04 13.32.77-.64-11.04-13.32-.77.64zm10.933 12.913-6 34.08.985.174 6-34.08-.985-.174zm-5.831 33.786-15.72 13.32.646.763 15.72-13.32-.646-.763zM969.069 96.78h-36.96v1h36.96v-1zm-37.452.413-4.92 27.72.984.174 4.921-27.72-.985-.174zm-4.428 27.307h-22.68v1h22.68v-1zm7.92-43.76h24.12v-1h-24.12v1zm24.445-.12 4.92-4.2-.649-.76-4.92 4.2.649.76zm5.087-4.493 3.24-18.24-.984-.174-3.24 18.24.984.174zm3.133-18.646-3.48-4.2-.77.638 3.48 4.2.77-.638zm-3.865-4.381h-24.12v1h24.12v-1zm-24.612.413-4.68 26.64.985.173 4.68-26.64-.985-.172zM983.644 125l-.493-.087-.103.587h.596v-.5zm15.6-88.44v-.5h-.42l-.073.413.493.087zm59.636 0 .39-.32-.15-.18h-.24v.5zm11.04 13.32.5.087.04-.228-.15-.178-.39.319zm-6 34.08.33.382.13-.117.04-.178-.5-.087zm-15.72 13.32v.5h.19l.14-.118-.33-.382zm-36.96 0v-.5h-.42l-.07.413.49.087zm-4.92 27.72v.5h.42l.08-.413-.5-.087zm7.92-44.76-.49-.087-.1.587h.59v-.5zm24.12 0v.5h.19l.14-.12-.33-.38zm4.92-4.2.33.38.13-.116.04-.177-.5-.087zm3.24-18.24.5.087.04-.228-.15-.178-.39.319zm-3.48-4.2.39-.319-.15-.181h-.24v.5zm-24.12 0v-.5h-.42l-.07.413.49.087zm-34.784 71.487 15.6-88.44-.985-.174-15.6 88.44.985.174zm15.108-88.027h59.636v-1h-59.636v1zm59.256-.18 11.04 13.32.77-.64-11.04-13.32-.77.64zm10.93 12.913-6 34.08.99.174 6-34.08-.99-.174zm-5.83 33.786-15.72 13.32.65.763 15.72-13.32-.65-.763zm-15.4 13.201h-36.96v1h36.96v-1zm-37.45.413-4.92 27.72.99.174 4.92-27.72-.99-.174zm-4.43 27.307h-22.676v1h22.676v-1zm7.92-43.76h24.12v-1h-24.12v1zm24.45-.12 4.92-4.2-.65-.76-4.92 4.2.65.76zm5.09-4.493 3.24-18.24-.99-.174-3.24 18.24.99.174zm3.13-18.646-3.48-4.2-.77.638 3.48 4.2.77-.638zm-3.87-4.381h-24.12v1h24.12v-1zm-24.61.413-4.68 26.64.99.173 4.68-26.64-.99-.172z" fill="#fff"/><g filter="url(#a)"><path d="m13.542 125-.985-.174L12.35 126h1.192v-1zm15.6-88.44v-1h-.839l-.146.826.985.174zm58.2 0 .772-.636-.3-.364h-.472v1zm15.12 18.36.985.174.08-.454-.293-.356-.772.636zm-9.12 51.72.648.762.274-.233.063-.355-.985-.174zM71.742 125v1h.368l.28-.238-.648-.762zm-32.52-17.04-.985-.174-.207 1.174h1.192v-1zm25.56 0v1h.365l.279-.235-.644-.765zm7.56-6.36.644.765.278-.234.063-.358-.985-.173zm7.32-41.64.985.173.08-.456-.296-.356-.769.639zm-5.28-6.36.77-.639-.3-.361h-.47v1zm-25.56 0v-1h-.839l-.146.826.985.174zm-34.295 71.574 15.6-88.44-1.97-.348-15.6 88.44 1.97.348zM29.142 37.56h58.2v-2h-58.2v2zm57.428-.364 15.12 18.36 1.544-1.272-15.12-18.36-1.544 1.272zm14.907 17.55-9.12 51.72 1.97.348 9.12-51.72-1.97-.348zm-8.783 51.132-21.6 18.36 1.296 1.524 21.6-18.36-1.296-1.524zM71.742 124h-58.2v2h58.2v-2zm-32.52-15.04h25.56v-2h-25.56v2zm26.204-.235 7.56-6.36-1.288-1.53-7.56 6.36 1.288 1.53zm7.9-6.952 7.32-41.64-1.969-.346-7.32 41.64 1.97.346zm7.105-42.452-5.28-6.36-1.538 1.278 5.28 6.36 1.538-1.278zM74.382 52.6h-25.56v2h25.56v-2zm-26.545.826-9.6 54.36 1.97.348 9.6-54.36-1.97-.348zM98.64 125l-.985-.173-.206 1.173h1.19v-1zm11.04-62.76v-1h-.84l-.145.827.985.173zm22.68 0 .986.168.199-1.168h-1.185v1zm-1.68 9.84-.986-.168-.437 2.559 2.041-1.605-.618-.786zm12.36-9.72v-1h-.346l-.272.214.618.786zm12.48 0 .985.171.204-1.171h-1.189v1zm-3.48 20.04v1h.841l.144-.829-.985-.171zm-18.24 0v-1h-.341l-.27.208.611.792zm-5.76 4.44-.611-.792-.307.237-.067.382.985.173zm-6.72 38.16v1h.839l.146-.827-.985-.173zm-21.695.173 11.04-62.76-1.97-.346-11.04 62.76 1.97.346zm10.055-61.933h22.68v-2h-22.68v2zm21.694-1.168-1.68 9.84 1.972.336 1.68-9.84-1.972-.336zm-.076 10.794 12.36-9.72-1.236-1.572-12.36 9.72 1.236 1.572zm11.742-9.506h12.48v-2h-12.48v2zm11.495-1.171-3.48 20.04 1.97.342 3.48-20.04-1.97-.342zM152.039 81.4h-18.24v2h18.24v-2zm-18.851.208-5.76 4.44 1.221 1.584 5.76-4.44-1.221-1.584zm-6.134 5.059-6.72 38.16 1.97.346 6.72-38.16-1.97-.346zM121.319 124h-22.68v2h22.68v-2zm40.335-68.72-.985-.176-.209 1.176h1.194v-1zm3-16.8v-1h-.837l-.148.824.985.176zm22.92 0 .984.176.21-1.176h-1.194v1zm-3 16.8v1h.837l.147-.824-.984-.176zM149.534 125l-.985-.173-.206 1.173h1.191v-1zm11.04-62.76v-1h-.84l-.145.827.985.173zm22.68 0 .985.173.206-1.173h-1.191v1zM172.214 125v1h.839l.146-.827-.985-.173zm-9.576-69.544 3-16.8-1.969-.352-3 16.8 1.969.352zm2.016-15.976h22.92v-2h-22.92v2zm21.935-1.176-3 16.8 1.969.352 3-16.8-1.969-.352zm-2.015 15.976h-22.92v2h22.92v-2zm-34.055 70.893 11.04-62.76-1.97-.346-11.04 62.76 1.97.346zm10.055-61.933h22.68v-2h-22.68v2zm21.695-1.173-11.04 62.76 1.97.346 11.04-62.76-1.97-.346zM172.214 124h-22.68v2h22.68v-2zm26.326 1-.985.175.147.825h.838v-1zm-11.16-62.64v-1h-1.194l.209 1.175.985-.175zm24.84 0 .998-.066-.062-.934h-.936v1zm3 45.72-.998.065.061.935h.937v-1zm4.32 0v1h.706l.236-.666-.942-.334zm16.2-45.72v-1h-.707l-.236.666.943.334zm27.72 0 .883.469.78-1.469h-1.663v1zM230.22 125v1h.601l.282-.531-.883-.469zm-30.696-.175-11.16-62.64-1.969.35 11.16 62.64 1.969-.35zM187.38 63.36h24.84v-2h-24.84v2zm23.842-.934 3 45.719 1.996-.13-3-45.72-1.996.13zm3.998 46.654h4.32v-2h-4.32v2zm5.262-.666 16.2-45.72-1.885-.668-16.2 45.72 1.885.668zM235.74 63.36h27.72v-2h-27.72v2zm26.837-1.469-33.24 62.64 1.766.938 33.24-62.64-1.766-.938zM230.22 124h-31.68v2h31.68v-2zm36.951 1-.773.634.3.366h.473v-1zm-10.92-13.32-.985-.171-.078.451.29.354.773-.634zm6.24-36-.646-.763-.277.235-.062.357.985.171zm15.72-13.32v-1h-.366l-.28.237.646.763zm35.76 0 .774-.634-.3-.366h-.474v1zm10.92 13.32.986.17.077-.45-.289-.354-.774.634zm-4.08 23.76v1h.843l.143-.83-.986-.17zm-39.72 0v-1h-.823l-.158.808.981.192zm-1.08 5.52-.981-.192-.093.475.315.368.759-.651zm3.6 4.2-.759.651.299.349h.46v-1zm34.44 0 .986.172.204-1.172h-1.19v1zm-2.76 15.84v1h.841l.145-.828-.986-.172zm-31.92-38.52-.984-.175-.209 1.175h1.193v-1zm19.08 0v1h.839l.146-.825-.985-.175zm1.32-7.44.985.175.083-.466-.308-.36-.76.651zm-3.6-4.2.76-.65-.3-.35h-.46v1zm-10.44 0v-1h-.362l-.278.232.64.768zm-5.04 4.2-.64-.768-.28.234-.064.36.984.174zm-16.746 45.326-10.92-13.32-1.547 1.268 10.92 13.32 1.547-1.268zm-10.708-12.515 6.24-36-1.971-.342-6.24 36 1.971.342zm5.901-35.408 15.72-13.32-1.293-1.526-15.72 13.32 1.293 1.526zm15.073-13.083h35.76v-2h-35.76v2zm34.987-.366 10.92 13.32 1.547-1.268-10.92-13.32-1.547 1.268zm10.708 12.517-4.08 23.76 1.971.338 4.08-23.76-1.971-.338zm-3.095 22.929h-39.72v2h39.72v-2zm-40.701.808-1.08 5.52 1.963.384 1.08-5.52-1.963-.384zm-.858 6.363 3.6 4.2 1.519-1.302-3.6-4.2-1.519 1.302zm4.359 4.549h34.44v-2h-34.44v2zm33.455-1.172-2.76 15.84 1.971.344 2.76-15.84-1.971-.344zM315.291 124h-48.12v2h48.12v-2zm-31.92-36.52h19.08v-2h-19.08v2zm20.065-.825 1.32-7.44-1.969-.35-1.32 7.44 1.969.35zm1.095-8.266-3.6-4.2-1.519 1.302 3.6 4.2 1.519-1.302zm-4.36-4.549h-10.44v2h10.44v-2zm-11.08.232-5.04 4.2 1.281 1.536 5.04-4.2-1.281-1.536zm-5.384 4.793-1.32 7.44 1.969.35 1.32-7.44-1.969-.35zM350.714 125l-.985-.172-.205 1.172h1.19v-1zm3.6-20.64-.592-.806-.324.238-.069.396.985.172zm54.12-39.72.592.806.323-.237.07-.394-.985-.175zm1.32-7.44.985.175.079-.446-.283-.354-.781.625zm-2.88-3.6.781-.625-.3-.375h-.481v1zm-15.84 0v-1h-.37l-.281.24.651.76zm-4.2 3.6-.651-.76-.269.232-.064.35.984.178zm-1.68 9.24v1h.834l.15-.821-.984-.179zm-22.68 0-.984-.176-.211 1.176h1.195v-1zm3.24-18.12-.626-.78-.293.235-.066.369.985.176zm14.64-11.76v-1h-.352l-.274.22.626.78zm43.08 0 .744-.668-.298-.332h-.446v1zm10.56 11.76.985.174.084-.48-.325-.362-.744.668zm-4.2 23.76.585.811.329-.237.071-.4-.985-.174zm-48.6 35.04-.585-.811-2.512 1.811h3.097v-1zm43.08 0 .985.172.205-1.172h-1.19v1zm-3.12 17.88v1h.841l.144-.828-.985-.172zm-69.455.172 3.6-20.64-1.97-.344-3.6 20.64 1.97.344zm3.207-20.006 54.12-39.72-1.184-1.612-54.12 39.72 1.184 1.612zm54.513-40.351 1.32-7.44-1.97-.35-1.32 7.44 1.97.35zm1.116-8.24-2.88-3.6-1.562 1.25 2.88 3.6 1.562-1.25zm-3.661-3.975h-15.84v2h15.84v-2zm-16.491.24-4.2 3.6 1.302 1.52 4.2-3.6-1.302-1.52zm-4.533 4.181-1.68 9.24 1.968.358 1.68-9.24-1.968-.358zm-.696 8.419h-22.68v2h22.68v-2zm-21.696 1.176 3.24-18.12-1.969-.352-3.239 18.12 1.968.352zM366.34 49.1l14.64-11.76-1.252-1.56-14.64 11.76 1.252 1.56zm14.014-11.54h43.08v-2h-43.08v2zm42.336-.332 10.56 11.76 1.488-1.336-10.56-11.76-1.488 1.336zm10.319 10.918-4.2 23.76 1.97.348 4.2-23.76-1.97-.348zm-3.8 23.123-48.6 35.04 1.17 1.622 48.6-35.04-1.17-1.622zm-48.015 36.851h43.08v-2h-43.08v2zm42.095-1.172-3.12 17.88 1.97.344 3.12-17.88-1.97-.344zM421.154 124h-70.44v2h70.44v-2zm36.205 1-.985-.174-.207 1.174h1.192v-1zm15.6-88.44v-1h-.839l-.146.826.985.174zm67.68 0 .985.175.209-1.175h-1.194v1zm-3.24 18.24v1h.838l.147-.825-.985-.175zm-45 0v-1h-.839l-.146.826.985.174zm-2.88 16.32-.985-.174-.207 1.174h1.192v-1zm40.56 0 .986.168.199-1.168h-1.185v1zm-2.88 16.92v1h.844l.142-.832-.986-.168zm-40.68 0v-1h-.842l-.143.83.985.17zm-3.24 18.72-.985-.171-.203 1.171h1.188v-1zm45 0 .985.175.209-1.175h-1.194v1zm-3.24 18.24v1h.838l.147-.825-.985-.175zm-66.695.174 15.6-88.44-1.97-.348-15.6 88.44 1.97.348zm14.615-87.614h67.68v-2h-67.68v2zm66.696-1.175-3.24 18.24 1.969.35 3.24-18.24-1.969-.35zM537.399 53.8h-45v2h45v-2zm-45.985.826-2.88 16.32 1.97.348 2.88-16.32-1.97-.348zm-1.895 17.494h40.56v-2h-40.56v2zm39.574-1.168-2.88 16.92 1.972.336 2.88-16.92-1.972-.336zm-1.894 16.088h-40.68v2h40.68v-2zm-41.665.83-3.24 18.719 1.971.342 3.24-18.72-1.971-.341zm-2.255 19.89h45v-2h-45v2zm44.016-1.175-3.24 18.24 1.969.35 3.24-18.24-1.969-.35zM525.039 124h-67.68v2h67.68v-2zm1.283 1-.904-.429-.678 1.429h1.582v-1zm42-88.44v-1h-.632l-.272.571.904.429zm36.6 0 .993-.113-.101-.887h-.892v1zm10.08 88.44v1h1.12l-.127-1.113-.993.113zm-22.8 0-.998.075.07.925h.928v-1zm-1.32-17.64.997-.075-.069-.925h-.928v1zm-31.56 0v-1h-.664l-.258.611.922.389zm-7.44 17.64v1h.663l.258-.611-.921-.389zm14.52-34.92-.918-.397-.605 1.397h1.523v-1zm23.04 0v1h1.081l-.084-1.078-.997.078zm-2.88-36.6.997-.078-.073-.922h-.924v1zm-4.32 0v-1h-.657l-.261.603.918.397zm-55.017 71.949 42-88.44-1.807-.858-42 88.44 1.807.858zm41.097-87.869h36.6v-2h-36.6v2zm35.606-.887 10.08 88.44 1.987-.226-10.08-88.44-1.987.226zM615.002 124h-22.8v2h22.8v-2zm-21.803.925-1.32-17.64-1.995.15 1.32 17.64 1.995-.15zm-2.317-18.565h-31.56v2h31.56v-2zm-32.482.611-7.44 17.64 1.843.778 7.44-17.64-1.843-.778zM551.882 124h-25.56v2h25.56v-2zm14.52-32.92h23.04v-2h-23.04v2zm24.037-1.078-2.88-36.6-1.994.156 2.88 36.6 1.994-.156zm-3.877-37.522h-4.32v2h4.32v-2zm-5.238.603-15.84 36.6 1.835.794 15.84-36.6-1.835-.794zM620.081 125l-.985-.174-.207 1.174h1.192v-1zm15.6-88.44v-1h-.839l-.146.826.985.174zm60.72 0 .767-.642-.3-.358h-.467v1zm11.16 13.32.985.175.081-.46-.299-.357-.767.642zm-5.64 31.68.646.763.275-.233.064-.355-.985-.175zm-12.48 10.56-.646-.763-.465.393.136.594.975-.224zm7.56 32.88v1h1.256l-.281-1.224-.975.224zm-21.48 0-.978.207.167.793h.811v-1zm-6.36-30.12.979-.207-.168-.793h-.811v1zm-21.12 0v-1h-.84l-.145.827.985.173zm-5.28 30.12v1h.84l.145-.827-.985-.173zm8.28-47.16-.984-.175-.21 1.175h1.194v-1zm25.2 0v1h.362l.278-.232-.64-.768zm5.04-4.2.64.768.282-.235.063-.361-.985-.172zm2.76-15.84.985.172.079-.455-.294-.355-.77.638zm-3.48-4.2.77-.638-.3-.362h-.47v1zm-25.2 0v-1h-.837l-.147.825.984.175zm-34.295 71.574 15.6-88.44-1.97-.348-15.6 88.44 1.97.348zm14.615-87.614h60.72v-2h-60.72v2zm59.954-.358 11.16 13.32 1.533-1.284-11.16-13.32-1.533 1.284zm10.942 12.503-5.64 31.68 1.969.35 5.64-31.68-1.969-.35zm-5.302 31.092-12.48 10.56 1.292 1.526 12.48-10.56-1.292-1.526zm-12.809 11.547 7.56 32.88 1.95-.448-7.56-32.88-1.95.448zM697.001 124h-21.48v2h21.48v-2zm-20.501.793-6.36-30.12-1.957.414 6.36 30.12 1.957-.414zm-7.339-30.913h-21.12v2h21.12v-2zm-22.105.827-5.28 30.12 1.97.346 5.28-30.12-1.97-.346zM642.761 124h-22.68v2h22.68v-2zm8.28-45.16h25.2v-2h-25.2v2zm25.84-.232 5.04-4.2-1.28-1.536-5.04 4.2 1.28 1.536zm5.385-4.796 2.76-15.84-1.97-.344-2.76 15.84 1.97.344zm2.545-16.65-3.48-4.2-1.54 1.276 3.48 4.2 1.54-1.276zm-4.25-4.562h-25.2v2h25.2v-2zm-26.184.825-4.32 24.24 1.969.35 4.32-24.24-1.969-.35zM705.544 125l-.985-.174-.207 1.174h1.192v-1zm15.6-88.44v-1h-.839l-.146.826.985.174zm23.28 0 .933-.36-.247-.64h-.686v1zM765.784 92l-.934.36 1.291 3.349.627-3.534-.984-.175zm9.84-55.44v-1h-.839l-.146.825.985.175zm21.12 0 .984.174.207-1.174h-1.191v1zm-15.6 88.44v1h.839l.145-.826-.984-.174zm-21.12 0-.934.359.247.641h.687v-1zm-19.92-51.84.933-.359-.246-.641h-.687v1zm-4.32 0v-1h-.84l-.145.827.985.173zm-9.12 51.84v1h.839l.145-.827-.984-.173zm-20.136.174 15.6-88.44-1.969-.348-15.6 88.44 1.969.348zm14.616-87.614h23.28v-2h-23.28v2zm22.346-.64 21.36 55.44 1.867-.72-21.36-55.44-1.867.72zm23.278 55.255 9.84-55.44-1.969-.35-9.84 55.44 1.969.35zm8.856-54.615h21.12v-2h-21.12v2zm20.135-1.174-15.6 88.44 1.969.348 15.6-88.44-1.969-.348zM781.144 124h-21.12v2h21.12v-2zm-20.187.641-19.92-51.84-1.867.718 19.92 51.84 1.867-.718zM740.104 72.16h-4.32v2h4.32v-2zm-5.305.827-9.12 51.84 1.969.346 9.12-51.84-1.969-.346zM726.664 124h-21.12v2h21.12v-2zm84.086 1-.903-.429-.679 1.429h1.582v-1zm42-88.44v-1h-.632l-.271.571.903.429zm36.6 0 .993-.113-.101-.887h-.892v1zM899.43 125v1h1.12l-.127-1.113-.993.113zm-22.8 0-.997.075.069.925h.928v-1zm-1.32-17.64.997-.075-.069-.925h-.928v1zm-31.56 0v-1h-.664l-.258.611.922.389zM836.31 125v1h.663l.258-.611-.921-.389zm14.52-34.92-.918-.397-.605 1.397h1.523v-1zm23.04 0v1h1.082l-.085-1.078-.997.078zm-2.88-36.6.997-.078-.073-.922h-.924v1zm-4.32 0v-1h-.657l-.261.603.918.397zm-55.017 71.949 42-88.44-1.806-.858-42 88.44 1.806.858zM852.75 37.56h36.6v-2h-36.6v2zm35.606-.887 10.08 88.44 1.987-.226-10.08-88.44-1.987.226zM899.43 124h-22.8v2h22.8v-2zm-21.803.925-1.32-17.64-1.994.15 1.32 17.64 1.994-.15zm-2.317-18.565h-31.56v2h31.56v-2zm-32.482.611-7.44 17.64 1.843.778 7.44-17.64-1.843-.778zM836.31 124h-25.56v2h25.56v-2zm14.52-32.92h23.04v-2h-23.04v2zm24.037-1.078-2.88-36.6-1.994.156 2.88 36.6 1.994-.156zM870.99 52.48h-4.32v2h4.32v-2zm-5.238.603-15.84 36.6 1.836.794 15.84-36.6-1.836-.794zM904.509 125l-.985-.174-.207 1.174h1.192v-1zm15.6-88.44v-1h-.839l-.146.826.985.174zm59.64 0 .77-.638-.3-.362h-.47v1zm11.04 13.32.985.173.08-.455-.295-.356-.77.638zm-6 34.08.647.763.275-.234.063-.356-.985-.173zm-15.72 13.32v1h.367l.28-.237-.647-.763zm-36.96 0v-1h-.838l-.146.825.984.175zm-4.92 27.72v1h.838l.147-.825-.985-.175zm7.92-44.76-.985-.173-.206 1.173h1.191v-1zm24.12 0v1h.369l.28-.24-.649-.76zm4.92-4.2.649.76.273-.232.063-.353-.985-.175zm3.24-18.24.985.175.081-.456-.296-.357-.77.638zm-3.48-4.2.77-.638-.3-.362h-.47v1zm-24.12 0v-1h-.839l-.146.827.985.173zm-34.295 71.574 15.6-88.44-1.97-.348-15.6 88.44 1.97.348zm14.615-87.614h59.64v-2h-59.64v2zm58.87-.362 11.04 13.32 1.54-1.276-11.04-13.32-1.54 1.276zm10.825 12.509-6 34.08 1.97.346 6-34.08-1.97-.346zm-5.661 33.49-15.72 13.32 1.293 1.526 15.72-13.32-1.293-1.526zM969.069 96.28h-36.96v2h36.96v-2zm-37.944.825-4.92 27.72 1.969.35 4.92-27.72-1.969-.35zM927.189 124h-22.68v2h22.68v-2zm7.92-42.76h24.12v-2h-24.12v2zm24.769-.24 4.92-4.2-1.298-1.52-4.92 4.2 1.298 1.52zm5.256-4.785 3.24-18.24-1.969-.35-3.24 18.24 1.969.35zm3.025-19.053-3.48-4.2-1.54 1.276 3.48 4.2 1.54-1.276zm-4.25-4.562h-24.12v2h24.12v-2zm-25.105.827-4.68 26.64 1.97.346 4.68-26.64-1.97-.346zM983.644 125l-.985-.174-.207 1.174h1.192v-1zm15.6-88.44v-1h-.839l-.146.826.985.174zm59.636 0 .77-.638-.3-.362h-.47v1zm11.04 13.32.99.173.08-.455-.3-.356-.77.638zm-6 34.08.65.763.28-.234.06-.356-.99-.173zm-15.72 13.32v1h.37l.28-.237-.65-.763zm-36.96 0v-1h-.83l-.15.825.98.175zm-4.92 27.72v1h.84l.15-.825-.99-.175zm7.92-44.76-.98-.173-.21 1.173h1.19v-1zm24.12 0v1h.37l.28-.24-.65-.76zm4.92-4.2.65.76.28-.232.06-.353-.99-.175zm3.24-18.24.99.175.08-.456-.3-.357-.77.638zm-3.48-4.2.77-.638-.3-.362h-.47v1zm-24.12 0v-1h-.84l-.14.827.98.173zm-34.292 71.574 15.602-88.44-1.971-.348-15.6 88.44 1.969.348zm14.616-87.614h59.636v-2h-59.636v2zm58.866-.362 11.04 13.32 1.54-1.276-11.04-13.32-1.54 1.276zm10.83 12.509-6 34.08 1.97.346 6-34.08-1.97-.346zm-5.66 33.49-15.72 13.32 1.29 1.526 15.72-13.32-1.29-1.526zM1048.2 96.28h-36.96v2h36.96v-2zm-37.94.825-4.92 27.72 1.97.35 4.92-27.72-1.97-.35zM1006.32 124h-22.676v2h22.676v-2zm7.92-42.76h24.12v-2h-24.12v2zm24.77-.24 4.92-4.2-1.3-1.52-4.92 4.2 1.3 1.52zm5.26-4.785 3.24-18.24-1.97-.35-3.24 18.24 1.97.35zm3.02-19.053-3.48-4.2-1.54 1.276 3.48 4.2 1.54-1.276zm-4.25-4.562h-24.12v2h24.12v-2zm-25.1.827-4.68 26.64 1.97.346 4.68-26.64-1.97-.346z" fill="#11D9EB"/></g><g opacity=".4" filter="url(#b)"><path d="m11.542 123 15.6-88.44h58.2l15.12 18.36-9.12 51.72-21.6 18.36h-58.2zm25.68-17.04h25.56l7.56-6.36 7.32-41.64-5.28-6.36h-25.56l-9.6 54.36zM96.639 123l11.04-62.76h22.68l-1.68 9.84 12.36-9.72h12.48l-3.48 20.04h-18.24l-5.76 4.44-6.72 38.16h-22.68zm63.015-69.72 3-16.8h22.92l-3 16.8h-22.92zM147.534 123l11.04-62.76h22.68L170.214 123h-22.68zm49.006 0-11.16-62.64h24.84l3 45.72h4.32l16.2-45.72h27.72L228.22 123h-31.68zm68.631 0-10.92-13.32 6.24-36 15.72-13.32h35.76l10.92 13.32-4.08 23.76h-39.72l-1.08 5.52 3.6 4.2h34.44l-2.76 15.84h-48.12zm16.2-38.52h19.08l1.32-7.44-3.6-4.2h-10.44l-5.04 4.2-1.32 7.44zM348.714 123l3.6-20.64 54.12-39.72 1.32-7.44-2.88-3.6h-15.84l-4.2 3.6-1.68 9.24h-22.68l3.24-18.12 14.64-11.76h43.08l10.56 11.76-4.2 23.76-48.6 35.04h43.08l-3.12 17.88h-70.44zm106.645 0 15.6-88.44h67.68l-3.24 18.24h-45l-2.88 16.32h40.56l-2.88 16.92h-40.68l-3.24 18.72h45l-3.24 18.24h-67.68zm68.963 0 42-88.44h36.6l10.08 88.44h-22.8l-1.32-17.64h-31.56l-7.44 17.64h-25.56zm40.08-34.92h23.04l-2.88-36.6h-4.32l-15.84 36.6zM618.081 123l15.6-88.44h60.72l11.16 13.32-5.64 31.68-12.48 10.56 7.56 32.88h-21.48l-6.36-30.12h-21.12l-5.28 30.12h-22.68zm30.96-47.16h25.2l5.04-4.2 2.76-15.84-3.48-4.2h-25.2l-4.32 24.24zM703.544 123l15.6-88.44h23.28L763.784 90l9.84-55.44h21.12l-15.6 88.44h-21.12l-19.92-51.84h-4.32l-9.12 51.84h-21.12zm105.206 0 42-88.44h36.6L897.43 123h-22.8l-1.32-17.64h-31.56L834.31 123h-25.56zm40.08-34.92h23.04l-2.88-36.6h-4.32l-15.84 36.6zM902.509 123l15.6-88.44h59.64l11.04 13.32-6 34.08-15.72 13.32h-36.96l-4.92 27.72h-22.68zm30.6-44.76h24.12l4.92-4.2 3.24-18.24-3.48-4.2h-24.12l-4.68 26.64zM981.644 123l15.6-88.44h59.636l11.04 13.32-6 34.08-15.72 13.32h-36.96l-4.92 27.72h-22.676zm30.596-44.76h24.12l4.92-4.2 3.24-18.24-3.48-4.2h-24.12l-4.68 26.64z" fill="url(#c)"/><path d="m11.542 123-.985-.174L10.35 124h1.192v-1zm15.6-88.44v-1h-.839l-.146.826.985.174zm58.2 0 .772-.636-.3-.364h-.472v1zm15.12 18.36.985.174.08-.454-.293-.356-.772.636zm-9.12 51.72.648.762.274-.233.063-.355-.985-.174zM69.742 123v1h.368l.28-.238-.648-.762zm-32.52-17.04-.985-.174-.207 1.174h1.192v-1zm25.56 0v1h.365l.279-.235-.644-.765zm7.56-6.36.644.765.278-.234.063-.358-.985-.173zm7.32-41.64.985.173.08-.456-.296-.356-.769.639zm-5.28-6.36.77-.639-.3-.361h-.47v1zm-25.56 0v-1h-.839l-.146.826.985.174zm-34.295 71.574 15.6-88.44-1.97-.348-15.6 88.44 1.97.348zM27.142 35.56h58.2v-2h-58.2v2zm57.428-.364 15.12 18.36 1.544-1.272-15.12-18.36-1.544 1.272zm14.907 17.55-9.12 51.72 1.97.348 9.12-51.72-1.97-.348zm-8.783 51.132-21.6 18.36 1.296 1.524 21.6-18.36-1.296-1.524zM69.742 122h-58.2v2h58.2v-2zm-32.52-15.04h25.56v-2h-25.56v2zm26.204-.235 7.56-6.36-1.288-1.53-7.56 6.36 1.288 1.53zm7.9-6.952 7.32-41.64-1.969-.346-7.32 41.64 1.97.346zm7.105-42.452-5.28-6.36-1.538 1.278 5.28 6.36 1.538-1.278zM72.382 50.6h-25.56v2h25.56v-2zm-26.545.826-9.6 54.36 1.97.348 9.6-54.36-1.97-.348zM96.64 123l-.985-.173-.206 1.173h1.19v-1zm11.04-62.76v-1h-.84l-.145.827.985.173zm22.68 0 .986.168.199-1.168h-1.185v1zm-1.68 9.84-.986-.168-.437 2.559 2.041-1.605-.618-.786zm12.36-9.72v-1h-.346l-.272.214.618.786zm12.48 0 .985.171.204-1.171h-1.189v1zm-3.48 20.04v1h.841l.144-.829-.985-.171zm-18.24 0v-1h-.341l-.27.208.611.792zm-5.76 4.44-.611-.792-.307.237-.067.382.985.173zm-6.72 38.16v1h.839l.146-.827-.985-.173zm-21.695.173 11.04-62.76-1.97-.346-11.04 62.76 1.97.346zm10.055-61.933h22.68v-2h-22.68v2zm21.694-1.168-1.68 9.84 1.972.336 1.68-9.84-1.972-.336zm-.076 10.794 12.36-9.72-1.236-1.572-12.36 9.72 1.236 1.572zm11.742-9.506h12.48v-2h-12.48v2zm11.495-1.171-3.48 20.04 1.97.342 3.48-20.04-1.97-.342zM150.039 79.4h-18.24v2h18.24v-2zm-18.851.208-5.76 4.44 1.221 1.584 5.76-4.44-1.221-1.584zm-6.134 5.059-6.72 38.16 1.97.346 6.72-38.16-1.97-.346zM119.319 122h-22.68v2h22.68v-2zm40.335-68.72-.985-.176-.209 1.176h1.194v-1zm3-16.8v-1h-.837l-.148.824.985.176zm22.92 0 .984.176.21-1.176h-1.194v1zm-3 16.8v1h.837l.147-.824-.984-.176zM147.534 123l-.985-.173-.206 1.173h1.191v-1zm11.04-62.76v-1h-.84l-.145.827.985.173zm22.68 0 .985.173.206-1.173h-1.191v1zM170.214 123v1h.839l.146-.827-.985-.173zm-9.576-69.544 3-16.8-1.969-.352-3 16.8 1.969.352zm2.016-15.976h22.92v-2h-22.92v2zm21.935-1.176-3 16.8 1.969.352 3-16.8-1.969-.352zm-2.015 15.976h-22.92v2h22.92v-2zm-34.055 70.893 11.04-62.76-1.97-.346-11.04 62.76 1.97.346zm10.055-61.933h22.68v-2h-22.68v2zm21.695-1.173-11.04 62.76 1.97.346 11.04-62.76-1.97-.346zM170.214 122h-22.68v2h22.68v-2zm26.326 1-.985.175.147.825h.838v-1zm-11.16-62.64v-1h-1.194l.209 1.175.985-.175zm24.84 0 .998-.066-.062-.934h-.936v1zm3 45.72-.998.065.061.935h.937v-1zm4.32 0v1h.706l.236-.666-.942-.334zm16.2-45.72v-1h-.707l-.236.666.943.334zm27.72 0 .883.469.78-1.469h-1.663v1zM228.22 123v1h.601l.282-.531-.883-.469zm-30.696-.175-11.16-62.64-1.969.35 11.16 62.64 1.969-.35zM185.38 61.36h24.84v-2h-24.84v2zm23.842-.934 3 45.719 1.996-.13-3-45.72-1.996.13zm3.998 46.654h4.32v-2h-4.32v2zm5.262-.666 16.2-45.72-1.885-.668-16.2 45.72 1.885.668zM233.74 61.36h27.72v-2h-27.72v2zm26.837-1.469-33.24 62.64 1.766.938 33.24-62.64-1.766-.938zM228.22 122h-31.68v2h31.68v-2zm36.951 1-.773.634.3.366h.473v-1zm-10.92-13.32-.985-.171-.078.451.29.354.773-.634zm6.24-36-.646-.763-.277.235-.062.357.985.171zm15.72-13.32v-1h-.366l-.28.237.646.763zm35.76 0 .774-.634-.3-.366h-.474v1zm10.92 13.32.986.17.077-.45-.289-.354-.774.634zm-4.08 23.76v1h.843l.143-.83-.986-.17zm-39.72 0v-1h-.823l-.158.808.981.192zm-1.08 5.52-.981-.192-.093.475.315.368.759-.651zm3.6 4.2-.759.651.299.349h.46v-1zm34.44 0 .986.172.204-1.172h-1.19v1zm-2.76 15.84v1h.841l.145-.828-.986-.172zm-31.92-38.52-.984-.175-.209 1.175h1.193v-1zm19.08 0v1h.839l.146-.825-.985-.175zm1.32-7.44.985.175.083-.466-.308-.36-.76.651zm-3.6-4.2.76-.65-.3-.35h-.46v1zm-10.44 0v-1h-.362l-.278.232.64.768zm-5.04 4.2-.64-.768-.28.234-.064.36.984.174zm-16.746 45.326-10.92-13.32-1.547 1.268 10.92 13.32 1.547-1.268zm-10.708-12.515 6.24-36-1.971-.342-6.24 36 1.971.342zm5.901-35.408 15.72-13.32-1.293-1.526-15.72 13.32 1.293 1.526zm15.073-13.083h35.76v-2h-35.76v2zm34.987-.366 10.92 13.32 1.547-1.268-10.92-13.32-1.547 1.268zm10.708 12.517-4.08 23.76 1.971.338 4.08-23.76-1.971-.338zm-3.095 22.929h-39.72v2h39.72v-2zm-40.701.808-1.08 5.52 1.963.384 1.08-5.52-1.963-.384zm-.858 6.363 3.6 4.2 1.519-1.302-3.6-4.2-1.519 1.302zm4.359 4.549h34.44v-2h-34.44v2zm33.455-1.172-2.76 15.84 1.971.344 2.76-15.84-1.971-.344zM313.291 122h-48.12v2h48.12v-2zm-31.92-36.52h19.08v-2h-19.08v2zm20.065-.825 1.32-7.44-1.969-.35-1.32 7.44 1.969.35zm1.095-8.266-3.6-4.2-1.519 1.302 3.6 4.2 1.519-1.302zm-4.36-4.549h-10.44v2h10.44v-2zm-11.08.232-5.04 4.2 1.281 1.536 5.04-4.2-1.281-1.536zm-5.384 4.793-1.32 7.44 1.969.35 1.32-7.44-1.969-.35zM348.714 123l-.985-.172-.205 1.172h1.19v-1zm3.6-20.64-.592-.806-.324.238-.069.396.985.172zm54.12-39.72.592.806.323-.237.07-.394-.985-.175zm1.32-7.44.985.175.079-.446-.283-.354-.781.625zm-2.88-3.6.781-.625-.3-.375h-.481v1zm-15.84 0v-1h-.37l-.281.24.651.76zm-4.2 3.6-.651-.76-.269.232-.064.35.984.178zm-1.68 9.24v1h.834l.15-.821-.984-.179zm-22.68 0-.984-.176-.211 1.176h1.195v-1zm3.24-18.12-.626-.78-.293.235-.066.369.985.176zm14.64-11.76v-1h-.352l-.274.22.626.78zm43.08 0 .744-.668-.298-.332h-.446v1zm10.56 11.76.985.174.084-.48-.325-.362-.744.668zm-4.2 23.76.585.811.329-.237.071-.4-.985-.174zm-48.6 35.04-.585-.811-2.512 1.811h3.097v-1zm43.08 0 .985.172.205-1.172h-1.19v1zm-3.12 17.88v1h.841l.144-.828-.985-.172zm-69.455.172 3.6-20.64-1.97-.344-3.6 20.64 1.97.344zm3.207-20.006 54.12-39.72-1.184-1.612-54.12 39.72 1.184 1.612zm54.513-40.351 1.32-7.44-1.97-.35-1.32 7.44 1.97.35zm1.116-8.24-2.88-3.6-1.562 1.25 2.88 3.6 1.562-1.25zm-3.661-3.975h-15.84v2h15.84v-2zm-16.491.24-4.2 3.6 1.302 1.52 4.2-3.6-1.302-1.52zm-4.533 4.181-1.68 9.24 1.968.358 1.68-9.24-1.968-.358zm-.696 8.419h-22.68v2h22.68v-2zm-21.696 1.176 3.24-18.12-1.969-.352-3.239 18.12 1.968.352zM364.34 47.1l14.64-11.76-1.252-1.56-14.64 11.76 1.252 1.56zm14.014-11.54h43.08v-2h-43.08v2zm42.336-.332 10.56 11.76 1.488-1.336-10.56-11.76-1.488 1.336zm10.319 10.918-4.2 23.76 1.97.348 4.2-23.76-1.97-.348zm-3.8 23.123-48.6 35.04 1.17 1.622 48.6-35.04-1.17-1.622zm-48.015 36.851h43.08v-2h-43.08v2zm42.095-1.172-3.12 17.88 1.97.344 3.12-17.88-1.97-.344zM419.154 122h-70.44v2h70.44v-2zm36.205 1-.985-.174-.207 1.174h1.192v-1zm15.6-88.44v-1h-.839l-.146.826.985.174zm67.68 0 .985.175.209-1.175h-1.194v1zm-3.24 18.24v1h.838l.147-.825-.985-.175zm-45 0v-1h-.839l-.146.826.985.174zm-2.88 16.32-.985-.174-.207 1.174h1.192v-1zm40.56 0 .986.168.199-1.168h-1.185v1zm-2.88 16.92v1h.844l.142-.832-.986-.168zm-40.68 0v-1h-.842l-.143.83.985.17zm-3.24 18.72-.985-.171-.203 1.171h1.188v-1zm45 0 .985.175.209-1.175h-1.194v1zm-3.24 18.24v1h.838l.147-.825-.985-.175zm-66.695.174 15.6-88.44-1.97-.348-15.6 88.44 1.97.348zm14.615-87.614h67.68v-2h-67.68v2zm66.696-1.175-3.24 18.24 1.969.35 3.24-18.24-1.969-.35zM535.399 51.8h-45v2h45v-2zm-45.985.826-2.88 16.32 1.97.348 2.88-16.32-1.97-.348zm-1.895 17.494h40.56v-2h-40.56v2zm39.574-1.168-2.88 16.92 1.972.336 2.88-16.92-1.972-.336zm-1.894 16.088h-40.68v2h40.68v-2zm-41.665.83-3.24 18.719 1.971.342 3.24-18.72-1.971-.341zm-2.255 19.89h45v-2h-45v2zm44.016-1.175-3.24 18.24 1.969.35 3.24-18.24-1.969-.35zM523.039 122h-67.68v2h67.68v-2zm1.283 1-.904-.429-.678 1.429h1.582v-1zm42-88.44v-1h-.632l-.272.571.904.429zm36.6 0 .993-.113-.101-.887h-.892v1zm10.08 88.44v1h1.12l-.127-1.113-.993.113zm-22.8 0-.998.075.07.925h.928v-1zm-1.32-17.64.997-.075-.069-.925h-.928v1zm-31.56 0v-1h-.664l-.258.611.922.389zm-7.44 17.64v1h.663l.258-.611-.921-.389zm14.52-34.92-.918-.397-.605 1.397h1.523v-1zm23.04 0v1h1.081l-.084-1.078-.997.078zm-2.88-36.6.997-.078-.073-.922h-.924v1zm-4.32 0v-1h-.657l-.261.603.918.397zm-55.017 71.949 42-88.44-1.807-.858-42 88.44 1.807.858zm41.097-87.869h36.6v-2h-36.6v2zm35.606-.887 10.08 88.44 1.987-.226-10.08-88.44-1.987.226zM613.002 122h-22.8v2h22.8v-2zm-21.803.925-1.32-17.64-1.995.15 1.32 17.64 1.995-.15zm-2.317-18.565h-31.56v2h31.56v-2zm-32.482.611-7.44 17.64 1.843.778 7.44-17.64-1.843-.778zM549.882 122h-25.56v2h25.56v-2zm14.52-32.92h23.04v-2h-23.04v2zm24.037-1.078-2.88-36.6-1.994.156 2.88 36.6 1.994-.156zm-3.877-37.522h-4.32v2h4.32v-2zm-5.238.603-15.84 36.6 1.835.794 15.84-36.6-1.835-.794zM618.081 123l-.985-.174-.207 1.174h1.192v-1zm15.6-88.44v-1h-.839l-.146.826.985.174zm60.72 0 .767-.642-.3-.358h-.467v1zm11.16 13.32.985.175.081-.46-.299-.357-.767.642zm-5.64 31.68.646.763.275-.233.064-.355-.985-.175zm-12.48 10.56-.646-.763-.465.393.136.594.975-.224zm7.56 32.88v1h1.256l-.281-1.224-.975.224zm-21.48 0-.978.207.167.793h.811v-1zm-6.36-30.12.979-.207-.168-.793h-.811v1zm-21.12 0v-1h-.84l-.145.827.985.173zm-5.28 30.12v1h.84l.145-.827-.985-.173zm8.28-47.16-.984-.175-.21 1.175h1.194v-1zm25.2 0v1h.362l.278-.232-.64-.768zm5.04-4.2.64.768.282-.235.063-.361-.985-.172zm2.76-15.84.985.172.079-.455-.294-.355-.77.638zm-3.48-4.2.77-.638-.3-.362h-.47v1zm-25.2 0v-1h-.837l-.147.825.984.175zm-34.295 71.574 15.6-88.44-1.97-.348-15.6 88.44 1.97.348zm14.615-87.614h60.72v-2h-60.72v2zm59.954-.358 11.16 13.32 1.533-1.284-11.16-13.32-1.533 1.284zm10.942 12.503-5.64 31.68 1.969.35 5.64-31.68-1.969-.35zm-5.302 31.092-12.48 10.56 1.292 1.526 12.48-10.56-1.292-1.526zm-12.809 11.547 7.56 32.88 1.95-.448-7.56-32.88-1.95.448zM695.001 122h-21.48v2h21.48v-2zm-20.501.793-6.36-30.12-1.957.414 6.36 30.12 1.957-.414zm-7.339-30.913h-21.12v2h21.12v-2zm-22.105.827-5.28 30.12 1.97.346 5.28-30.12-1.97-.346zM640.761 122h-22.68v2h22.68v-2zm8.28-45.16h25.2v-2h-25.2v2zm25.84-.232 5.04-4.2-1.28-1.536-5.04 4.2 1.28 1.536zm5.385-4.796 2.76-15.84-1.97-.344-2.76 15.84 1.97.344zm2.545-16.65-3.48-4.2-1.54 1.276 3.48 4.2 1.54-1.276zm-4.25-4.562h-25.2v2h25.2v-2zm-26.184.825-4.32 24.24 1.969.35 4.32-24.24-1.969-.35zM703.544 123l-.985-.174-.207 1.174h1.192v-1zm15.6-88.44v-1h-.839l-.146.826.985.174zm23.28 0 .933-.36-.247-.64h-.686v1zM763.784 90l-.934.36 1.291 3.349.627-3.534-.984-.175zm9.84-55.44v-1h-.839l-.146.825.985.175zm21.12 0 .984.174.207-1.174h-1.191v1zm-15.6 88.44v1h.839l.145-.826-.984-.174zm-21.12 0-.934.359.247.641h.687v-1zm-19.92-51.84.933-.359-.246-.641h-.687v1zm-4.32 0v-1h-.84l-.145.827.985.173zm-9.12 51.84v1h.839l.145-.827-.984-.173zm-20.136.174 15.6-88.44-1.969-.348-15.6 88.44 1.969.348zm14.616-87.614h23.28v-2h-23.28v2zm22.346-.64 21.36 55.44 1.867-.72-21.36-55.44-1.867.72zm23.278 55.255 9.84-55.44-1.969-.35-9.84 55.44 1.969.35zm8.856-54.615h21.12v-2h-21.12v2zm20.135-1.174-15.6 88.44 1.969.348 15.6-88.44-1.969-.348zM779.144 122h-21.12v2h21.12v-2zm-20.187.641-19.92-51.84-1.867.718 19.92 51.84 1.867-.718zM738.104 70.16h-4.32v2h4.32v-2zm-5.305.827-9.12 51.84 1.969.346 9.12-51.84-1.969-.346zM724.664 122h-21.12v2h21.12v-2zm84.086 1-.903-.429-.679 1.429h1.582v-1zm42-88.44v-1h-.632l-.271.571.903.429zm36.6 0 .993-.113-.101-.887h-.892v1zM897.43 123v1h1.12l-.127-1.113-.993.113zm-22.8 0-.997.075.069.925h.928v-1zm-1.32-17.64.997-.075-.069-.925h-.928v1zm-31.56 0v-1h-.664l-.258.611.922.389zM834.31 123v1h.663l.258-.611-.921-.389zm14.52-34.92-.918-.397-.605 1.397h1.523v-1zm23.04 0v1h1.082l-.085-1.078-.997.078zm-2.88-36.6.997-.078-.073-.922h-.924v1zm-4.32 0v-1h-.657l-.261.603.918.397zm-55.017 71.949 42-88.44-1.806-.858-42 88.44 1.806.858zM850.75 35.56h36.6v-2h-36.6v2zm35.606-.887 10.08 88.44 1.987-.226-10.08-88.44-1.987.226zM897.43 122h-22.8v2h22.8v-2zm-21.803.925-1.32-17.64-1.994.15 1.32 17.64 1.994-.15zm-2.317-18.565h-31.56v2h31.56v-2zm-32.482.611-7.44 17.64 1.843.778 7.44-17.64-1.843-.778zM834.31 122h-25.56v2h25.56v-2zm14.52-32.92h23.04v-2h-23.04v2zm24.037-1.078-2.88-36.6-1.994.156 2.88 36.6 1.994-.156zM868.99 50.48h-4.32v2h4.32v-2zm-5.238.603-15.84 36.6 1.836.794 15.84-36.6-1.836-.794zM902.509 123l-.985-.174-.207 1.174h1.192v-1zm15.6-88.44v-1h-.839l-.146.826.985.174zm59.64 0 .77-.638-.3-.362h-.47v1zm11.04 13.32.985.173.08-.455-.295-.356-.77.638zm-6 34.08.647.763.275-.234.063-.356-.985-.173zm-15.72 13.32v1h.367l.28-.237-.647-.763zm-36.96 0v-1h-.838l-.146.825.984.175zm-4.92 27.72v1h.838l.147-.825-.985-.175zm7.92-44.76-.985-.173-.206 1.173h1.191v-1zm24.12 0v1h.369l.28-.24-.649-.76zm4.92-4.2.649.76.273-.232.063-.353-.985-.175zm3.24-18.24.985.175.081-.456-.296-.357-.77.638zm-3.48-4.2.77-.638-.3-.362h-.47v1zm-24.12 0v-1h-.839l-.146.827.985.173zm-34.295 71.574 15.6-88.44-1.97-.348-15.6 88.44 1.97.348zm14.615-87.614h59.64v-2h-59.64v2zm58.87-.362 11.04 13.32 1.54-1.276-11.04-13.32-1.54 1.276zm10.825 12.509-6 34.08 1.97.346 6-34.08-1.97-.346zm-5.661 33.49-15.72 13.32 1.293 1.526 15.72-13.32-1.293-1.526zM967.069 94.28h-36.96v2h36.96v-2zm-37.944.825-4.92 27.72 1.969.35 4.92-27.72-1.969-.35zM925.189 122h-22.68v2h22.68v-2zm7.92-42.76h24.12v-2h-24.12v2zm24.769-.24 4.92-4.2-1.298-1.52-4.92 4.2 1.298 1.52zm5.256-4.785 3.24-18.24-1.969-.35-3.24 18.24 1.969.35zm3.025-19.053-3.48-4.2-1.54 1.276 3.48 4.2 1.54-1.276zm-4.25-4.562h-24.12v2h24.12v-2zm-25.105.827-4.68 26.64 1.97.346 4.68-26.64-1.97-.346zM981.644 123l-.985-.174-.207 1.174h1.192v-1zm15.6-88.44v-1h-.839l-.146.826.985.174zm59.636 0 .77-.638-.3-.362h-.47v1zm11.04 13.32.99.173.08-.455-.3-.356-.77.638zm-6 34.08.65.763.28-.234.06-.356-.99-.173zm-15.72 13.32v1h.37l.28-.237-.65-.763zm-36.96 0v-1h-.83l-.15.825.98.175zm-4.92 27.72v1h.84l.15-.825-.99-.175zm7.92-44.76-.98-.173-.21 1.173h1.19v-1zm24.12 0v1h.37l.28-.24-.65-.76zm4.92-4.2.65.76.28-.232.06-.353-.99-.175zm3.24-18.24.99.175.08-.456-.3-.357-.77.638zm-3.48-4.2.77-.638-.3-.362h-.47v1zm-24.12 0v-1h-.84l-.14.827.98.173zm-34.292 71.574 15.6-88.44-1.969-.348-15.6 88.44 1.969.348zm14.616-87.614h59.636v-2h-59.636v2zm58.866-.362 11.04 13.32 1.54-1.276-11.04-13.32-1.54 1.276zm10.83 12.509-6 34.08 1.97.346 6-34.08-1.97-.346zm-5.66 33.49-15.72 13.32 1.29 1.526 15.72-13.32-1.29-1.526zM1046.2 94.28h-36.96v2h36.96v-2zm-37.94.825-4.92 27.72 1.97.35 4.92-27.72-1.97-.35zM1004.32 122h-22.676v2h22.676v-2zm7.92-42.76h24.12v-2h-24.12v2zm24.77-.24 4.92-4.2-1.3-1.52-4.92 4.2 1.3 1.52zm5.26-4.785 3.24-18.24-1.97-.35-3.24 18.24 1.97.35zm3.02-19.053-3.48-4.2-1.54 1.276 3.48 4.2 1.54-1.276zm-4.25-4.562h-24.12v2h24.12v-2zm-25.1.827-4.68 26.64 1.97.346 4.68-26.64-1.97-.346z" fill="#11D9EB"/></g><g filter="url(#d)"><path d="m8.542 120 15.6-88.44h58.2l15.12 18.36-9.12 51.72-21.6 18.36h-58.2zm25.68-17.04h25.56l7.56-6.36 7.32-41.64-5.28-6.36h-25.56l-9.6 54.36zM93.639 120l11.04-62.76h22.68l-1.68 9.84 12.36-9.72h12.48l-3.48 20.04h-18.24l-5.76 4.44-6.72 38.16h-22.68zm63.015-69.72 3-16.8h22.92l-3 16.8h-22.92zM144.534 120l11.04-62.76h22.68L167.214 120h-22.68zm49.006 0-11.16-62.64h24.84l3 45.72h4.32l16.2-45.72h27.72L225.22 120h-31.68zm68.631 0-10.92-13.32 6.24-36 15.72-13.32h35.76l10.92 13.32-4.08 23.76h-39.72l-1.08 5.52 3.6 4.2h34.44l-2.76 15.84h-48.12zm16.2-38.52h19.08l1.32-7.44-3.6-4.2h-10.44l-5.04 4.2-1.32 7.44zM345.714 120l3.6-20.64 54.12-39.72 1.32-7.44-2.88-3.6h-15.84l-4.2 3.6-1.68 9.24h-22.68l3.24-18.12 14.64-11.76h43.08l10.56 11.76-4.2 23.76-48.6 35.04h43.08l-3.12 17.88h-70.44zm106.645 0 15.6-88.44h67.68l-3.24 18.24h-45l-2.88 16.32h40.56l-2.88 16.92h-40.68l-3.24 18.72h45l-3.24 18.24h-67.68zm68.963 0 42-88.44h36.6l10.08 88.44h-22.8l-1.32-17.64h-31.56l-7.44 17.64h-25.56zm40.08-34.92h23.04l-2.88-36.6h-4.32l-15.84 36.6zM615.081 120l15.6-88.44h60.72l11.16 13.32-5.64 31.68-12.48 10.56 7.56 32.88h-21.48l-6.36-30.12h-21.12l-5.28 30.12h-22.68zm30.96-47.16h25.2l5.04-4.2 2.76-15.84-3.48-4.2h-25.2l-4.32 24.24zM700.544 120l15.6-88.44h23.28L760.784 87l9.84-55.44h21.12l-15.6 88.44h-21.12l-19.92-51.84h-4.32l-9.12 51.84h-21.12zm105.206 0 42-88.44h36.6L894.43 120h-22.8l-1.32-17.64h-31.56L831.31 120h-25.56zm40.08-34.92h23.04l-2.88-36.6h-4.32l-15.84 36.6zM899.509 120l15.6-88.44h59.64l11.04 13.32-6 34.08-15.72 13.32h-36.96l-4.92 27.72h-22.68zm30.6-44.76h24.12l4.92-4.2 3.24-18.24-3.48-4.2h-24.12l-4.68 26.64zM978.644 120l15.6-88.44h59.636l11.04 13.32-6 34.08-15.72 13.32h-36.96l-4.92 27.72h-22.676zm30.596-44.76h24.12l4.92-4.2 3.24-18.24-3.48-4.2h-24.12l-4.68 26.64z" fill="url(#e)"/><path d="m8.542 120-.985-.174L7.35 121h1.192v-1zm15.6-88.44v-1h-.839l-.146.826.985.174zm58.2 0 .772-.636-.3-.364h-.472v1zm15.12 18.36.985.174.08-.454-.293-.356-.772.636zm-9.12 51.72.648.762.274-.233.063-.355-.985-.174zM66.742 120v1h.368l.28-.238-.648-.762zm-32.52-17.04-.985-.174-.207 1.174h1.192v-1zm25.56 0v1h.365l.279-.235-.644-.765zm7.56-6.36.644.765.278-.234.063-.358-.985-.173zm7.32-41.64.985.173.08-.456-.296-.356-.769.639zm-5.28-6.36.77-.639-.3-.361h-.47v1zm-25.56 0v-1h-.839l-.146.826.985.174zM9.527 120.174l15.6-88.44-1.97-.348-15.6 88.44 1.97.348zM24.142 32.56h58.2v-2h-58.2v2zm57.428-.364 15.12 18.36 1.544-1.272-15.12-18.36-1.544 1.272zm14.907 17.55-9.12 51.72 1.97.348 9.12-51.72-1.97-.348zm-8.783 51.132-21.6 18.36 1.296 1.524 21.6-18.36-1.296-1.524zM66.742 119h-58.2v2h58.2v-2zm-32.52-15.04h25.56v-2h-25.56v2zm26.204-.235 7.56-6.36-1.288-1.53-7.56 6.36 1.288 1.53zm7.9-6.952 7.32-41.64-1.969-.346-7.32 41.64 1.97.346zm7.105-42.452-5.28-6.36-1.538 1.278 5.28 6.36 1.538-1.278zM69.382 47.6h-25.56v2h25.56v-2zm-26.545.826-9.6 54.36 1.97.348 9.6-54.36-1.97-.348zM93.64 120l-.985-.173-.206 1.173h1.19v-1zm11.04-62.76v-1h-.84l-.145.827.985.173zm22.68 0 .986.168.199-1.168h-1.185v1zm-1.68 9.84-.986-.168-.437 2.559 2.041-1.605-.618-.786zm12.36-9.72v-1h-.346l-.272.214.618.786zm12.48 0 .985.171.204-1.171h-1.189v1zm-3.48 20.04v1h.841l.144-.829-.985-.171zm-18.24 0v-1h-.341l-.27.208.611.792zm-5.76 4.44-.611-.792-.307.237-.067.382.985.173zm-6.72 38.16v1h.839l.146-.827-.985-.173zm-21.695.173 11.04-62.76-1.97-.346-11.04 62.76 1.97.346zm10.055-61.933h22.68v-2h-22.68v2zm21.694-1.168-1.68 9.84 1.972.336 1.68-9.84-1.972-.336zm-.076 10.794 12.36-9.72-1.236-1.572-12.36 9.72 1.236 1.572zm11.742-9.506h12.48v-2h-12.48v2zm11.495-1.171-3.48 20.04 1.97.342 3.48-20.04-1.97-.342zM147.039 76.4h-18.24v2h18.24v-2zm-18.851.208-5.76 4.44 1.221 1.584 5.76-4.44-1.221-1.584zm-6.134 5.059-6.72 38.16 1.97.346 6.72-38.16-1.97-.346zM116.319 119h-22.68v2h22.68v-2zm40.335-68.72-.985-.176-.209 1.176h1.194v-1zm3-16.8v-1h-.837l-.148.824.985.176zm22.92 0 .984.176.21-1.176h-1.194v1zm-3 16.8v1h.837l.147-.824-.984-.176zM144.534 120l-.985-.173-.206 1.173h1.191v-1zm11.04-62.76v-1h-.84l-.145.827.985.173zm22.68 0 .985.173.206-1.173h-1.191v1zM167.214 120v1h.839l.146-.827-.985-.173zm-9.576-69.544 3-16.8-1.969-.352-3 16.8 1.969.352zm2.016-15.976h22.92v-2h-22.92v2zm21.935-1.176-3 16.8 1.969.352 3-16.8-1.969-.352zm-2.015 15.976h-22.92v2h22.92v-2zm-34.055 70.893 11.04-62.76-1.97-.346-11.04 62.76 1.97.346zm10.055-61.933h22.68v-2h-22.68v2zm21.695-1.173-11.04 62.76 1.97.346 11.04-62.76-1.97-.346zM167.214 119h-22.68v2h22.68v-2zm26.326 1-.985.175.147.825h.838v-1zm-11.16-62.64v-1h-1.194l.209 1.175.985-.175zm24.84 0 .998-.066-.062-.934h-.936v1zm3 45.72-.998.065.061.935h.937v-1zm4.32 0v1h.706l.236-.666-.942-.334zm16.2-45.72v-1h-.707l-.236.666.943.334zm27.72 0 .883.469.78-1.469h-1.663v1zM225.22 120v1h.601l.282-.531-.883-.469zm-30.696-.175-11.16-62.64-1.969.35 11.16 62.64 1.969-.35zM182.38 58.36h24.84v-2h-24.84v2zm23.842-.934 3 45.719 1.996-.13-3-45.72-1.996.13zm3.998 46.654h4.32v-2h-4.32v2zm5.262-.666 16.2-45.72-1.885-.668-16.2 45.72 1.885.668zM230.74 58.36h27.72v-2h-27.72v2zm26.837-1.469-33.24 62.64 1.766.938 33.24-62.64-1.766-.938zM225.22 119h-31.68v2h31.68v-2zm36.951 1-.773.634.3.366h.473v-1zm-10.92-13.32-.985-.171-.078.451.29.354.773-.634zm6.24-36-.646-.763-.277.235-.062.357.985.171zm15.72-13.32v-1h-.366l-.28.237.646.763zm35.76 0 .774-.634-.3-.366h-.474v1zm10.92 13.32.986.17.077-.45-.289-.354-.774.634zm-4.08 23.76v1h.843l.143-.83-.986-.17zm-39.72 0v-1h-.823l-.158.808.981.192zm-1.08 5.52-.981-.192-.093.475.315.368.759-.651zm3.6 4.2-.759.651.299.349h.46v-1zm34.44 0 .986.172.204-1.172h-1.19v1zm-2.76 15.84v1h.841l.145-.828-.986-.172zm-31.92-38.52-.984-.175-.209 1.175h1.193v-1zm19.08 0v1h.839l.146-.825-.985-.175zm1.32-7.44.985.175.083-.466-.308-.36-.76.651zm-3.6-4.2.76-.65-.3-.35h-.46v1zm-10.44 0v-1h-.362l-.278.232.64.768zm-5.04 4.2-.64-.768-.28.234-.064.36.984.174zm-16.746 45.326-10.92-13.32-1.547 1.268 10.92 13.32 1.547-1.268zm-10.708-12.515 6.24-36-1.971-.342-6.24 36 1.971.342zm5.901-35.408 15.72-13.32-1.293-1.526-15.72 13.32 1.293 1.526zm15.073-13.083h35.76v-2h-35.76v2zm34.987-.366 10.92 13.32 1.547-1.268-10.92-13.32-1.547 1.268zm10.708 12.517-4.08 23.76 1.971.338 4.08-23.76-1.971-.338zm-3.095 22.929h-39.72v2h39.72v-2zm-40.701.808-1.08 5.52 1.963.384 1.08-5.52-1.963-.384zm-.858 6.363 3.6 4.2 1.519-1.302-3.6-4.2-1.519 1.302zm4.359 4.549h34.44v-2h-34.44v2zm33.455-1.172-2.76 15.84 1.971.344 2.76-15.84-1.971-.344zM310.291 119h-48.12v2h48.12v-2zm-31.92-36.52h19.08v-2h-19.08v2zm20.065-.825 1.32-7.44-1.969-.35-1.32 7.44 1.969.35zm1.095-8.266-3.6-4.2-1.519 1.302 3.6 4.2 1.519-1.302zm-4.36-4.549h-10.44v2h10.44v-2zm-11.08.232-5.04 4.2 1.281 1.536 5.04-4.2-1.281-1.536zm-5.384 4.793-1.32 7.44 1.969.35 1.32-7.44-1.969-.35zM345.714 120l-.985-.172-.205 1.172h1.19v-1zm3.6-20.64-.592-.806-.324.238-.069.396.985.172zm54.12-39.72.592.806.323-.237.07-.394-.985-.175zm1.32-7.44.985.175.079-.446-.283-.354-.781.625zm-2.88-3.6.781-.625-.3-.375h-.481v1zm-15.84 0v-1h-.37l-.281.24.651.76zm-4.2 3.6-.651-.76-.269.232-.064.35.984.178zm-1.68 9.24v1h.834l.15-.821-.984-.179zm-22.68 0-.984-.176-.211 1.176h1.195v-1zm3.24-18.12-.626-.78-.293.235-.066.369.985.176zm14.64-11.76v-1h-.352l-.274.22.626.78zm43.08 0 .744-.668-.298-.332h-.446v1zm10.56 11.76.985.174.084-.48-.325-.362-.744.668zm-4.2 23.76.585.811.329-.237.071-.4-.985-.174zm-48.6 35.04-.585-.811-2.512 1.811h3.097v-1zm43.08 0 .985.172.205-1.172h-1.19v1zm-3.12 17.88v1h.841l.144-.828-.985-.172zm-69.455.172 3.6-20.64-1.97-.344-3.6 20.64 1.97.344zm3.207-20.006 54.12-39.72-1.184-1.612-54.12 39.72 1.184 1.612zm54.513-40.351 1.32-7.44-1.97-.35-1.32 7.44 1.97.35zm1.116-8.24-2.88-3.6-1.562 1.25 2.88 3.6 1.562-1.25zm-3.661-3.975h-15.84v2h15.84v-2zm-16.491.24-4.2 3.6 1.302 1.52 4.2-3.6-1.302-1.52zm-4.533 4.181-1.68 9.24 1.968.358 1.68-9.24-1.968-.358zm-.696 8.419h-22.68v2h22.68v-2zm-21.696 1.176 3.24-18.12-1.969-.352-3.239 18.12 1.968.352zM361.34 44.1l14.64-11.76-1.252-1.56-14.64 11.76 1.252 1.56zm14.014-11.54h43.08v-2h-43.08v2zm42.336-.332 10.56 11.76 1.488-1.336-10.56-11.76-1.488 1.336zm10.319 10.918-4.2 23.76 1.97.348 4.2-23.76-1.97-.348zm-3.8 23.123-48.6 35.04 1.17 1.622 48.6-35.04-1.17-1.622zm-48.015 36.851h43.08v-2h-43.08v2zm42.095-1.172-3.12 17.88 1.97.344 3.12-17.88-1.97-.344zM416.154 119h-70.44v2h70.44v-2zm36.205 1-.985-.174-.207 1.174h1.192v-1zm15.6-88.44v-1h-.839l-.146.826.985.174zm67.68 0 .985.175.209-1.175h-1.194v1zm-3.24 18.24v1h.838l.147-.825-.985-.175zm-45 0v-1h-.839l-.146.826.985.174zm-2.88 16.32-.985-.174-.207 1.174h1.192v-1zm40.56 0 .986.168.199-1.168h-1.185v1zm-2.88 16.92v1h.844l.142-.832-.986-.168zm-40.68 0v-1h-.842l-.143.83.985.17zm-3.24 18.72-.985-.171-.203 1.171h1.188v-1zm45 0 .985.175.209-1.175h-1.194v1zm-3.24 18.24v1h.838l.147-.825-.985-.175zm-66.695.174 15.6-88.44-1.97-.348-15.6 88.44 1.97.348zm14.615-87.614h67.68v-2h-67.68v2zm66.696-1.175-3.24 18.24 1.969.35 3.24-18.24-1.969-.35zM532.399 48.8h-45v2h45v-2zm-45.985.826-2.88 16.32 1.97.348 2.88-16.32-1.97-.348zm-1.895 17.494h40.56v-2h-40.56v2zm39.574-1.168-2.88 16.92 1.972.336 2.88-16.92-1.972-.336zm-1.894 16.088h-40.68v2h40.68v-2zm-41.665.83-3.24 18.719 1.971.342 3.24-18.72-1.971-.341zm-2.255 19.89h45v-2h-45v2zm44.016-1.175-3.24 18.24 1.969.35 3.24-18.24-1.969-.35zM520.039 119h-67.68v2h67.68v-2zm1.283 1-.904-.429-.678 1.429h1.582v-1zm42-88.44v-1h-.632l-.272.571.904.429zm36.6 0 .993-.113-.101-.887h-.892v1zm10.08 88.44v1h1.12l-.127-1.113-.993.113zm-22.8 0-.998.075.07.925h.928v-1zm-1.32-17.64.997-.075-.069-.925h-.928v1zm-31.56 0v-1h-.664l-.258.611.922.389zm-7.44 17.64v1h.663l.258-.611-.921-.389zm14.52-34.92-.918-.397-.605 1.397h1.523v-1zm23.04 0v1h1.081l-.084-1.078-.997.078zm-2.88-36.6.997-.078-.073-.922h-.924v1zm-4.32 0v-1h-.657l-.261.603.918.397zm-55.017 71.949 42-88.44-1.807-.858-42 88.44 1.807.858zm41.097-87.869h36.6v-2h-36.6v2zm35.606-.887 10.08 88.44 1.987-.226-10.08-88.44-1.987.226zM610.002 119h-22.8v2h22.8v-2zm-21.803.925-1.32-17.64-1.995.15 1.32 17.64 1.995-.15zm-2.317-18.565h-31.56v2h31.56v-2zm-32.482.611-7.44 17.64 1.843.778 7.44-17.64-1.843-.778zM546.882 119h-25.56v2h25.56v-2zm14.52-32.92h23.04v-2h-23.04v2zm24.037-1.078-2.88-36.6-1.994.156 2.88 36.6 1.994-.156zm-3.877-37.522h-4.32v2h4.32v-2zm-5.238.603-15.84 36.6 1.835.794 15.84-36.6-1.835-.794zM615.081 120l-.985-.174-.207 1.174h1.192v-1zm15.6-88.44v-1h-.839l-.146.826.985.174zm60.72 0 .767-.642-.3-.358h-.467v1zm11.16 13.32.985.175.081-.46-.299-.357-.767.642zm-5.64 31.68.646.763.275-.233.064-.355-.985-.175zm-12.48 10.56-.646-.763-.465.393.136.594.975-.224zm7.56 32.88v1h1.256l-.281-1.224-.975.224zm-21.48 0-.978.207.167.793h.811v-1zm-6.36-30.12.979-.207-.168-.793h-.811v1zm-21.12 0v-1h-.84l-.145.827.985.173zm-5.28 30.12v1h.84l.145-.827-.985-.173zm8.28-47.16-.984-.175-.21 1.175h1.194v-1zm25.2 0v1h.362l.278-.232-.64-.768zm5.04-4.2.64.768.282-.235.063-.361-.985-.172zm2.76-15.84.985.172.079-.455-.294-.355-.77.638zm-3.48-4.2.77-.638-.3-.362h-.47v1zm-25.2 0v-1h-.837l-.147.825.984.175zm-34.295 71.574 15.6-88.44-1.97-.348-15.6 88.44 1.97.348zm14.615-87.614h60.72v-2h-60.72v2zm59.954-.358 11.16 13.32 1.533-1.284-11.16-13.32-1.533 1.284zm10.942 12.503-5.64 31.68 1.969.35 5.64-31.68-1.969-.35zm-5.302 31.092-12.48 10.56 1.292 1.526 12.48-10.56-1.292-1.526zm-12.809 11.547 7.56 32.88 1.95-.448-7.56-32.88-1.95.448zM692.001 119h-21.48v2h21.48v-2zm-20.501.793-6.36-30.12-1.957.414 6.36 30.12 1.957-.414zm-7.339-30.913h-21.12v2h21.12v-2zm-22.105.827-5.28 30.12 1.97.346 5.28-30.12-1.97-.346zM637.761 119h-22.68v2h22.68v-2zm8.28-45.16h25.2v-2h-25.2v2zm25.84-.232 5.04-4.2-1.28-1.536-5.04 4.2 1.28 1.536zm5.385-4.796 2.76-15.84-1.97-.344-2.76 15.84 1.97.344zm2.545-16.65-3.48-4.2-1.54 1.276 3.48 4.2 1.54-1.276zm-4.25-4.562h-25.2v2h25.2v-2zm-26.184.825-4.32 24.24 1.969.35 4.32-24.24-1.969-.35zM700.544 120l-.985-.174-.207 1.174h1.192v-1zm15.6-88.44v-1h-.839l-.146.826.985.174zm23.28 0 .933-.36-.247-.64h-.686v1zM760.784 87l-.934.36 1.291 3.349.627-3.534-.984-.175zm9.84-55.44v-1h-.839l-.146.825.985.175zm21.12 0 .984.174.207-1.174h-1.191v1zm-15.6 88.44v1h.839l.145-.826-.984-.174zm-21.12 0-.934.359.247.641h.687v-1zm-19.92-51.84.933-.359-.246-.641h-.687v1zm-4.32 0v-1h-.84l-.145.827.985.173zm-9.12 51.84v1h.839l.145-.827-.984-.173zm-20.136.174 15.6-88.44-1.969-.348-15.6 88.44 1.969.348zm14.616-87.614h23.28v-2h-23.28v2zm22.346-.64 21.36 55.44 1.867-.72-21.36-55.44-1.867.72zm23.278 55.255 9.84-55.44-1.969-.35-9.84 55.44 1.969.35zm8.856-54.615h21.12v-2h-21.12v2zm20.135-1.174-15.6 88.44 1.969.348 15.6-88.44-1.969-.348zM776.144 119h-21.12v2h21.12v-2zm-20.187.641-19.92-51.84-1.867.718 19.92 51.84 1.867-.718zM735.104 67.16h-4.32v2h4.32v-2zm-5.305.827-9.12 51.84 1.969.346 9.12-51.84-1.969-.346zM721.664 119h-21.12v2h21.12v-2zm84.086 1-.903-.429-.679 1.429h1.582v-1zm42-88.44v-1h-.632l-.271.571.903.429zm36.6 0 .993-.113-.101-.887h-.892v1zM894.43 120v1h1.12l-.127-1.113-.993.113zm-22.8 0-.997.075.069.925h.928v-1zm-1.32-17.64.997-.075-.069-.925h-.928v1zm-31.56 0v-1h-.664l-.258.611.922.389zM831.31 120v1h.663l.258-.611-.921-.389zm14.52-34.92-.918-.397-.605 1.397h1.523v-1zm23.04 0v1h1.082l-.085-1.078-.997.078zm-2.88-36.6.997-.078-.073-.922h-.924v1zm-4.32 0v-1h-.657l-.261.603.918.397zm-55.017 71.949 42-88.44-1.806-.858-42 88.44 1.806.858zM847.75 32.56h36.6v-2h-36.6v2zm35.606-.887 10.08 88.44 1.987-.226-10.08-88.44-1.987.226zM894.43 119h-22.8v2h22.8v-2zm-21.803.925-1.32-17.64-1.994.15 1.32 17.64 1.994-.15zm-2.317-18.565h-31.56v2h31.56v-2zm-32.482.611-7.44 17.64 1.843.778 7.44-17.64-1.843-.778zM831.31 119h-25.56v2h25.56v-2zm14.52-32.92h23.04v-2h-23.04v2zm24.037-1.078-2.88-36.6-1.994.156 2.88 36.6 1.994-.156zM865.99 47.48h-4.32v2h4.32v-2zm-5.238.603-15.84 36.6 1.836.794 15.84-36.6-1.836-.794zM899.509 120l-.985-.174-.207 1.174h1.192v-1zm15.6-88.44v-1h-.839l-.146.826.985.174zm59.64 0 .77-.638-.3-.362h-.47v1zm11.04 13.32.985.173.08-.455-.295-.356-.77.638zm-6 34.08.647.763.275-.234.063-.356-.985-.173zm-15.72 13.32v1h.367l.28-.237-.647-.763zm-36.96 0v-1h-.838l-.146.825.984.175zm-4.92 27.72v1h.838l.147-.825-.985-.175zm7.92-44.76-.985-.173-.206 1.173h1.191v-1zm24.12 0v1h.369l.28-.24-.649-.76zm4.92-4.2.649.76.273-.232.063-.353-.985-.175zm3.24-18.24.985.175.081-.456-.296-.357-.77.638zm-3.48-4.2.77-.638-.3-.362h-.47v1zm-24.12 0v-1h-.839l-.146.827.985.173zm-34.295 71.574 15.6-88.44-1.97-.348-15.6 88.44 1.97.348zm14.615-87.614h59.64v-2h-59.64v2zm58.87-.362 11.04 13.32 1.54-1.276-11.04-13.32-1.54 1.276zm10.825 12.509-6 34.08 1.97.346 6-34.08-1.97-.346zm-5.661 33.49-15.72 13.32 1.293 1.526 15.72-13.32-1.293-1.526zM964.069 91.28h-36.96v2h36.96v-2zm-37.944.825-4.92 27.72 1.969.35 4.92-27.72-1.969-.35zM922.189 119h-22.68v2h22.68v-2zm7.92-42.76h24.12v-2h-24.12v2zm24.769-.24 4.92-4.2-1.298-1.52-4.92 4.2 1.298 1.52zm5.256-4.785 3.24-18.24-1.969-.35-3.24 18.24 1.969.35zm3.025-19.053-3.48-4.2-1.54 1.276 3.48 4.2 1.54-1.276zm-4.25-4.562h-24.12v2h24.12v-2zm-25.105.827-4.68 26.64 1.97.346 4.68-26.64-1.97-.346zM978.644 120l-.985-.174-.207 1.174h1.192v-1zm15.6-88.44v-1h-.839l-.146.826.985.174zm59.636 0 .77-.638-.3-.362h-.47v1zm11.04 13.32.99.173.08-.455-.3-.356-.77.638zm-6 34.08.65.763.28-.234.06-.356-.99-.173zm-15.72 13.32v1h.37l.28-.237-.65-.763zm-36.96 0v-1h-.83l-.15.825.98.175zm-4.92 27.72v1h.84l.15-.825-.99-.175zm7.92-44.76-.98-.173-.21 1.173h1.19v-1zm24.12 0v1h.37l.28-.24-.65-.76zm4.92-4.2.65.76.28-.232.06-.353-.99-.175zm3.24-18.24.99.175.08-.456-.3-.357-.77.638zm-3.48-4.2.77-.638-.3-.362h-.47v1zm-24.12 0v-1h-.84l-.14.827.98.173zm-34.292 71.574 15.6-88.44-1.969-.348-15.6 88.44 1.969.348zm14.616-87.614h59.636v-2h-59.636v2zm58.866-.362 11.04 13.32 1.54-1.276-11.04-13.32-1.54 1.276zm10.83 12.509-6 34.08 1.97.346 6-34.08-1.97-.346zm-5.66 33.49-15.72 13.32 1.29 1.526 15.72-13.32-1.29-1.526zM1043.2 91.28h-36.96v2h36.96v-2zm-37.94.825-4.92 27.72 1.97.35 4.92-27.72-1.97-.35zM1001.32 119h-22.676v2h22.676v-2zm7.92-42.76h24.12v-2h-24.12v2zm24.77-.24 4.92-4.2-1.3-1.52-4.92 4.2 1.3 1.52zm5.26-4.785 3.24-18.24-1.97-.35-3.24 18.24 1.97.35zm3.02-19.053-3.48-4.2-1.54 1.276 3.48 4.2 1.54-1.276zm-4.25-4.562h-24.12v2h24.12v-2zm-25.1.827-4.68 26.64 1.97.346 4.68-26.64-1.97-.346z" fill="#11D9EB"/></g><defs><filter id="a" x="9.542" y="32.56" width="1064.38" height="96.44" filterUnits="userSpaceOnUse" color-interpolation-filters="sRGB"><feFlood flood-opacity="0" result="BackgroundImageFix"/><feBlend in="SourceGraphic" in2="BackgroundImageFix" result="shape"/><feGaussianBlur stdDeviation="2" result="effect1_foregroundBlur_218_1439"/></filter><filter id="b" x="-28.458" y="-5.44" width="1136.38" height="168.44" filterUnits="userSpaceOnUse" color-interpolation-filters="sRGB"><feFlood flood-opacity="0" result="BackgroundImageFix"/><feGaussianBlur in="BackgroundImage" stdDeviation="20"/><feComposite in2="SourceAlpha" operator="in" result="effect1_backgroundBlur_218_1439"/><feBlend in="SourceGraphic" in2="effect1_backgroundBlur_218_1439" result="shape"/></filter><filter id="d" x="-31.458" y="-8.44" width="1136.38" height="168.44" filterUnits="userSpaceOnUse" color-interpolation-filters="sRGB"><feFlood flood-opacity="0" result="BackgroundImageFix"/><feGaussianBlur in="BackgroundImage" stdDeviation="20"/><feComposite in2="SourceAlpha" operator="in" result="effect1_backgroundBlur_218_1439"/><feBlend in="SourceGraphic" in2="effect1_backgroundBlur_218_1439" result="shape"/></filter><linearGradient id="c" x1="528" y1="123" x2="523.5" y2="33.5" gradientUnits="userSpaceOnUse"><stop stop-color="#82F7CE"/><stop offset=".492" stop-color="#4630C7"/><stop offset="1" stop-color="#D750EC"/></linearGradient><linearGradient id="e" x1="525" y1="120" x2="520.5" y2="30.5" gradientUnits="userSpaceOnUse"><stop stop-color="#82F7CE"/><stop offset=".492" stop-color="#4630C7"/><stop offset="1" stop-color="#D750EC"/></linearGradient></defs></svg>