<svg width="145" height="46" fill="none" xmlns="http://www.w3.org/2000/svg"><path d="M9.303 45.043c-.374 0-.74-.005-1.11-.013-.77-.01-1.538-.073-2.297-.191a7.462 7.462 0 0 1-2.036-.644 6.636 6.636 0 0 1-1.716-1.194A6.274 6.274 0 0 1 .89 41.36a6.52 6.52 0 0 1-.667-1.947 13.963 13.963 0 0 1-.205-2.203C.01 36.962 0 36.137 0 36.137V8.995s.01-.812.018-1.05c.01-.738.077-1.473.203-2.2.118-.68.343-1.338.668-1.953A6.333 6.333 0 0 1 2.136 2.15 6.833 6.833 0 0 1 3.86.948 7.386 7.386 0 0 1 5.89.31C6.654.19 7.424.126 8.196.116L9.304.102h126.27l1.122.015c.765.009 1.529.073 2.284.191a7.53 7.53 0 0 1 2.053.644A6.732 6.732 0 0 1 144 3.795c.32.61.542 1.263.658 1.937.127.733.198 1.475.213 2.218.004.332.004.69.004 1.045.009.441.009.86.009 1.283v24.59c0 .427 0 .843-.009 1.263 0 .382 0 .732-.005 1.093a14.34 14.34 0 0 1-.21 2.177 6.549 6.549 0 0 1-.664 1.962 6.46 6.46 0 0 1-1.247 1.628 6.646 6.646 0 0 1-1.72 1.202 7.431 7.431 0 0 1-2.049.646c-.76.118-1.527.183-2.297.191-.36.008-.737.013-1.103.013l-1.331.002-124.946-.002z" fill="#fff"/><path d="M29.641 22.443a5.913 5.913 0 0 1 .824-2.926 6.199 6.199 0 0 1 2.187-2.181 6.4 6.4 0 0 0-2.224-1.907 6.668 6.668 0 0 0-2.875-.747c-2.146-.217-4.226 1.236-5.32 1.236-1.114 0-2.797-1.214-4.61-1.178a6.985 6.985 0 0 0-3.317.952 6.654 6.654 0 0 0-2.398 2.403c-2.471 4.118-.628 10.17 1.74 13.5 1.184 1.63 2.568 3.45 4.379 3.386 1.772-.071 2.434-1.088 4.573-1.088 2.12 0 2.74 1.087 4.588 1.046 1.902-.03 3.1-1.637 4.243-3.282a13.284 13.284 0 0 0 1.94-3.804 6.063 6.063 0 0 1-2.71-2.165 5.726 5.726 0 0 1-1.02-3.245zM26.15 12.495A5.848 5.848 0 0 0 27.576 8.2a6.418 6.418 0 0 0-4.098 2.041 5.66 5.66 0 0 0-1.159 1.928c-.25.71-.353 1.46-.303 2.208a5.408 5.408 0 0 0 2.293-.484 5.211 5.211 0 0 0 1.843-1.4zM50.904 31.019h-5.816l-1.397 3.97h-2.463L46.737 20.3h2.56l5.508 14.69h-2.506l-1.395-3.971zm-5.214-1.832h4.61l-2.272-6.444h-.064l-2.274 6.444zM66.702 29.634c0 3.328-1.85 5.466-4.642 5.466a3.891 3.891 0 0 1-2.03-.453 3.704 3.704 0 0 1-1.47-1.42h-.053v5.304h-2.284V24.279h2.21v1.78h.043a3.88 3.88 0 0 1 1.499-1.417 4.07 4.07 0 0 1 2.043-.476c2.823 0 4.684 2.15 4.684 5.468zm-2.347 0c0-2.168-1.164-3.594-2.94-3.594-1.744 0-2.918 1.456-2.918 3.594 0 2.158 1.174 3.603 2.918 3.603 1.776 0 2.94-1.415 2.94-3.603zM78.946 29.634c0 3.328-1.851 5.466-4.643 5.466a3.891 3.891 0 0 1-2.03-.453 3.704 3.704 0 0 1-1.47-1.42h-.053v5.304h-2.283V24.279h2.21v1.78h.042a3.88 3.88 0 0 1 1.5-1.417 4.07 4.07 0 0 1 2.042-.476c2.823 0 4.685 2.15 4.685 5.468zm-2.348 0c0-2.168-1.164-3.594-2.94-3.594-1.744 0-2.918 1.456-2.918 3.594 0 2.158 1.174 3.603 2.919 3.603 1.775 0 2.94-1.415 2.94-3.603zM87.036 30.897c.17 1.457 1.64 2.413 3.648 2.413 1.925 0 3.31-.956 3.31-2.27 0-1.14-.836-1.822-2.813-2.29l-1.978-.459c-2.802-.651-4.102-1.913-4.102-3.96 0-2.534 2.294-4.275 5.55-4.275 3.226 0 5.436 1.741 5.51 4.275h-2.305c-.138-1.465-1.396-2.35-3.236-2.35-1.84 0-3.098.895-3.098 2.198 0 1.038.804 1.65 2.77 2.117l1.682.398c3.13.712 4.43 1.923 4.43 4.071 0 2.748-2.273 4.47-5.89 4.47-3.383 0-5.668-1.681-5.815-4.338h2.337zM101.334 21.745v2.534h2.115v1.741h-2.115v5.904c0 .917.424 1.345 1.353 1.345.252-.004.502-.021.752-.051v1.73a6.51 6.51 0 0 1-1.269.102c-2.252 0-3.13-.814-3.13-2.891V26.02h-1.618v-1.74h1.618v-2.535h2.294zM104.674 29.634c0-3.37 2.061-5.486 5.275-5.486 3.226 0 5.278 2.117 5.278 5.486 0 3.38-2.041 5.487-5.278 5.487-3.234 0-5.275-2.108-5.275-5.487zm8.226 0c0-2.311-1.1-3.675-2.951-3.675-1.85 0-2.95 1.374-2.95 3.675 0 2.321 1.1 3.675 2.95 3.675 1.851 0 2.951-1.354 2.951-3.675zM117.11 24.279h2.178V26.1h.053a2.55 2.55 0 0 1 .981-1.424 2.725 2.725 0 0 1 1.695-.51c.263-.002.525.026.782.081v2.057a3.31 3.31 0 0 0-1.026-.133 2.383 2.383 0 0 0-.97.165 2.322 2.322 0 0 0-.809.54 2.202 2.202 0 0 0-.5.816 2.127 2.127 0 0 0-.1.943v6.352h-2.284v-10.71zM133.326 31.843c-.307 1.944-2.274 3.278-4.79 3.278-3.236 0-5.245-2.087-5.245-5.436 0-3.359 2.02-5.537 5.149-5.537 3.078 0 5.013 2.035 5.013 5.282v.753h-7.857v.133c-.036.394.015.791.151 1.165.135.373.351.715.634 1.002a2.91 2.91 0 0 0 1.007.662c.381.15.79.219 1.201.204a2.596 2.596 0 0 0 1.544-.343 2.45 2.45 0 0 0 1.025-1.163h2.168zm-7.719-3.196h5.562a2.506 2.506 0 0 0-.748-1.933 2.678 2.678 0 0 0-.905-.592 2.767 2.767 0 0 0-1.076-.193 2.916 2.916 0 0 0-1.085.202 2.833 2.833 0 0 0-.92.588 2.71 2.71 0 0 0-.614.884c-.142.331-.215.686-.214 1.044zM45.403 9.246c.479-.033.96.036 1.407.204.447.167.85.428 1.18.763a3.1 3.1 0 0 1 .728 1.177c.149.44.195.905.135 1.363 0 2.255-1.266 3.552-3.45 3.552h-2.648v-7.06h2.648zm-1.51 6.06h1.383c.342.02.684-.034 1.002-.158.318-.123.603-.314.834-.557a2.2 2.2 0 0 0 .505-.848c.1-.316.127-.649.077-.975a2.147 2.147 0 0 0-.085-.97 2.206 2.206 0 0 0-.506-.841 2.314 2.314 0 0 0-.83-.554 2.391 2.391 0 0 0-.997-.16h-1.382v5.063zM50.14 13.639c-.036-.35.006-.704.121-1.037.115-.334.302-.641.548-.901a2.62 2.62 0 0 1 .879-.61 2.708 2.708 0 0 1 2.12 0c.335.142.634.35.88.61.245.26.432.567.547.9.116.334.157.687.122 1.037.036.35-.005.705-.12 1.039a2.504 2.504 0 0 1-.547.902c-.246.26-.546.47-.88.612a2.708 2.708 0 0 1-2.123 0 2.621 2.621 0 0 1-.88-.612 2.504 2.504 0 0 1-.547-.902 2.435 2.435 0 0 1-.12-1.038zm4.094 0c0-1.155-.538-1.83-1.484-1.83-.95 0-1.483.675-1.483 1.83 0 1.163.534 1.834 1.483 1.834.946 0 1.484-.675 1.484-1.835zM62.294 16.304H61.16l-1.144-3.923h-.086l-1.139 3.923H57.67l-1.525-5.327h1.108l.99 4.065h.082l1.138-4.065h1.047l1.138 4.065h.086l.987-4.065h1.092l-1.52 5.327zM65.096 10.977h1.05v.846h.082c.139-.304.372-.559.668-.729.296-.17.64-.247.983-.22.27-.02.54.02.791.114.252.095.478.243.662.433.184.19.32.418.4.667.08.248.102.51.063.767v3.449h-1.092v-3.185c0-.856-.387-1.282-1.194-1.282a1.314 1.314 0 0 0-.535.088c-.17.066-.323.167-.448.295a1.18 1.18 0 0 0-.338.967v3.117h-1.092v-5.327zM71.535 8.898h1.092v7.407h-1.092V8.898zM74.144 13.639c-.035-.35.007-.704.122-1.037.115-.334.302-.641.548-.901a2.62 2.62 0 0 1 .879-.61 2.708 2.708 0 0 1 2.12 0c.335.142.634.35.88.61s.432.567.548.9c.115.334.157.688.122 1.038.035.35-.006.704-.12 1.038a2.507 2.507 0 0 1-.548.902c-.246.261-.546.47-.88.612a2.708 2.708 0 0 1-2.123 0 2.623 2.623 0 0 1-.88-.612 2.505 2.505 0 0 1-.547-.902 2.435 2.435 0 0 1-.121-1.038zm4.095 0c0-1.155-.539-1.83-1.484-1.83-.95 0-1.483.675-1.483 1.83 0 1.164.534 1.834 1.483 1.834.945 0 1.484-.675 1.484-1.834zM80.513 14.798c0-.959.741-1.512 2.057-1.59l1.499-.084v-.46c0-.562-.386-.88-1.133-.88-.61 0-1.032.216-1.153.592h-1.057c.112-.915 1.005-1.502 2.26-1.502 1.388 0 2.17.665 2.17 1.79v3.64h-1.051v-.748h-.087a1.836 1.836 0 0 1-.713.634 1.92 1.92 0 0 1-.948.202c-.233.023-.467 0-.69-.07a1.688 1.688 0 0 1-.6-.333 1.613 1.613 0 0 1-.408-.539 1.558 1.558 0 0 1-.147-.652zm3.556-.455v-.446l-1.351.083c-.762.05-1.108.3-1.108.769 0 .48.432.758 1.026.758a1.353 1.353 0 0 0 .973-.29c.134-.108.243-.242.322-.392a1.22 1.22 0 0 0 .138-.482zM86.59 13.64c0-1.684.9-2.75 2.297-2.75a1.88 1.88 0 0 1 .99.23c.3.165.546.41.707.704h.082V8.898h1.091v7.407h-1.046v-.842h-.086a1.888 1.888 0 0 1-.734.698 1.981 1.981 0 0 1-1.004.232c-1.407 0-2.296-1.067-2.296-2.754zm1.129 0c0 1.129.553 1.809 1.478 1.809.92 0 1.49-.69 1.49-1.805 0-1.11-.576-1.81-1.49-1.81-.92 0-1.478.684-1.478 1.805zM96.275 13.639c-.035-.35.007-.704.122-1.037.116-.334.302-.641.548-.901a2.62 2.62 0 0 1 .879-.61 2.708 2.708 0 0 1 2.12 0c.335.142.634.35.88.61s.432.567.547.9c.116.334.157.687.123 1.037.035.35-.006.705-.121 1.039a2.5 2.5 0 0 1-.547.902 2.63 2.63 0 0 1-.88.612 2.708 2.708 0 0 1-2.123 0 2.62 2.62 0 0 1-.88-.612 2.505 2.505 0 0 1-.547-.902 2.435 2.435 0 0 1-.12-1.038zm4.095 0c0-1.155-.538-1.83-1.484-1.83-.949 0-1.483.675-1.483 1.83 0 1.163.534 1.834 1.483 1.834.946 0 1.484-.675 1.484-1.835zM102.959 10.977h1.051v.846h.082c.138-.304.372-.559.668-.729.295-.17.639-.247.983-.22.269-.02.539.02.791.114.251.095.477.243.661.433.184.19.321.418.401.667.08.248.101.51.062.767v3.449h-1.092v-3.185c0-.856-.386-1.282-1.194-1.282a1.315 1.315 0 0 0-.535.088c-.17.066-.322.167-.448.295a1.19 1.19 0 0 0-.338.967v3.117h-1.092v-5.327zM113.827 9.65v1.351h1.199v.886h-1.199v2.74c0 .557.239.801.783.801.139 0 .278-.008.416-.024v.876a3.718 3.718 0 0 1-.594.054c-1.214 0-1.698-.412-1.698-1.439v-3.008h-.878V11h.878v-1.35h1.093zM116.518 8.898h1.082v2.936h.087c.145-.307.385-.563.686-.734.302-.17.652-.248 1-.22a1.89 1.89 0 0 1 .785.126c.248.097.471.246.653.435.182.19.319.416.399.662.081.246.105.507.069.763v3.439h-1.093v-3.18c0-.85-.412-1.282-1.183-1.282a1.337 1.337 0 0 0-.553.073 1.301 1.301 0 0 0-.47.29 1.234 1.234 0 0 0-.37.988v3.111h-1.092V8.898zM127.645 14.866a2.165 2.165 0 0 1-.908 1.19 2.311 2.311 0 0 1-1.489.351 2.602 2.602 0 0 1-1.062-.197 2.518 2.518 0 0 1-.877-.608 2.406 2.406 0 0 1-.531-.907 2.339 2.339 0 0 1-.086-1.037 2.382 2.382 0 0 1 .088-1.04c.106-.338.286-.648.528-.912a2.55 2.55 0 0 1 .874-.618 2.638 2.638 0 0 1 1.061-.213c1.54 0 2.468 1.012 2.468 2.685v.367h-3.906v.059a1.388 1.388 0 0 0 .386 1.077c.138.143.307.257.494.335.187.077.389.116.593.114.261.03.526-.015.76-.13a1.3 1.3 0 0 0 .556-.516h1.051zm-3.84-1.717h2.794a1.231 1.231 0 0 0-.074-.527 1.286 1.286 0 0 0-.289-.453 1.346 1.346 0 0 0-.456-.302 1.381 1.381 0 0 0-.543-.098 1.46 1.46 0 0 0-.551.1c-.175.07-.334.17-.467.3a1.351 1.351 0 0 0-.414.98z" fill="#000"/></svg>