<svg width="157" height="46" fill="none" xmlns="http://www.w3.org/2000/svg"><path d="M151.22 45.045H6.71c-3.18 0-5.78-2.528-5.78-5.618V5.72C.93 2.63 3.53.102 6.71.102h144.51c3.179 0 5.78 2.528 5.78 5.618v33.707c0 3.09-2.601 5.618-5.78 5.618z" fill="#fff"/><path d="M55.8 11.549c0 .947-.286 1.701-.86 2.264-.653.669-1.503 1.003-2.548 1.003-1 0-1.851-.339-2.55-1.018-.702-.678-1.051-1.52-1.051-2.524 0-1.005.35-1.846 1.05-2.525.7-.679 1.55-1.019 2.551-1.019.497 0 .972.095 1.423.285.452.19.814.442 1.085.758l-.61.596c-.459-.536-1.09-.804-1.898-.804-.73 0-1.36.25-1.893.753-.533.502-.799 1.154-.799 1.956s.266 1.453.799 1.956a2.667 2.667 0 0 0 1.893.753c.774 0 1.42-.252 1.937-.758.335-.329.53-.786.581-1.373h-2.518v-.815h3.36c.032.177.048.347.048.512" fill="#000"/><path d="M55.8 11.549h-.116c-.001.925-.277 1.644-.827 2.184h-.001v.001c-.632.646-1.444.968-2.465.97-.973-.002-1.789-.327-2.47-.986-.678-.66-1.014-1.466-1.016-2.444.002-.98.337-1.785 1.017-2.445.68-.659 1.496-.984 2.47-.986.481 0 .94.092 1.377.275.438.185.784.427 1.041.727l.089-.073-.082-.08-.61.597.082.08.09-.072c-.48-.563-1.155-.847-1.987-.846-.757 0-1.423.264-1.974.785-.556.523-.835 1.211-.834 2.037-.001.827.278 1.515.834 2.038.55.521 1.217.786 1.974.785.8.001 1.481-.264 2.018-.79.358-.352.561-.84.614-1.445l.011-.123h-2.528v-.588h3.244v-.113l-.114.02c.032.171.047.334.047.492h.231a2.92 2.92 0 0 0-.05-.532l-.017-.093h-3.572v1.04h2.633v-.113l-.115-.01c-.05.57-.236.998-.548 1.304-.496.484-1.106.723-1.854.725a2.547 2.547 0 0 1-1.814-.722c-.509-.481-.762-1.096-.763-1.874.001-.779.254-1.394.764-1.875a2.546 2.546 0 0 1 1.813-.722c.78.002 1.37.255 1.81.765l.08.094.699-.684.075-.073-.069-.08c-.284-.33-.662-.593-1.127-.788a3.761 3.761 0 0 0-1.468-.294c-1.028 0-1.914.353-2.633 1.052-.722.697-1.086 1.574-1.085 2.604 0 1.03.363 1.908 1.085 2.606.719.698 1.605 1.051 2.633 1.05 1.07.001 1.957-.346 2.63-1.038l-.083-.079.081.08c.599-.585.896-1.375.895-2.343H55.8m5.326-2.834h-3.158v2.151h2.847v.815h-2.847v2.15h3.157v.834h-4.047V7.882h4.047v.833z" fill="#000"/><path d="M61.126 8.715v-.113h-3.273v2.376H60.7v.589h-2.847v2.377h3.157v.607h-3.816V7.995h3.816v.72h.116v-.113.113h.115v-.946h-4.278v7.008h4.278v-1.06h-3.157v-1.924h2.847v-1.04h-2.847V8.827h3.157v-.113h-.115zm3.756 5.95h-.891v-5.95h-1.937v-.833h4.765v.833h-1.937v5.95" fill="#000"/><path d="M64.883 14.664v-.113h-.775v-5.95H62.17v-.606h4.533v.607h-1.936v6.062h.115v-.113.113H65V8.828h1.936v-1.06H61.94v1.06h1.937v5.95h1.122v-.114h-.115m5.383 0V7.882h.89v6.782h-.89" fill="#000"/><path d="M70.266 14.664h.116v-6.67h.66v6.557h-.776v.113h.116-.116v.113h1.006V7.77h-1.121v7.008h.115v-.113m4.842 0h-.891v-5.95H72.28v-.832h4.764v.833h-1.937v5.95" fill="#000"/><path d="M75.109 14.665v-.113h-.776v-5.95h-1.936v-.606h4.533v.607h-1.937v6.062h.116v-.113.113h.115V8.829h1.937v-1.06h-4.996v1.06h1.937v5.949h1.122v-.113h-.115m6.53-1.444c.512.508 1.14.762 1.883.762.742 0 1.37-.254 1.883-.762.513-.509.77-1.158.77-1.947 0-.79-.257-1.439-.77-1.947s-1.14-.762-1.883-.762c-.743 0-1.37.254-1.884.762-.512.508-.77 1.158-.77 1.947 0 .789.258 1.438.77 1.947zm4.425.568c-.682.685-1.53 1.027-2.542 1.027-1.014 0-1.861-.342-2.541-1.027-.682-.685-1.022-1.524-1.022-2.515 0-.992.34-1.83 1.022-2.515.68-.686 1.527-1.029 2.54-1.029 1.008 0 1.854.345 2.538 1.033.684.689 1.026 1.526 1.026 2.51 0 .992-.341 1.83-1.021 2.516z" fill="#000"/><path d="m81.638 13.22-.083.08c.533.528 1.197.797 1.966.796.77.001 1.434-.268 1.965-.796.536-.53.806-1.214.805-2.027 0-.812-.269-1.497-.805-2.026-.53-.529-1.196-.797-1.965-.796-.77-.001-1.433.267-1.966.796-.534.53-.804 1.214-.803 2.027 0 .812.269 1.497.803 2.026l.083-.08.082-.08c-.49-.487-.736-1.1-.736-1.867 0-.765.246-1.379.736-1.867.494-.488 1.085-.727 1.801-.729.716.002 1.308.241 1.801.729.491.488.736 1.102.737 1.867 0 .766-.246 1.38-.737 1.868-.493.488-1.085.727-1.8.729-.717-.002-1.308-.241-1.802-.73l-.082.08zm4.425.568-.082-.078c-.663.664-1.473.992-2.46.993-.987-.001-1.797-.33-2.459-.993l-.003-.004.004.004c-.662-.667-.988-1.47-.989-2.437.001-.966.327-1.77.989-2.436.66-.664 1.471-.992 2.458-.994.98.002 1.789.332 2.455 1 .664.669.992 1.47.993 2.43-.001.967-.328 1.77-.988 2.437l.082.078.083.079c.7-.704 1.055-1.577 1.054-2.594.001-1.01-.355-1.881-1.058-2.588-.704-.71-1.586-1.069-2.62-1.068-1.04-.001-1.925.356-2.625 1.063-.702.704-1.055 1.577-1.054 2.594 0 1.016.352 1.889 1.054 2.593l.003.003-.003-.003c.7.707 1.584 1.063 2.624 1.062 1.04.001 1.924-.355 2.625-1.062l-.083-.079zm2.272.877V7.882h1.084l3.37 5.277h.038l-.038-1.308V7.882h.891v6.783h-.93l-3.525-5.532h-.038l.038 1.307v4.225h-.89" fill="#000"/><path d="M88.335 14.662h.116V7.995h.904l3.37 5.275h.22l-.04-1.422V7.995h.66v6.554h-.75L89.29 9.02h-.222l.042 1.422v4.108h-.775v.114h.116-.116v.112h1.006v-4.338l-.038-1.308-.116.003v.113h.038v-.113l-.098.06 3.56 5.583h1.109V7.77h-1.123v4.082l.039 1.309.115-.003v-.113h-.038v.113l.098-.06-3.403-5.328H88.22v7.006h.115v-.113m36.237 19.213h2.156V19.747h-2.156v14.128zm19.42-9.039-2.471 6.125h-.074l-2.565-6.125h-2.323l3.847 8.561-2.193 4.763h2.249l5.928-13.324h-2.398zm-12.227 7.434c-.707 0-1.692-.345-1.692-1.2 0-1.09 1.228-1.508 2.286-1.508.949 0 1.393.2 1.97.473-.167 1.308-1.32 2.235-2.564 2.235zm.26-7.743c-1.561 0-3.178.673-3.847 2.163l1.914.782c.409-.782 1.17-1.037 1.97-1.037 1.115 0 2.249.655 2.267 1.819v.145c-.391-.218-1.226-.546-2.249-.546-2.062 0-4.163 1.109-4.163 3.181 0 1.89 1.692 3.109 3.587 3.109 1.45 0 2.248-.637 2.751-1.382h.074v1.09h2.081v-5.416c0-2.508-1.913-3.908-4.385-3.908zM118.7 26.556h-3.067v-4.843h3.067a2.475 2.475 0 0 1 2.527 2.421 2.488 2.488 0 0 1-2.527 2.422zm-.056-6.81h-5.166v14.13h2.155v-5.354h3.011c2.39 0 4.739-1.692 4.739-4.387 0-2.696-2.349-4.388-4.739-4.388zM90.472 32.274c-1.489 0-2.736-1.22-2.736-2.895 0-1.693 1.247-2.931 2.736-2.931 1.471 0 2.625 1.238 2.625 2.93 0 1.676-1.154 2.896-2.624 2.896zm2.476-6.646h-.074c-.484-.564-1.415-1.074-2.588-1.074-2.457 0-4.71 2.112-4.71 4.825 0 2.695 2.253 4.788 4.71 4.788 1.173 0 2.104-.51 2.588-1.092h.074v.692c0 1.84-1.005 2.822-2.624 2.822-1.322 0-2.141-.928-2.477-1.711l-1.88.764c.54 1.275 1.974 2.84 4.357 2.84 2.531 0 4.672-1.456 4.672-5.006v-8.63h-2.048v.782zm3.537 8.248h2.16V19.746h-2.16v14.13zm5.343-4.66a2.662 2.662 0 0 1 2.569-2.805c.856 0 1.582.419 1.824 1.02l-4.393 1.784zm6.701-1.603c-.409-1.075-1.657-3.059-4.207-3.059-2.532 0-4.635 1.948-4.635 4.807 0 2.694 2.085 4.806 4.877 4.806 2.253 0 3.556-1.347 4.096-2.13l-1.676-1.092c-.558.801-1.321 1.329-2.42 1.329-1.098 0-1.88-.492-2.383-1.457l6.571-2.658-.223-.546zm-52.353-1.584v2.04h4.989c-.149 1.146-.54 1.984-1.136 2.566-.725.71-1.86 1.493-3.853 1.493-3.071 0-5.473-2.421-5.473-5.425 0-3.005 2.402-5.426 5.473-5.426 1.657 0 2.867.637 3.76 1.456l1.471-1.438c-1.247-1.165-2.904-2.057-5.23-2.057-4.208 0-7.745 3.35-7.745 7.465 0 4.114 3.537 7.464 7.744 7.464 2.271 0 3.984-.727 5.324-2.093 1.378-1.348 1.806-3.241 1.806-4.77 0-.474-.037-.91-.112-1.275h-7.018zm12.802 6.245c-1.49 0-2.774-1.202-2.774-2.913 0-1.73 1.284-2.913 2.774-2.913 1.489 0 2.773 1.183 2.773 2.913 0 1.711-1.284 2.913-2.773 2.913zm0-7.72c-2.718 0-4.934 2.021-4.934 4.807 0 2.767 2.216 4.806 4.934 4.806 2.717 0 4.933-2.039 4.933-4.806 0-2.786-2.216-4.807-4.933-4.807zm10.761 7.72c-1.489 0-2.774-1.202-2.774-2.913 0-1.73 1.285-2.913 2.774-2.913 1.49 0 2.774 1.183 2.774 2.913 0 1.711-1.285 2.913-2.774 2.913zm0-7.72c-2.718 0-4.933 2.021-4.933 4.807 0 2.767 2.215 4.806 4.933 4.806s4.933-2.039 4.933-4.806c0-2.786-2.215-4.807-4.933-4.807z" fill="#000"/><path d="M13.152 8.574c-.388.342-.62.913-.62 1.67v-.17 25-.165c0 .7.199 1.24.535 1.588l.086.08c.272.24.621.368 1.021.368.39 0 .83-.122 1.295-.38l16.772-9.32L38 24.043c.733-.407 1.143-.931 1.212-1.465v-.002c-.069-.536-.48-1.06-1.211-1.467l-5.762-3.201-16.771-9.32c-.465-.259-.905-.381-1.297-.381-.4 0-.748.127-1.02.367z" fill="#00C1FF"/><path d="m13.153 36.576-.086-.08c-.336-.349-.534-.889-.534-1.589v.165-24.994.165c0-.758.23-1.328.619-1.67l14.316 14.002-14.315 14z" fill="url(#a)"/><path d="m32.24 27.242-4.772-4.67 4.772-4.668 5.762 3.201c.731.407 1.142.931 1.21 1.467v.002c-.068.534-.479 1.059-1.21 1.465l-5.761 3.203" fill="url(#b)"/><path d="M14.174 36.943c-.4 0-.75-.127-1.021-.368l14.315-14.003 4.772 4.67-16.772 9.322c-.464.257-.904.379-1.294.379z" fill="url(#c)"/><path d="M27.468 22.574 13.15 8.57c.272-.24.62-.367 1.02-.367.392 0 .832.122 1.297.38l16.772 9.322-4.773 4.669" fill="url(#d)"/><path d="M14.174 37.109c-.4 0-.75-.128-1.022-.368a.026.026 0 0 0-.004-.002l-.074-.072-.008-.007.086-.084c.272.24.621.368 1.021.367.391 0 .83-.121 1.295-.379l16.772-9.322.107.105-.108.06-16.771 9.322c-.423.235-.825.357-1.189.377l-.105.003" fill="url(#e)"/><path d="M13.068 36.66c-.337-.348-.535-.888-.535-1.588v-.164c0 .699.198 1.24.535 1.587l.085.08-.085.085z" fill="url(#f)"/><path d="m32.348 27.348-.107-.106L38 24.04c.733-.407 1.143-.931 1.212-1.466 0 .196-.045.393-.134.583-.179.385-.538.748-1.077 1.048l-5.654 3.143" fill="url(#g)"/><path d="M39.213 22.574c-.069-.536-.48-1.06-1.211-1.467l-5.762-3.202.108-.105 5.654 3.143c.806.448 1.21 1.04 1.21 1.63z" fill="url(#h)"/><path d="M12.533 10.244v-.172c0-.063.001-.124.005-.183v-.012c.035-.602.226-1.072.53-1.386l.084.083c-.388.342-.62.913-.62 1.67z" fill="url(#i)"/><path d="M32.24 17.907 15.467 8.585c-.465-.258-.905-.38-1.297-.38-.4 0-.748.127-1.02.367l-.085-.083c.027-.028.054-.054.083-.08l.003-.002c.27-.238.615-.365 1.01-.367h.009c.392 0 .832.122 1.297.38l16.88 9.381h-.001l-.108.106z" fill="url(#j)"/><defs><linearGradient id="a" x1="21.681" y1="9.814" x2="9.638" y2="22.167" gradientUnits="userSpaceOnUse"><stop stop-color="#00A0FF"/><stop offset=".007" stop-color="#00A1FF"/><stop offset=".26" stop-color="#00BEFF"/><stop offset=".512" stop-color="#00D2FF"/><stop offset=".76" stop-color="#00DFFF"/><stop offset="1" stop-color="#00E3FF"/></linearGradient><linearGradient id="b" x1="40.104" y1="22.491" x2="12.145" y2="22.491" gradientUnits="userSpaceOnUse"><stop stop-color="#FFE000"/><stop offset=".409" stop-color="#FFBD00"/><stop offset=".775" stop-color="orange"/><stop offset="1" stop-color="#FF9C00"/></linearGradient><linearGradient id="c" x1="29.706" y1="27.012" x2="9.291" y2="47.796" gradientUnits="userSpaceOnUse"><stop stop-color="#FF3A44"/><stop offset="1" stop-color="#C31162"/></linearGradient><linearGradient id="d" x1="9.461" y1="6.494" x2="18.559" y2="15.771" gradientUnits="userSpaceOnUse"><stop stop-color="#32A071"/><stop offset=".069" stop-color="#2DA771"/><stop offset=".476" stop-color="#15CF74"/><stop offset=".801" stop-color="#06E775"/><stop offset="1" stop-color="#00F076"/></linearGradient><linearGradient id="e" x1="29.695" y1="30.251" x2="13.349" y2="47.016" gradientUnits="userSpaceOnUse"><stop stop-color="#CC2E36"/><stop offset="1" stop-color="#9C0E4E"/></linearGradient><linearGradient id="f" x1="14.441" y1="9.822" x2="3.834" y2="20.712" gradientUnits="userSpaceOnUse"><stop stop-color="#008DE0"/><stop offset=".007" stop-color="#008DE0"/><stop offset=".26" stop-color="#00A7E0"/><stop offset=".512" stop-color="#00B8E0"/><stop offset=".76" stop-color="#00C4E0"/><stop offset="1" stop-color="#00C7E0"/></linearGradient><linearGradient id="g" x1="40.104" y1="22.573" x2="12.145" y2="22.573" gradientUnits="userSpaceOnUse"><stop stop-color="#E0C500"/><stop offset=".409" stop-color="#E0A600"/><stop offset=".775" stop-color="#E09100"/><stop offset="1" stop-color="#E08900"/></linearGradient><linearGradient id="h" x1="40.104" y1="22.575" x2="12.145" y2="22.575" gradientUnits="userSpaceOnUse"><stop stop-color="#FFE840"/><stop offset=".409" stop-color="#FFCE40"/><stop offset=".775" stop-color="#FFBC40"/><stop offset="1" stop-color="#FFB540"/></linearGradient><linearGradient id="i" x1="14.429" y1="9.834" x2="4.202" y2="19.88" gradientUnits="userSpaceOnUse"><stop stop-color="#40B8FF"/><stop offset=".007" stop-color="#40B9FF"/><stop offset=".26" stop-color="#40CEFF"/><stop offset=".512" stop-color="#40DDFF"/><stop offset=".76" stop-color="#40E7FF"/><stop offset="1" stop-color="#40EAFF"/></linearGradient><linearGradient id="j" x1="9.44" y1="9.457" x2="16.74" y2="16.943" gradientUnits="userSpaceOnUse"><stop stop-color="#65B895"/><stop offset=".069" stop-color="#62BD95"/><stop offset=".476" stop-color="#50DB97"/><stop offset=".801" stop-color="#44ED98"/><stop offset="1" stop-color="#40F498"/></linearGradient></defs></svg>