<svg width="827" height="464" fill="none" xmlns="http://www.w3.org/2000/svg"><mask id="b" fill="#fff"><path fill-rule="evenodd" clip-rule="evenodd" d="M793.183 0H34.582L1.242 33.29l-.864-.862v398.766l.863-.862 33.53 33.479-.189.189h758.601l-.19-.189 33.53-33.479V33.29L793.183 0z"/></mask><path d="m793.183 0 .707-.707-.293-.293h-.414v1zM34.582 0v-1h-.414l-.293.293.707.707zM1.242 33.29l-.707.708.706.705.707-.705-.707-.708zm-.864-.862.706-.708-1.706-1.704v2.412h1zm0 398.766h-1v2.412l1.706-1.704-.706-.708zm.863-.862.707-.708-.707-.705-.706.705.706.708zm33.53 33.479.707.708.71-.708-.71-.708-.706.708zm-.189.189-.706-.707-1.71 1.707h2.416v-1zm758.601 0v1h2.416l-1.71-1.707-.706.707zm-.19-.189-.706-.708-.709.708.709.708.706-.708zm33.53-33.479.707.707.293-.293v-.414h-1zm0-397.042h1v-.414l-.293-.293-.707.707zM793.183-1H34.582v2h758.601v-2zM33.875-.707.535 32.583l1.413 1.415L35.288.708 33.876-.707zM1.948 32.583l-.864-.863-1.413 1.415.864.863 1.413-1.415zm-2.57-.155v398.766h2V32.428h-2zm1.706 399.474.864-.863-1.413-1.415-.864.863 1.413 1.415zm-.55-.863 33.531 33.48 1.413-1.416-33.53-33.479-1.413 1.415zm33.531 32.064-.19.19 1.414 1.415.19-.189-1.414-1.416zm.517 1.897h758.601v-2h-758.6v2zm759.307-1.707-.189-.189-1.413 1.415.189.189 1.413-1.415zm-.189 1.226 33.53-33.48-1.413-1.415-33.53 33.479 1.413 1.416zm33.823-34.187V33.29h-2v397.042h2zm-.293-397.75L793.89-.707 792.476.709l33.341 33.29 1.413-1.415z" fill="url(#a)" mask="url(#b)"/><defs><linearGradient id="a" x1="413.451" y1="0" x2="413.451" y2="464" gradientUnits="userSpaceOnUse"><stop stop-color="#11D9EB"/><stop offset="1" stop-color="#D533CE"/></linearGradient></defs></svg>