<svg width="1482" height="48" fill="none" xmlns="http://www.w3.org/2000/svg"><path d="M14.9 22.25c.858-3.201 4.149-6.491 7.35-7.349l19.954-5.348c3.201-.858 5.1 1.042 4.243 4.243L41.099 33.75c-.858 3.2-4.148 6.49-7.349 7.348l-19.955 5.348c-3.2.858-5.1-1.042-4.242-4.242l5.348-19.955z" fill="#9E77ED"/><path d="M6.901 14.25c.858-3.201 4.148-6.491 7.349-7.349l19.955-5.348c3.2-.858 5.1 1.042 4.242 4.243L33.099 25.75c-.858 3.2-4.148 6.49-7.348 7.348L5.796 38.447c-3.201.858-5.1-1.042-4.243-4.242L6.901 14.25z" fill="#6941C6"/><path d="M64.989 31.748h6.864v2.687H61.659v-20.3h3.33v17.613zM73.527 26.315c0-1.616.331-3.048.993-4.294.682-1.246 1.597-2.21 2.746-2.892 1.168-.7 2.454-1.051 3.856-1.051 1.265 0 2.366.253 3.3.76.954.486 1.714 1.1 2.279 1.84V18.34h3.359v16.094H86.7V32.04c-.564.76-1.333 1.392-2.307 1.898-.974.507-2.084.76-3.33.76a7.15 7.15 0 0 1-3.797-1.052c-1.149-.72-2.064-1.713-2.746-2.979-.662-1.285-.993-2.736-.993-4.352zm13.174.058c0-1.11-.234-2.074-.701-2.891-.448-.818-1.042-1.441-1.782-1.87a4.7 4.7 0 0 0-2.395-.642 4.7 4.7 0 0 0-2.395.642c-.74.41-1.344 1.023-1.811 1.84-.448.799-.672 1.753-.672 2.863s.224 2.083.672 2.92c.467.838 1.07 1.48 1.81 1.929.76.428 1.558.642 2.396.642a4.7 4.7 0 0 0 2.395-.642c.74-.429 1.334-1.052 1.782-1.87.467-.837.7-1.81.7-2.92zM108.921 18.34 99.048 42h-3.446l3.271-7.828-6.338-15.831h3.71l4.527 12.268 4.702-12.268h3.447zM126.184 25.994c0 .603-.039 1.148-.116 1.635h-12.297c.097 1.285.574 2.318 1.431 3.096.857.78 1.908 1.169 3.154 1.169 1.792 0 3.058-.75 3.798-2.25h3.592c-.487 1.48-1.373 2.698-2.658 3.652-1.266.935-2.843 1.402-4.732 1.402-1.538 0-2.921-.34-4.147-1.022a7.637 7.637 0 0 1-2.863-2.921c-.681-1.266-1.022-2.726-1.022-4.382 0-1.655.331-3.106.993-4.352.682-1.265 1.626-2.24 2.833-2.92 1.227-.682 2.629-1.023 4.206-1.023 1.519 0 2.873.331 4.06.993a6.992 6.992 0 0 1 2.775 2.804c.662 1.188.993 2.56.993 4.119zm-3.475-1.052c-.02-1.227-.458-2.21-1.315-2.95-.857-.74-1.918-1.11-3.184-1.11-1.149 0-2.132.37-2.95 1.11-.818.72-1.304 1.704-1.46 2.95h8.909zM132.791 20.678a5.155 5.155 0 0 1 1.928-1.899c.818-.467 1.782-.701 2.892-.701v3.447h-.847c-1.305 0-2.298.33-2.98.993-.662.662-.993 1.81-.993 3.446v8.471h-3.33V18.341h3.33v2.337zM146.513 34.698c-1.266 0-2.405-.224-3.417-.672-.993-.467-1.782-1.09-2.366-1.87a4.731 4.731 0 0 1-.935-2.657h3.447c.058.681.379 1.256.964 1.723.603.448 1.353.672 2.249.672.934 0 1.655-.175 2.161-.526.526-.37.789-.837.789-1.402 0-.604-.292-1.052-.876-1.344-.565-.292-1.471-.613-2.717-.963-1.207-.331-2.191-.653-2.95-.964a5.3 5.3 0 0 1-1.986-1.432c-.545-.642-.818-1.49-.818-2.54a3.9 3.9 0 0 1 .759-2.337c.507-.721 1.227-1.286 2.162-1.695.954-.409 2.045-.613 3.271-.613 1.831 0 3.301.467 4.411 1.402 1.129.915 1.733 2.171 1.811 3.768h-3.33c-.058-.72-.351-1.295-.876-1.723-.526-.429-1.237-.643-2.133-.643-.876 0-1.548.166-2.015.497-.467.33-.701.769-.701 1.314 0 .428.156.789.467 1.08.312.293.692.526 1.14.702.447.155 1.109.36 1.986.613 1.168.312 2.122.633 2.862.964.76.312 1.412.779 1.957 1.402.545.623.828 1.45.847 2.483 0 .915-.253 1.733-.759 2.453-.506.72-1.227 1.286-2.162 1.694-.915.41-1.996.614-3.242.614z" fill="#fff"/><path d="M347.563 31.732c7.117 0 12.886-5.77 12.886-12.886 0-.807-.074-1.596-.216-2.362a12.962 12.962 0 0 0-2.361-.215c-7.117 0-12.887 5.769-12.887 12.886 0 .806.074 1.596.216 2.361.766.142 1.555.216 2.362.216z" fill="#175CD3"/><path fill-rule="evenodd" clip-rule="evenodd" d="M345.201 31.516c-5.989-1.11-10.525-6.36-10.525-12.67 0-7.118 5.769-12.887 12.886-12.887 6.311 0 11.562 4.536 12.671 10.525a12.964 12.964 0 0 0-2.362-.216c-7.116 0-12.886 5.77-12.886 12.886 0 .807.074 1.596.216 2.362z" fill="#1570EF"/><path fill-rule="evenodd" clip-rule="evenodd" d="M347.563 31.731c7.117 0 12.886-5.77 12.886-12.886 0-.807-.074-1.596-.216-2.362 5.989 1.11 10.525 6.36 10.525 12.67 0 7.118-5.769 12.887-12.886 12.887-6.311 0-11.562-4.535-12.671-10.525.766.142 1.555.216 2.362.216z" fill="#2E90FA"/><path d="M395.546 28.022c-.459 1.484-1.262 2.594-2.41 3.329-1.149.72-2.488 1.08-4.019 1.08-1.5 0-2.801-.315-3.903-.942-1.087-.628-1.929-1.523-2.526-2.687-.581-1.163-.872-2.556-.872-4.179 0-1.622.298-3.015.895-4.179.597-1.163 1.439-2.058 2.526-2.686 1.087-.628 2.365-.941 3.834-.941 1.546 0 2.871.329 3.973.987 1.117.643 1.882 1.622 2.296 2.939l-2.87 1.217c-.261-.919-.659-1.57-1.194-1.952-.536-.398-1.225-.597-2.067-.597-1.255 0-2.258.452-3.008 1.355-.735.888-1.102 2.174-1.102 3.857 0 1.669.352 2.955 1.056 3.858.704.903 1.722 1.354 3.054 1.354.827 0 1.539-.222 2.136-.665.612-.444 1.04-1.118 1.285-2.021l2.916.873zM399.51 19.067c-1.301 0-1.952-.559-1.952-1.677 0-1.132.651-1.699 1.952-1.699s1.952.567 1.952 1.7c0 1.117-.651 1.676-1.952 1.676zm1.561 1.653V32.2h-3.145V20.72h3.145zM404.406 32.2V20.72h2.732l.207 2.25c.291-.78.727-1.385 1.309-1.814.597-.444 1.347-.666 2.25-.666.536 0 .949.085 1.24.253l-.368 2.64a3.767 3.767 0 0 0-.574-.114 4.201 4.201 0 0 0-.849-.07 2.83 2.83 0 0 0-1.355.345c-.413.214-.758.551-1.033 1.01-.276.444-.413 1.01-.413 1.7V32.2h-3.146zM419.081 20.49c1.53 0 2.717.33 3.559.988.857.658 1.423 1.454 1.699 2.388l-2.939 1.056c-.307-1.393-1.064-2.09-2.274-2.09-.872 0-1.553.306-2.043.919-.475.612-.712 1.523-.712 2.732 0 1.225.245 2.136.735 2.732.505.582 1.186.873 2.043.873 1.332 0 2.128-.681 2.388-2.044l2.848.919c-.261 1.026-.842 1.86-1.745 2.503-.888.643-2.044.964-3.468.964-1.194 0-2.242-.237-3.145-.712a5.016 5.016 0 0 1-2.067-2.043c-.49-.888-.735-1.96-.735-3.215s.245-2.326.735-3.214a5.2 5.2 0 0 1 2.067-2.044c.888-.474 1.906-.712 3.054-.712zM432.064 20.49c1.148 0 2.166.238 3.054.712a5.008 5.008 0 0 1 2.066 2.044c.506.888.758 1.959.758 3.214s-.252 2.327-.758 3.215a5.008 5.008 0 0 1-2.066 2.043c-.888.475-1.906.712-3.054.712-1.163 0-2.189-.237-3.077-.712a5.203 5.203 0 0 1-2.066-2.043c-.49-.888-.735-1.96-.735-3.215s.245-2.326.735-3.214a5.203 5.203 0 0 1 2.066-2.044c.888-.474 1.914-.712 3.077-.712zm0 2.342c-.857 0-1.531.306-2.021.919-.474.597-.711 1.5-.711 2.71 0 1.209.237 2.12.711 2.732.49.597 1.164.895 2.021.895.842 0 1.5-.298 1.975-.895.49-.613.734-1.524.734-2.733 0-1.21-.244-2.112-.734-2.71-.475-.611-1.133-.918-1.975-.918zM445.809 20.49c1.148 0 2.166.238 3.054.712a5.016 5.016 0 0 1 2.067 2.044c.505.888.757 1.959.757 3.214s-.252 2.327-.757 3.215a5.016 5.016 0 0 1-2.067 2.043c-.888.475-1.906.712-3.054.712-1.163 0-2.189-.237-3.076-.712a5.2 5.2 0 0 1-2.067-2.043c-.49-.888-.735-1.96-.735-3.215s.245-2.326.735-3.214a5.2 5.2 0 0 1 2.067-2.044c.887-.474 1.913-.712 3.076-.712zm0 2.342c-.857 0-1.53.306-2.02.919-.475.597-.712 1.5-.712 2.71 0 1.209.237 2.12.712 2.732.49.597 1.163.895 2.02.895.842 0 1.5-.298 1.975-.895.49-.613.735-1.524.735-2.733 0-1.21-.245-2.112-.735-2.71-.475-.611-1.133-.918-1.975-.918zM457.419 15.691v12.973c0 .536.092.911.276 1.126.183.214.49.321.918.321.26 0 .475-.015.643-.046.169-.03.383-.092.643-.184l-.275 2.067c-.261.153-.59.268-.988.344a4.894 4.894 0 0 1-1.148.138c-1.117 0-1.936-.268-2.457-.803-.505-.552-.757-1.424-.757-2.618V15.69h3.145zM466.979 32.43c-1.806 0-3.253-.52-4.34-1.561-1.087-1.056-1.63-2.526-1.63-4.409 0-1.255.245-2.326.735-3.214a5.048 5.048 0 0 1 2.043-2.044c.888-.474 1.898-.712 3.031-.712 1.163 0 2.151.238 2.962.712a4.65 4.65 0 0 1 1.86 1.906c.429.796.643 1.707.643 2.732 0 .306-.008.597-.023.873-.015.275-.038.52-.069.735h-8.105c.122.887.428 1.553.918 1.997.505.429 1.156.643 1.952.643.673 0 1.217-.13 1.63-.39.413-.26.735-.62.964-1.08l2.503.965c-.367.903-1.01 1.607-1.929 2.112-.918.49-1.967.735-3.145.735zm-.184-9.62c-1.485 0-2.38.818-2.686 2.456h5.166c-.092-.796-.352-1.4-.781-1.814-.413-.428-.979-.643-1.699-.643zM479.541 32.43c-1.163 0-2.227-.206-3.192-.62-.949-.413-1.722-.995-2.319-1.745l1.814-1.837a4.322 4.322 0 0 0 1.47 1.355c.612.352 1.339.528 2.181.528.597 0 1.071-.084 1.424-.253.367-.183.551-.466.551-.85a.845.845 0 0 0-.253-.62c-.168-.183-.505-.328-1.01-.435l-2.021-.414c-1.332-.275-2.281-.689-2.847-1.24-.551-.566-.827-1.293-.827-2.18 0-.628.184-1.218.551-1.769.383-.55.95-.995 1.7-1.332.75-.352 1.683-.528 2.801-.528 2.327 0 3.995.712 5.005 2.136l-1.882 1.837a3.288 3.288 0 0 0-1.332-1.217 3.51 3.51 0 0 0-1.699-.437c-1.347 0-2.021.375-2.021 1.125 0 .245.107.46.322.643.214.169.604.314 1.171.437l2.342.482c1.132.23 1.944.62 2.434 1.17.489.537.734 1.187.734 1.953 0 1.102-.444 2.012-1.331 2.732-.873.72-2.128 1.08-3.766 1.08z" fill="#fff"/><path fill-rule="evenodd" clip-rule="evenodd" d="M684.404 33.124c5.56 0 10.068-4.507 10.068-10.067 0-5.56-4.508-10.067-10.068-10.067s-10.067 4.507-10.067 10.067c0 5.56 4.507 10.067 10.067 10.067zm0 7.7c9.812 0 17.766-7.955 17.766-17.767s-7.954-17.766-17.766-17.766c-9.812 0-17.766 7.954-17.766 17.766 0 9.812 7.954 17.766 17.766 17.766z" fill="#6938EF"/><path d="M684.607 23.446a4.738 4.738 0 0 1 6.7 0l9.213 9.212a4.738 4.738 0 0 1-6.7 6.7l-9.213-9.212a4.738 4.738 0 0 1 0-6.7z" fill="#F670C7"/><path d="m687.194 32.732 5.851 5.85a17.849 17.849 0 0 0 6.751-6.648l-5.803-5.803a10.09 10.09 0 0 1-6.799 6.6z" fill="#6519BA"/><path d="M730.854 32.828a5.037 5.037 0 0 1-1.876 1.447c-.724.332-1.523.498-2.397.498-1.176 0-2.239-.257-3.188-.77-.95-.497-2.035-1.386-3.256-2.667-1.432-.181-2.714-.641-3.844-1.38a7.917 7.917 0 0 1-2.623-2.849c-.618-1.176-.927-2.472-.927-3.889 0-1.553.369-2.947 1.108-4.183a7.96 7.96 0 0 1 3.097-2.94c1.327-.708 2.812-1.062 4.455-1.062 1.643 0 3.12.354 4.432 1.063a7.96 7.96 0 0 1 3.097 2.939c.754 1.236 1.131 2.63 1.131 4.183 0 1.84-.52 3.452-1.56 4.839-1.025 1.387-2.389 2.352-4.093 2.894.377.392.739.671 1.085.837.362.18.747.271 1.154.271.979 0 1.839-.392 2.577-1.176l1.628 1.945zm-14.403-9.61c0 .98.211 1.854.633 2.623a4.79 4.79 0 0 0 1.786 1.809c.754.422 1.598.633 2.533.633.934 0 1.779-.211 2.532-.633a4.623 4.623 0 0 0 1.764-1.809c.437-.769.656-1.643.656-2.623 0-.98-.219-1.854-.656-2.623a4.468 4.468 0 0 0-1.764-1.786c-.753-.437-1.598-.656-2.532-.656-.935 0-1.779.219-2.533.656a4.626 4.626 0 0 0-1.786 1.786c-.422.769-.633 1.643-.633 2.623zM744.823 18.967v12.165h-3.347v-1.447a4.799 4.799 0 0 1-1.673 1.22 5.388 5.388 0 0 1-2.103.408c-1.598 0-2.864-.46-3.799-1.38-.934-.919-1.402-2.283-1.402-4.092v-6.874h3.528v6.354c0 1.96.821 2.94 2.464 2.94.845 0 1.523-.272 2.035-.815.513-.557.769-1.379.769-2.464v-6.015h3.528zM753.879 31.313c-1.281 0-2.435-.264-3.46-.791a6.066 6.066 0 0 1-2.374-2.239c-.573-.95-.859-2.027-.859-3.233s.286-2.284.859-3.234a5.907 5.907 0 0 1 2.374-2.216c1.025-.542 2.179-.814 3.46-.814 1.281 0 2.427.272 3.437.814a5.907 5.907 0 0 1 2.374 2.216c.573.95.859 2.028.859 3.234s-.286 2.283-.859 3.233a6.066 6.066 0 0 1-2.374 2.238c-1.01.528-2.156.792-3.437.792zm0-2.894c.904 0 1.643-.302 2.216-.905.588-.618.882-1.44.882-2.464 0-1.026-.294-1.84-.882-2.442-.573-.619-1.312-.928-2.216-.928-.905 0-1.651.31-2.239.928-.588.602-.881 1.416-.881 2.442 0 1.025.293 1.846.881 2.464.588.603 1.334.905 2.239.905zM770.753 30.544c-.347.256-.776.452-1.289.588-.497.12-1.025.18-1.582.18-1.448 0-2.571-.368-3.37-1.107-.783-.739-1.175-1.824-1.175-3.256v-4.997h-1.877v-2.714h1.877v-2.962h3.527v2.962h3.03v2.714h-3.03v4.952c0 .512.128.912.384 1.198.272.271.649.407 1.131.407.558 0 1.033-.15 1.424-.452l.95 2.487zM772.733 18.967h3.528v12.165h-3.528V18.967zm1.764-1.696c-.648 0-1.176-.188-1.583-.565a1.833 1.833 0 0 1-.61-1.402c0-.558.203-1.025.61-1.402s.935-.565 1.583-.565c.648 0 1.176.18 1.583.543.407.361.61.814.61 1.356 0 .588-.203 1.078-.61 1.47-.407.377-.935.565-1.583.565zM791.45 25.095c0 .045-.022.362-.067.95h-9.203c.166.753.558 1.349 1.176 1.786.618.437 1.386.655 2.306.655.633 0 1.191-.09 1.673-.27a4.21 4.21 0 0 0 1.38-.905l1.876 2.035c-1.145 1.311-2.819 1.967-5.019 1.967-1.372 0-2.586-.264-3.641-.791-1.055-.543-1.869-1.29-2.442-2.239-.573-.95-.859-2.027-.859-3.233 0-1.191.279-2.262.836-3.211a5.943 5.943 0 0 1 2.329-2.239c.995-.542 2.103-.814 3.324-.814 1.191 0 2.269.256 3.234.769a5.525 5.525 0 0 1 2.261 2.216c.558.95.836 2.058.836 3.324zm-6.308-3.64c-.799 0-1.47.226-2.012.678-.543.452-.875 1.07-.995 1.854h5.992c-.121-.769-.453-1.38-.995-1.832-.543-.467-1.206-.7-1.99-.7zM801.193 18.786c1.507 0 2.721.452 3.64 1.357.935.904 1.402 2.246 1.402 4.025v6.964h-3.527V24.71c0-.964-.211-1.68-.633-2.148-.422-.482-1.033-.723-1.832-.723-.889 0-1.598.279-2.125.836-.528.543-.792 1.357-.792 2.442v6.015h-3.527V18.967h3.369v1.425a4.566 4.566 0 0 1 1.741-1.176 5.926 5.926 0 0 1 2.284-.43zM817.279 30.544c-.347.256-.777.452-1.289.588-.498.12-1.025.18-1.583.18-1.447 0-2.57-.368-3.369-1.107-.784-.739-1.176-1.824-1.176-3.256v-4.997h-1.877v-2.714h1.877v-2.962h3.528v2.962h3.029v2.714h-3.029v4.952c0 .512.128.912.384 1.198.271.271.648.407 1.13.407.558 0 1.033-.15 1.425-.452l.95 2.487zM1025.62 24.001a15.05 15.05 0 0 1-11.25 5.031c-4.47 0-8.48-1.943-11.25-5.031 2.77-3.088 6.78-5.031 11.25-5.031s8.49 1.943 11.25 5.031z" fill="#fff"/><path fill-rule="evenodd" clip-rule="evenodd" d="M999.279 34.064c0-8.337 6.761-15.094 15.091-15.094-4.47 0-8.48 1.943-11.25 5.031 2.77 3.088 6.78 5.031 11.25 5.031s8.49-1.943 11.25-5.031a15.044 15.044 0 0 1 3.85 10.063v5.702c0 .74-.6 1.342-1.35 1.342h-27.5c-.741 0-1.341-.601-1.341-1.342v-5.702zM1025.62 24z" fill="#7CD4FD"/><path fill-rule="evenodd" clip-rule="evenodd" d="M1008.71 27.934a15.207 15.207 0 0 1-5.59-3.934c2.77-3.088 6.78-5.031 11.25-5.031s8.49 1.943 11.25 5.031a15.044 15.044 0 0 0 3.85-10.063V8.235c0-.74-.6-1.341-1.35-1.341h-27.5c-.74 0-1.341.6-1.341 1.341v5.702c0 6.334 3.901 11.757 9.431 13.997z" fill="#0BA5EC"/><path d="M1053.04 16.58v15.197h-3.05v-6.466h-6.51v6.466h-3.04V16.58h3.04v6.249h6.51V16.58h3.05zM1061.4 31.973c-1.16 0-2.21-.254-3.14-.762a5.731 5.731 0 0 1-2.2-2.199c-.52-.943-.78-2.032-.78-3.266 0-1.233.27-2.322.81-3.265.55-.944 1.3-1.67 2.24-2.178.94-.522 1.99-.783 3.16-.783 1.16 0 2.21.26 3.15.783a5.44 5.44 0 0 1 2.22 2.178c.55.943.83 2.032.83 3.265 0 1.234-.28 2.323-.85 3.266a5.75 5.75 0 0 1-2.26 2.2c-.95.507-2.01.761-3.18.761zm0-2.656c.55 0 1.07-.13 1.54-.392.5-.276.89-.682 1.18-1.22.29-.536.44-1.19.44-1.959 0-1.146-.31-2.024-.92-2.634-.59-.624-1.33-.936-2.2-.936-.87 0-1.6.312-2.2.936-.58.61-.87 1.488-.87 2.634 0 1.147.29 2.032.85 2.657.58.61 1.31.914 2.18.914zM1081.31 19.716v12.061h-3.07v-1.524c-.39.523-.9.936-1.54 1.241-.63.29-1.31.436-2.05.436-.94 0-1.78-.196-2.5-.588-.73-.407-1.3-.994-1.72-1.764-.41-.784-.61-1.712-.61-2.787v-7.075h3.05v6.64c0 .958.24 1.698.71 2.22.48.509 1.14.763 1.96.763.85 0 1.51-.254 1.98-.762.48-.523.72-1.263.72-2.221v-6.64h3.07zM1087.37 21.588c.39-.639.9-1.14 1.52-1.502.64-.363 1.37-.545 2.18-.545v3.2h-.81c-.95 0-1.68.226-2.17.676-.48.45-.72 1.233-.72 2.351v6.01h-3.05V19.715h3.05v1.872zM1097.85 19.52c.9 0 1.69.181 2.37.544.68.348 1.22.805 1.61 1.372v-1.72h3.07v12.148c0 1.118-.22 2.112-.67 2.983-.45.885-1.13 1.582-2.03 2.09-.9.523-1.99.784-3.26.784-1.72 0-3.12-.4-4.23-1.198-1.09-.798-1.7-1.887-1.85-3.265h3.03c.16.551.5.987 1.02 1.306.54.334 1.18.5 1.94.5.88 0 1.6-.268 2.15-.805.56-.522.83-1.32.83-2.395v-1.872c-.39.566-.93 1.038-1.63 1.415-.68.377-1.47.566-2.35.566-1.02 0-1.95-.261-2.79-.784-.84-.522-1.51-1.255-2-2.199-.48-.958-.72-2.053-.72-3.287 0-1.22.24-2.3.72-3.244.49-.944 1.15-1.67 1.98-2.177.84-.508 1.78-.762 2.81-.762zm3.98 6.226c0-.74-.14-1.371-.43-1.894a3.009 3.009 0 0 0-1.18-1.219 3.065 3.065 0 0 0-1.59-.435c-.56 0-1.09.137-1.57.413-.48.276-.87.682-1.17 1.22-.29.522-.44 1.146-.44 1.872 0 .726.15 1.364.44 1.916.3.537.69.95 1.17 1.24.5.291 1.02.436 1.57.436.57 0 1.1-.138 1.59-.414.49-.29.89-.696 1.18-1.219.29-.537.43-1.175.43-1.916zM1110.93 15.666v16.111h-3.05V15.666h3.05zM1113.15 25.703c0-1.22.24-2.3.72-3.244.5-.944 1.16-1.67 1.98-2.177a5.358 5.358 0 0 1 2.81-.762c.9 0 1.69.181 2.35.544.69.363 1.23.82 1.64 1.372v-1.72h3.07v12.061h-3.07v-1.763c-.4.566-.94 1.037-1.64 1.415-.68.363-1.47.544-2.37.544-1.02 0-1.94-.261-2.79-.784-.82-.522-1.48-1.255-1.98-2.199-.48-.958-.72-2.053-.72-3.287zm9.5.043c0-.74-.15-1.371-.44-1.894a2.987 2.987 0 0 0-1.17-1.219c-.5-.29-1.03-.435-1.59-.435-.57 0-1.09.137-1.57.413-.48.276-.87.682-1.18 1.22-.29.522-.43 1.146-.43 1.872 0 .726.14 1.364.43 1.916.31.537.7.95 1.18 1.24.49.291 1.01.436 1.57.436s1.09-.138 1.59-.414c.49-.29.88-.696 1.17-1.219.29-.537.44-1.175.44-1.916zM1133.31 31.973c-.99 0-1.87-.174-2.66-.522-.78-.363-1.41-.85-1.87-1.46-.45-.609-.7-1.284-.74-2.024h3.07c.06.465.28.85.67 1.154.41.305.91.457 1.51.457.58 0 1.03-.116 1.35-.348.33-.232.5-.53.5-.893 0-.392-.21-.682-.61-.87-.39-.204-1.03-.422-1.9-.654-.9-.217-1.64-.442-2.22-.675a3.987 3.987 0 0 1-1.48-1.067c-.4-.479-.61-1.124-.61-1.937 0-.668.19-1.277.57-1.83.39-.55.94-.986 1.65-1.305.73-.32 1.58-.48 2.55-.48 1.44 0 2.58.364 3.44 1.09.86.71 1.33 1.676 1.42 2.895h-2.92a1.529 1.529 0 0 0-.61-1.132c-.35-.29-.82-.436-1.42-.436-.55 0-.98.102-1.28.305a.983.983 0 0 0-.44.85c0 .406.21.718.61.935.41.204 1.04.414 1.9.632.87.217 1.59.442 2.15.675.57.232 1.06.595 1.46 1.088.42.48.64 1.118.66 1.916 0 .697-.2 1.321-.59 1.873-.38.551-.93.987-1.66 1.306-.71.305-1.54.457-2.5.457zM1145.17 31.973c-.98 0-1.87-.174-2.65-.522-.79-.363-1.41-.85-1.88-1.46a3.763 3.763 0 0 1-.74-2.024h3.07c.06.465.29.85.68 1.154.41.305.91.457 1.5.457.58 0 1.03-.116 1.35-.348.33-.232.5-.53.5-.893 0-.392-.2-.682-.61-.87-.39-.204-1.02-.422-1.89-.654-.9-.217-1.64-.442-2.22-.675a3.908 3.908 0 0 1-1.48-1.067c-.41-.479-.61-1.124-.61-1.937 0-.668.19-1.277.56-1.83.4-.55.95-.986 1.66-1.305.72-.32 1.57-.48 2.55-.48 1.43 0 2.58.364 3.44 1.09.85.71 1.32 1.676 1.41 2.895h-2.92c-.04-.48-.24-.857-.61-1.132-.35-.29-.82-.436-1.41-.436-.55 0-.98.102-1.29.305-.29.203-.43.486-.43.85 0 .406.2.718.61.935.4.204 1.04.414 1.89.632.87.217 1.59.442 2.16.675.56.232 1.05.595 1.46 1.088.42.48.63 1.118.65 1.916 0 .697-.2 1.321-.59 1.873-.38.551-.93.987-1.65 1.306-.71.305-1.55.457-2.51.457z" fill="#fff"/><path d="M1352.59 3.328c-11.42 0-20.67 9.255-20.67 20.672 0 11.416 9.25 20.672 20.67 20.672 10.24 0 18.75-7.45 20.39-17.227h-.15c-1.53 5.944-6.93 10.336-13.35 10.336-7.61 0-13.78-6.17-13.78-13.781 0-7.611 6.17-13.781 13.78-13.781 6.42 0 11.82 4.392 13.35 10.336h.15c-1.64-9.777-10.15-17.227-20.39-17.227z" fill="#A4BCFD"/><path d="M1331.92 24c0-11.417 9.25-20.672 20.67-20.672 10.24 0 18.75 7.45 20.39 17.227h-13.93c-1.53-5.944-6.93-10.336-13.35-10.336-7.61 0-13.78 6.17-13.78 13.78zM1331.92 24c0 11.417 9.25 20.672 20.67 20.672 10.24 0 18.75-7.45 20.39-17.227h-13.93c-1.53 5.944-6.93 10.336-13.35 10.336-7.61 0-13.78-6.17-13.78-13.78z" fill="#3538CD"/><path d="M1402.8 20.718c-.59-4.25-3.86-6.717-8.1-6.717-5 0-8.76 3.644-8.76 9.829 0 6.175 3.72 9.828 8.76 9.828 4.55 0 7.57-2.943 8.1-6.596l-3.49-.018c-.44 2.242-2.27 3.503-4.56 3.503-3.1 0-5.33-2.326-5.33-6.717 0-4.317 2.21-6.718 5.34-6.718 2.33 0 4.15 1.318 4.55 3.607h3.49zM1409.96 33.686c2.25 0 3.59-1.055 4.21-2.26h.11v1.97h3.25v-9.604c0-3.793-3.09-4.933-5.83-4.933-3.01 0-5.33 1.346-6.08 3.962l3.16.448c.34-.98 1.29-1.822 2.94-1.822 1.57 0 2.43.804 2.43 2.215v.056c0 .971-1.02 1.018-3.55 1.289-2.78.299-5.44 1.13-5.44 4.363 0 2.821 2.06 4.316 4.8 4.316zm.88-2.485c-1.41 0-2.42-.645-2.42-1.887 0-1.299 1.13-1.84 2.64-2.055.89-.122 2.66-.346 3.1-.701v1.69c0 1.598-1.29 2.953-3.32 2.953zM1428.1 19.046h-2.83v-3.438h-3.38v3.438h-2.04v2.616h2.04v7.979c-.02 2.7 1.94 4.027 4.48 3.952.97-.028 1.63-.215 1.99-.336l-.57-2.644c-.18.046-.57.13-.99.13-.85 0-1.53-.299-1.53-1.663v-7.418h2.83v-2.616zM1435.06 33.686c2.25 0 3.6-1.055 4.21-2.26h.12v1.97h3.25v-9.604c0-3.793-3.1-4.933-5.83-4.933-3.02 0-5.34 1.346-6.09 3.962l3.16.448c.34-.98 1.29-1.822 2.95-1.822 1.57 0 2.42.804 2.42 2.215v.056c0 .971-1.01 1.018-3.55 1.289-2.78.299-5.44 1.13-5.44 4.363 0 2.821 2.06 4.316 4.8 4.316zm.88-2.485c-1.41 0-2.42-.645-2.42-1.887 0-1.299 1.13-1.84 2.64-2.055.89-.122 2.66-.346 3.1-.701v1.69c0 1.598-1.29 2.953-3.32 2.953zM1449.42 14.263h-3.38v19.134h3.38V14.263zM1459.16 33.677c4.2 0 6.87-2.962 6.87-7.4 0-4.447-2.67-7.418-6.87-7.418-4.21 0-6.88 2.971-6.88 7.418 0 4.438 2.67 7.4 6.88 7.4zm.02-2.71c-2.33 0-3.47-2.073-3.47-4.699 0-2.625 1.14-4.727 3.47-4.727 2.28 0 3.42 2.102 3.42 4.727 0 2.625-1.14 4.7-3.42 4.7zM1475.15 39.077c3.87 0 6.73-1.775 6.73-5.447V19.046h-3.33v2.373h-.19c-.51-1.037-1.59-2.56-4.12-2.56-3.32 0-5.92 2.598-5.92 7.316 0 4.68 2.6 7.016 5.91 7.016 2.46 0 3.61-1.317 4.13-2.373h.17v2.719c0 2.111-1.4 2.98-3.33 2.98-2.04 0-2.93-.962-3.34-1.803l-3.05.738c.62 2.009 2.68 3.625 6.34 3.625zm.02-8.54c-2.23 0-3.41-1.737-3.41-4.381 0-2.607 1.16-4.522 3.41-4.522 2.18 0 3.38 1.803 3.38 4.522 0 2.738-1.22 4.382-3.38 4.382z" fill="#fff"/></svg>