<svg width="238" height="65" fill="none" xmlns="http://www.w3.org/2000/svg"><g opacity=".05" filter="url(#a)"><rect width="237.9" height="65" rx="32.5" fill="url(#b)"/><rect x=".65" y=".65" width="236.6" height="63.7" rx="31.85" stroke="#fff" stroke-width="1.3"/></g><g clip-path="url(#c)"><path d="M106.252 25.613a9.1 9.1 0 0 1-2.608.715 4.555 4.555 0 0 0 1.997-2.514 9.077 9.077 0 0 1-2.884 1.102 4.542 4.542 0 0 0-7.457 1.235 4.543 4.543 0 0 0-.283 2.909 12.9 12.9 0 0 1-9.362-4.746 4.544 4.544 0 0 0 1.406 6.064 4.53 4.53 0 0 1-2.057-.568v.058a4.544 4.544 0 0 0 3.643 4.454 4.575 4.575 0 0 1-2.05.078 4.544 4.544 0 0 0 4.242 3.153 9.114 9.114 0 0 1-5.641 1.945c-.362 0-.724-.02-1.084-.063a12.846 12.846 0 0 0 6.961 2.04c8.356 0 12.924-6.92 12.924-12.922 0-.195-.005-.392-.014-.587a9.219 9.219 0 0 0 2.265-2.35l.002-.003z" fill="#fff"/></g><path d="M53.947 24.424 36.66 31.09c-1.18.474-1.173 1.132-.216 1.426l4.438 1.384 10.269-6.479c.485-.295.929-.136.564.187l-8.32 7.509h-.001.002l-.307 4.576c.449 0 .647-.206.898-.449l2.156-2.096 4.484 3.312c.827.455 1.42.221 1.626-.766l2.944-13.872c.301-1.208-.461-1.755-1.25-1.398zM196.448 24.954a9.901 9.901 0 0 0-.517 1.073 14.3 14.3 0 0 0-4.466 0 9.894 9.894 0 0 0-.516-1.073 15.6 15.6 0 0 0-4.027 1.268 16.901 16.901 0 0 0-2.925 11.3 16.183 16.183 0 0 0 4.943 2.525c.406-.536.768-1.103 1.082-1.696a9.417 9.417 0 0 1-1.667-.81c.145-.096.282-.203.41-.321a11.367 11.367 0 0 0 9.867 0c.136.117.273.224.409.321-.53.322-1.088.596-1.667.82.302.606.654 1.187 1.053 1.735a16.02 16.02 0 0 0 4.933-2.525 16.784 16.784 0 0 0-2.925-11.3 15.683 15.683 0 0 0-3.987-1.317zm-5.987 10.286a1.89 1.89 0 0 1-1.755-1.95 1.88 1.88 0 0 1 1.755-1.95 1.883 1.883 0 0 1 1.755 1.95 1.884 1.884 0 0 1-1.755 1.95zm6.474 0a1.89 1.89 0 0 1-1.755-1.95 1.88 1.88 0 0 1 1.755-1.95 1.87 1.87 0 0 1 1.755 1.95 1.87 1.87 0 0 1-1.755 1.95z" fill="#fff"/><g clip-path="url(#d)"><path d="M145.8 32.5c0 3.635-2.955 6.581-6.601 6.581a6.59 6.59 0 0 1-6.598-6.58c0-3.637 2.954-6.582 6.598-6.582a6.587 6.587 0 0 1 6.096 4.06c.332.799.503 1.656.505 2.521zm7.239 0c0 3.422-1.477 6.195-3.299 6.195-1.823 0-3.3-2.774-3.3-6.195 0-3.422 1.477-6.195 3.3-6.195 1.822 0 3.299 2.774 3.299 6.195zm2.962 0c0 3.066-.52 5.55-1.162 5.55-.64 0-1.159-2.486-1.159-5.55 0-3.065.519-5.55 1.161-5.55.64 0 1.16 2.485 1.16 5.55z" fill="#fff"/></g><defs><clipPath id="c"><path fill="#fff" transform="translate(83.2 20.8)" d="M0 0h23.4v23.4H0z"/></clipPath><clipPath id="d"><path fill="#fff" transform="translate(132.6 20.8)" d="M0 0h23.4v23.4H0z"/></clipPath><linearGradient id="b" x1="118.95" y1="0" x2="118.95" y2="65" gradientUnits="userSpaceOnUse"><stop stop-color="#567BFF"/><stop offset="1" stop-color="#5578F8" stop-opacity="0"/></linearGradient><filter id="a" x="-10" y="-10" width="257.9" height="85" filterUnits="userSpaceOnUse" color-interpolation-filters="sRGB"><feFlood flood-opacity="0" result="BackgroundImageFix"/><feGaussianBlur in="BackgroundImage" stdDeviation="5"/><feComposite in2="SourceAlpha" operator="in" result="effect1_backgroundBlur_770_90"/><feBlend in="SourceGraphic" in2="effect1_backgroundBlur_770_90" result="shape"/></filter></defs></svg>