<svg width="304" height="48" fill="none" xmlns="http://www.w3.org/2000/svg"><path d="m303.197 24.752-11.542.344 6.07 9.823 5.472-10.167zm-302.152 0 .606.795h.001l.008-.007.035-.026.144-.106c.129-.095.324-.236.583-.42.517-.366 1.291-.9 2.308-1.563 2.033-1.326 5.034-3.169 8.893-5.22A141.133 141.133 0 0 1 46.159 5.82C73.493-.852 110.974-1.13 151.587 24.52l1.068-1.69C111.504-3.16 73.448-2.9 45.685 3.876a143.138 143.138 0 0 0-33.002 12.561c-3.916 2.084-6.969 3.957-9.046 5.312a76.17 76.17 0 0 0-2.371 1.606 42.578 42.578 0 0 0-.769.556l-.041.032-.011.008-.003.002c-.001.001-.002.002.603.797zm150.542-.23c66.081 41.735 124.118 17.157 144.438 5.835l-.974-1.747c-20.036 11.164-77.216 35.387-142.396-5.78l-1.068 1.691z" fill="url(#a)"/><defs><linearGradient id="a" x1="1.045" y1="46.91" x2="259.786" y2="-84.485" gradientUnits="userSpaceOnUse"><stop offset=".001" stop-color="#E42BC8"/><stop offset=".472" stop-color="#4663FE"/><stop offset="1" stop-color="#1DCEF4"/></linearGradient></defs></svg>