<svg width="48" height="48" fill="none" xmlns="http://www.w3.org/2000/svg"><path d="M14.923 33.705c-.675-.39-1.514-.732-2.401-1.094a44.681 44.681 0 0 1-1.66-.703L4.802 42.93c-.43.784-.063 1.296.817 1.14l2.777-.495c.88-.157 1.871.395 2.202 1.225l1.019 2.551c.33.83.954.87 1.385.086l5.928-10.788c-.708-.475-1.36-.988-1.962-1.464-.726-.572-1.412-1.113-2.046-1.48zM43.197 42.93l-6.059-11.023c-.557.254-1.117.483-1.66.704-.887.362-1.726.703-2.402 1.094-.633.367-1.32.908-2.045 1.48-.603.475-1.254.989-1.963 1.464l5.93 10.787c.43.784 1.053.745 1.384-.085l1.019-2.551c.33-.83 1.322-1.382 2.202-1.225l2.777.494c.88.157 1.247-.355.817-1.139zM16.144 31.595c2.479 1.434 4.787 4.377 7.856 4.377s5.377-2.943 7.855-4.377c2.557-1.48 6.244-2.057 7.723-4.614 1.434-2.479.133-5.926.133-8.995 0-3.07 1.301-6.517-.133-8.995-1.48-2.557-5.166-3.135-7.723-4.614C29.377 2.943 27.07 0 24 0c-3.07 0-5.377 2.943-7.856 4.377-2.557 1.48-6.243 2.057-7.723 4.614-1.434 2.478-.132 5.926-.132 8.995 0 3.07-1.302 6.517.132 8.995 1.48 2.557 5.166 3.135 7.723 4.614zM24 5.045c7.136 0 12.941 5.805 12.941 12.94 0 7.137-5.806 12.942-12.941 12.942-7.136 0-12.941-5.805-12.941-12.941 0-7.136 5.805-12.941 12.94-12.941z" fill="#fff"/><path d="M24 28.49c5.792 0 10.503-4.712 10.503-10.504 0-5.791-4.711-10.503-10.503-10.503s-10.503 4.712-10.503 10.503c0 5.792 4.711 10.503 10.503 10.503z" fill="#fff"/></svg>