<svg width="34" height="48" fill="none" xmlns="http://www.w3.org/2000/svg"><path d="M24.604 17.372c0-4.175-3.412-7.571-7.604-7.571-4.193 0-7.604 3.396-7.604 7.57 0 4.175 3.411 7.571 7.604 7.571 4.192 0 7.604-3.396 7.604-7.57z" fill="#fff"/><path d="m16.996 47.997 3.082-4.031c3.217-4.259 13.711-18.768 13.711-26.701C33.79 6.94 27.043.003 17 .003 6.957.003.21 6.94.21 17.266c0 8.542 12.324 24.874 13.725 26.703l3.061 4.028zM6.396 17.37c0-5.828 4.757-10.57 10.604-10.57 5.847 0 10.604 4.742 10.604 10.57 0 5.829-4.757 10.57-10.604 10.57-5.847 0-10.604-4.74-10.604-10.57z" fill="#fff"/></svg>