<svg width="22" height="25" fill="none" xmlns="http://www.w3.org/2000/svg"><mask id="b" fill="#fff"><path fill-rule="evenodd" clip-rule="evenodd" d="M13.407 0H2a2 2 0 0 0-2 2v20.165a2 2 0 0 0 2 2h17.59a2 2 0 0 0 2-2v-14.2L13.408 0z"/></mask><path fill-rule="evenodd" clip-rule="evenodd" d="M13.407 0H2a2 2 0 0 0-2 2v20.165a2 2 0 0 0 2 2h17.59a2 2 0 0 0 2-2v-14.2L13.408 0z" fill="url(#a)" fill-opacity=".05"/><path d="m13.407 0 .697-.717L13.813-1h-.406v1zm8.184 7.965h1v-.422l-.303-.294-.697.716zM2 1h11.407v-2H2v2zM1 2a1 1 0 0 1 1-1v-2a3 3 0 0 0-3 3h2zm0 20.165V2h-2v20.165h2zm1 1a1 1 0 0 1-1-1h-2a3 3 0 0 0 3 3v-2zm17.59 0H2v2h17.59v-2zm1-1a1 1 0 0 1-1 1v2a3 3 0 0 0 3-3h-2zm0-14.2v14.2h2v-14.2h-2zm1.698-.716L14.104-.717 12.71.717l8.184 7.965 1.395-1.433z" fill="#11D9EB" mask="url(#b)"/><path d="M5.397 8.529h6.478M5.397 12.73h10.796M5.397 16.933h10.796" stroke="#11D9EB" stroke-linecap="round"/><defs><linearGradient id="a" x1=".504" y1="20.058" x2="21.349" y2="19.764" gradientUnits="userSpaceOnUse"><stop stop-color="#E42BC8"/><stop offset=".529" stop-color="#5670FD"/><stop offset="1" stop-color="#1DCEF4"/></linearGradient></defs></svg>