<svg width="153" height="48" fill="none" xmlns="http://www.w3.org/2000/svg"><path d="M14.901 22.25c.858-3.201 4.148-6.491 7.349-7.349l19.955-5.348c3.2-.858 5.1 1.042 4.242 4.243L41.099 33.75c-.858 3.2-4.148 6.49-7.348 7.348l-19.955 5.348c-3.201.858-5.1-1.042-4.243-4.242l5.348-19.955z" fill="#9E77ED"/><path d="M6.901 14.25c.858-3.201 4.148-6.491 7.349-7.349l19.955-5.348c3.2-.858 5.1 1.042 4.242 4.243L33.099 25.75c-.858 3.2-4.148 6.49-7.348 7.348L5.796 38.447c-3.201.858-5.1-1.042-4.243-4.242L6.901 14.25z" fill="#6941C6"/><path d="M64.989 31.748h6.864v2.687H61.66v-20.3h3.33v17.613zM73.528 26.315c0-1.616.33-3.048.993-4.294.681-1.246 1.597-2.21 2.746-2.892 1.168-.7 2.453-1.051 3.855-1.051 1.266 0 2.366.253 3.3.76.955.486 1.714 1.1 2.28 1.84V18.34h3.358v16.094h-3.359V32.04c-.565.76-1.334 1.392-2.307 1.898-.974.507-2.084.76-3.33.76a7.15 7.15 0 0 1-3.797-1.052c-1.15-.72-2.064-1.713-2.746-2.979-.662-1.285-.993-2.736-.993-4.352zm13.173.058c0-1.11-.234-2.074-.7-2.891-.449-.818-1.043-1.441-1.783-1.87a4.7 4.7 0 0 0-2.395-.642 4.7 4.7 0 0 0-2.395.642c-.74.41-1.343 1.023-1.81 1.84-.449.799-.673 1.753-.673 2.863s.224 2.083.672 2.92c.468.838 1.071 1.48 1.811 1.929.76.428 1.558.642 2.395.642a4.7 4.7 0 0 0 2.395-.642c.74-.429 1.334-1.052 1.782-1.87.467-.837.701-1.81.701-2.92zM108.921 18.34 99.049 42h-3.447l3.272-7.828-6.339-15.831h3.71l4.527 12.268 4.703-12.268h3.446zM126.185 25.994c0 .603-.039 1.148-.117 1.635h-12.297c.097 1.285.574 2.318 1.431 3.096.857.78 1.909 1.169 3.155 1.169 1.791 0 3.057-.75 3.797-2.25h3.593c-.487 1.48-1.373 2.698-2.658 3.652-1.266.935-2.843 1.402-4.732 1.402-1.538 0-2.921-.34-4.148-1.022a7.641 7.641 0 0 1-2.862-2.921c-.682-1.266-1.023-2.726-1.023-4.382 0-1.655.331-3.106.993-4.352.682-1.265 1.626-2.24 2.834-2.92 1.227-.682 2.629-1.023 4.206-1.023 1.519 0 2.872.331 4.06.993a6.992 6.992 0 0 1 2.775 2.804c.662 1.188.993 2.56.993 4.119zm-3.476-1.052c-.019-1.227-.458-2.21-1.314-2.95-.857-.74-1.918-1.11-3.184-1.11-1.149 0-2.132.37-2.95 1.11-.818.72-1.305 1.704-1.461 2.95h8.909zM132.792 20.678a5.145 5.145 0 0 1 1.927-1.899c.818-.467 1.782-.701 2.892-.701v3.447h-.847c-1.305 0-2.298.33-2.979.993-.662.662-.993 1.81-.993 3.446v8.471h-3.33V18.341h3.33v2.337zM146.514 34.698c-1.266 0-2.405-.224-3.418-.672-.993-.467-1.782-1.09-2.366-1.87a4.73 4.73 0 0 1-.934-2.657h3.446c.059.681.38 1.256.964 1.723.604.448 1.353.672 2.249.672.935 0 1.655-.175 2.162-.526.525-.37.788-.837.788-1.402 0-.604-.292-1.052-.876-1.344-.565-.292-1.47-.613-2.716-.963-1.208-.331-2.191-.653-2.95-.964a5.295 5.295 0 0 1-1.987-1.432c-.545-.642-.818-1.49-.818-2.54 0-.858.254-1.636.76-2.337.506-.721 1.227-1.286 2.161-1.695.955-.409 2.045-.613 3.272-.613 1.83 0 3.3.467 4.41 1.402 1.13.915 1.733 2.171 1.811 3.768h-3.33c-.058-.72-.35-1.295-.876-1.723-.526-.429-1.236-.643-2.132-.643-.876 0-1.548.166-2.015.497-.468.33-.701.769-.701 1.314 0 .428.155.789.467 1.08a3.51 3.51 0 0 0 1.139.702c.448.155 1.11.36 1.986.613 1.169.312 2.123.633 2.863.964a5.191 5.191 0 0 1 1.957 1.402c.545.623.827 1.45.847 2.483 0 .915-.253 1.733-.76 2.453-.506.72-1.226 1.286-2.161 1.694-.915.41-1.996.614-3.242.614z" fill="#fff"/></svg>