<svg width="151" height="42" fill="none" xmlns="http://www.w3.org/2000/svg"><path d="M21.592.328C10.175.328.92 9.583.92 21c0 11.416 9.255 20.672 20.672 20.672 10.242 0 18.745-7.45 20.386-17.227h-.149c-1.53 5.944-6.925 10.336-13.347 10.336-7.61 0-13.78-6.17-13.78-13.781 0-7.611 6.17-13.781 13.78-13.781 6.422 0 11.817 4.392 13.347 10.336h.148C40.337 7.778 31.835.328 21.592.328z" fill="#A4BCFD"/><path d="M.92 21C.92 9.583 10.175.328 21.592.328c10.242 0 18.745 7.45 20.386 17.227h-13.93c-1.53-5.944-6.925-10.336-13.347-10.336C7.09 7.219.92 13.389.92 20.999zM.92 21c0 11.417 9.255 20.672 20.672 20.672 10.242 0 18.745-7.45 20.386-17.227h-13.93c-1.53 5.944-6.925 10.336-13.347 10.336C7.09 34.781.92 28.611.92 21.001z" fill="#3538CD"/><path d="M71.804 17.718c-.588-4.25-3.858-6.717-8.1-6.717-4.998 0-8.764 3.644-8.764 9.829 0 6.175 3.719 9.828 8.764 9.828 4.55 0 7.568-2.943 8.1-6.596l-3.494-.018c-.44 2.242-2.27 3.503-4.56 3.503-3.101 0-5.325-2.326-5.325-6.717 0-4.317 2.205-6.718 5.335-6.718 2.326 0 4.148 1.318 4.55 3.606h3.494zM78.959 30.686c2.251 0 3.596-1.055 4.213-2.26h.112v1.97h3.252v-9.604c0-3.793-3.093-4.933-5.83-4.933-3.018 0-5.335 1.346-6.082 3.962l3.157.448c.337-.98 1.29-1.822 2.943-1.822 1.57 0 2.43.804 2.43 2.215v.056c0 .971-1.019 1.018-3.55 1.289-2.785.299-5.448 1.13-5.448 4.363 0 2.822 2.065 4.316 4.802 4.316zm.878-2.485c-1.411 0-2.42-.645-2.42-1.887 0-1.299 1.13-1.84 2.644-2.055.888-.122 2.663-.346 3.102-.701v1.69c0 1.598-1.29 2.953-3.326 2.953zM97.102 16.046h-2.83v-3.438h-3.383v3.438h-2.036v2.616h2.036v7.979c-.018 2.7 1.944 4.027 4.485 3.952a6.8 6.8 0 0 0 1.99-.336l-.57-2.644c-.187.046-.57.13-.99.13-.85 0-1.532-.299-1.532-1.663v-7.418h2.83v-2.616zM104.06 30.686c2.252 0 3.597-1.055 4.214-2.26h.112v1.97h3.251v-9.604c0-3.793-3.092-4.933-5.829-4.933-3.018 0-5.335 1.346-6.083 3.962l3.158.448c.337-.98 1.29-1.822 2.943-1.822 1.57 0 2.429.804 2.429 2.215v.056c0 .971-1.018 1.018-3.55 1.289-2.784.299-5.447 1.13-5.447 4.363 0 2.822 2.065 4.316 4.802 4.316zm.879-2.485c-1.411 0-2.42-.645-2.42-1.887 0-1.299 1.13-1.84 2.644-2.055.887-.122 2.663-.346 3.102-.701v1.69c0 1.598-1.29 2.953-3.326 2.953zM118.42 11.263h-3.382v19.134h3.382V11.263zM128.158 30.677c4.204 0 6.876-2.962 6.876-7.4 0-4.447-2.672-7.418-6.876-7.418-4.204 0-6.876 2.971-6.876 7.418 0 4.438 2.672 7.4 6.876 7.4zm.019-2.71c-2.327 0-3.467-2.073-3.467-4.699 0-2.625 1.14-4.727 3.467-4.727 2.289 0 3.428 2.102 3.428 4.727 0 2.625-1.139 4.7-3.428 4.7zM144.146 36.077c3.877 0 6.736-1.775 6.736-5.447V16.046h-3.335v2.373h-.187c-.514-1.037-1.588-2.56-4.12-2.56-3.317 0-5.924 2.598-5.924 7.316 0 4.68 2.607 7.016 5.914 7.016 2.457 0 3.607-1.317 4.13-2.373h.168v2.719c0 2.111-1.401 2.98-3.326 2.98-2.037 0-2.934-.962-3.345-1.803l-3.046.738c.617 2.009 2.682 3.625 6.335 3.625zm.028-8.54c-2.233 0-3.41-1.737-3.41-4.381 0-2.607 1.158-4.522 3.41-4.522 2.177 0 3.373 1.803 3.373 4.522 0 2.738-1.215 4.382-3.373 4.382z" fill="#fff"/></svg>