<svg width="151" height="38" fill="none" xmlns="http://www.w3.org/2000/svg"><path d="M13.563 26.732c7.117 0 12.886-5.77 12.886-12.886 0-.807-.074-1.596-.216-2.362a12.965 12.965 0 0 0-2.361-.215c-7.117 0-12.887 5.769-12.887 12.886 0 .806.075 1.596.216 2.361.766.142 1.555.216 2.362.216z" fill="#175CD3"/><path fill-rule="evenodd" clip-rule="evenodd" d="M11.2 26.516C5.213 25.406.677 20.156.677 13.846.676 6.727 6.446.958 13.562.958c6.31 0 11.562 4.536 12.67 10.525a12.958 12.958 0 0 0-2.36-.216c-7.118 0-12.887 5.77-12.887 12.886 0 .807.074 1.596.216 2.362z" fill="#1570EF"/><path fill-rule="evenodd" clip-rule="evenodd" d="M13.563 26.731c7.117 0 12.886-5.77 12.886-12.886 0-.807-.074-1.596-.216-2.362 5.99 1.11 10.525 6.36 10.525 12.67 0 7.118-5.77 12.887-12.886 12.887-6.31 0-11.562-4.535-12.67-10.525.765.142 1.554.216 2.36.216z" fill="#2E90FA"/><path d="M61.546 23.022c-.459 1.484-1.263 2.594-2.41 3.329-1.149.72-2.488 1.08-4.019 1.08-1.5 0-2.801-.315-3.903-.942-1.087-.628-1.93-1.523-2.526-2.687-.582-1.163-.873-2.556-.873-4.179 0-1.622.299-3.015.896-4.179.597-1.163 1.439-2.059 2.526-2.686 1.087-.628 2.365-.941 3.834-.941 1.546 0 2.87.329 3.972.987 1.118.643 1.883 1.622 2.297 2.939l-2.87 1.217c-.26-.919-.659-1.57-1.195-1.952-.535-.398-1.224-.597-2.066-.597-1.255 0-2.258.452-3.008 1.355-.735.888-1.102 2.173-1.102 3.857 0 1.669.352 2.955 1.056 3.858.704.903 1.722 1.354 3.054 1.354.826 0 1.538-.222 2.135-.665.613-.444 1.041-1.118 1.286-2.021l2.916.873zM65.51 14.067c-1.301 0-1.952-.559-1.952-1.677 0-1.132.65-1.699 1.952-1.699 1.3 0 1.951.567 1.951 1.7 0 1.117-.65 1.676-1.951 1.676zm1.561 1.653V27.2h-3.146V15.72h3.146zM70.406 27.2V15.72h2.732l.207 2.25c.29-.78.727-1.385 1.308-1.814.597-.444 1.347-.666 2.25-.666.536 0 .95.085 1.24.253l-.367 2.64a3.781 3.781 0 0 0-.574-.114 4.209 4.209 0 0 0-.85-.07c-.474 0-.925.115-1.354.345-.413.214-.758.551-1.033 1.01-.276.444-.414 1.01-.414 1.7V27.2h-3.145zM85.08 15.49c1.531 0 2.717.33 3.56.988.856.658 1.423 1.454 1.698 2.388L87.4 19.922c-.306-1.393-1.064-2.09-2.273-2.09-.872 0-1.553.306-2.043.919-.475.612-.712 1.523-.712 2.732 0 1.225.245 2.136.735 2.732.505.582 1.186.873 2.043.873 1.332 0 2.128-.681 2.388-2.044l2.847.919c-.26 1.026-.842 1.86-1.745 2.503-.888.643-2.043.964-3.467.964-1.194 0-2.242-.237-3.145-.712a5.015 5.015 0 0 1-2.067-2.043c-.49-.888-.735-1.96-.735-3.215s.245-2.326.735-3.214a5.202 5.202 0 0 1 2.067-2.044c.887-.474 1.905-.712 3.053-.712zM98.064 15.49c1.148 0 2.166.238 3.054.712a5.02 5.02 0 0 1 2.066 2.044c.505.888.758 1.959.758 3.214s-.253 2.327-.758 3.215a5.02 5.02 0 0 1-2.066 2.043c-.888.475-1.906.712-3.054.712-1.164 0-2.19-.237-3.077-.712a5.202 5.202 0 0 1-2.066-2.043c-.49-.888-.735-1.96-.735-3.215s.245-2.326.734-3.214a5.202 5.202 0 0 1 2.067-2.044c.888-.474 1.913-.712 3.077-.712zm0 2.342c-.857 0-1.531.306-2.02.919-.475.597-.713 1.5-.713 2.71 0 1.209.238 2.12.712 2.732.49.597 1.164.895 2.02.895.843 0 1.5-.298 1.975-.895.49-.613.735-1.524.735-2.733 0-1.21-.245-2.112-.735-2.71-.474-.611-1.132-.918-1.974-.918zM111.809 15.49c1.148 0 2.166.238 3.054.712a5.008 5.008 0 0 1 2.066 2.044c.506.888.758 1.959.758 3.214s-.252 2.327-.758 3.215a5.008 5.008 0 0 1-2.066 2.043c-.888.475-1.906.712-3.054.712-1.163 0-2.189-.237-3.077-.712a5.203 5.203 0 0 1-2.066-2.043c-.49-.888-.735-1.96-.735-3.215s.245-2.326.735-3.214a5.203 5.203 0 0 1 2.066-2.044c.888-.474 1.914-.712 3.077-.712zm0 2.342c-.857 0-1.531.306-2.02.919-.475.597-.712 1.5-.712 2.71 0 1.209.237 2.12.712 2.732.489.597 1.163.895 2.02.895.842 0 1.5-.298 1.975-.895.49-.613.735-1.524.735-2.733 0-1.21-.245-2.112-.735-2.71-.475-.611-1.133-.918-1.975-.918zM123.419 10.691v12.973c0 .536.092.911.276 1.126.183.214.489.321.918.321.26 0 .475-.015.643-.046.168-.03.383-.092.643-.184l-.276 2.067c-.26.153-.589.268-.987.344a4.9 4.9 0 0 1-1.148.138c-1.118 0-1.937-.268-2.457-.803-.505-.552-.758-1.424-.758-2.618V10.69h3.146zM132.979 27.43c-1.807 0-3.253-.52-4.34-1.561-1.087-1.056-1.63-2.526-1.63-4.409 0-1.255.245-2.326.734-3.214a5.05 5.05 0 0 1 2.044-2.044c.888-.474 1.898-.712 3.031-.712 1.163 0 2.151.238 2.962.712a4.65 4.65 0 0 1 1.86 1.906c.428.796.643 1.707.643 2.732 0 .306-.008.597-.023.873-.016.275-.039.52-.069.735h-8.106c.123.887.429 1.553.919 1.997.505.429 1.156.643 1.952.643.673 0 1.217-.13 1.63-.39.413-.26.735-.62.964-1.08l2.503.965c-.367.903-1.01 1.607-1.929 2.112-.918.49-1.967.735-3.145.735zm-.184-9.62c-1.485 0-2.38.818-2.687 2.456h5.167c-.092-.796-.352-1.4-.781-1.814-.413-.428-.98-.643-1.699-.643zM145.541 27.43c-1.164 0-2.228-.206-3.192-.62-.949-.413-1.722-.995-2.319-1.745l1.814-1.837a4.318 4.318 0 0 0 1.469 1.355c.613.352 1.34.528 2.182.528.597 0 1.071-.084 1.423-.253.368-.183.551-.466.551-.85a.844.844 0 0 0-.252-.62c-.169-.183-.505-.328-1.01-.435l-2.021-.414c-1.332-.275-2.281-.689-2.847-1.24-.551-.566-.827-1.293-.827-2.18 0-.628.184-1.218.551-1.769.383-.55.949-.995 1.699-1.332.75-.352 1.684-.528 2.802-.528 2.326 0 3.995.712 5.005 2.136l-1.883 1.837a3.28 3.28 0 0 0-1.331-1.217 3.515 3.515 0 0 0-1.7-.437c-1.347 0-2.02.375-2.02 1.125 0 .245.107.46.321.643.215.169.605.314 1.171.437l2.342.482c1.133.23 1.944.62 2.434 1.17.49.537.735 1.187.735 1.953 0 1.102-.444 2.012-1.332 2.732-.872.72-2.127 1.08-3.765 1.08z" fill="#fff"/></svg>