<svg width="152" height="38" fill="none" xmlns="http://www.w3.org/2000/svg"><path fill-rule="evenodd" clip-rule="evenodd" d="M18.405 28.125c5.56 0 10.067-4.508 10.067-10.068S23.965 7.99 18.405 7.99c-5.56 0-10.068 4.507-10.068 10.067 0 5.56 4.508 10.068 10.068 10.068zm0 7.698c9.812 0 17.766-7.954 17.766-17.766C36.17 8.245 28.217.291 18.405.291 8.593.291.639 8.245.639 18.057c0 9.812 7.954 17.766 17.766 17.766z" fill="#6938EF"/><path d="M18.608 18.446a4.738 4.738 0 0 1 6.7 0l9.212 9.212a4.738 4.738 0 1 1-6.7 6.7l-9.212-9.212a4.738 4.738 0 0 1 0-6.7z" fill="#F670C7"/><path d="m21.194 27.732 5.851 5.85a17.852 17.852 0 0 0 6.752-6.648l-5.803-5.803a10.09 10.09 0 0 1-6.8 6.6z" fill="#6519BA"/><path d="M64.855 27.828a5.039 5.039 0 0 1-1.877 1.447c-.723.332-1.522.498-2.397.498-1.175 0-2.238-.257-3.188-.77-.95-.497-2.035-1.386-3.256-2.667-1.432-.181-2.713-.641-3.844-1.38a7.923 7.923 0 0 1-2.623-2.849c-.618-1.176-.927-2.472-.927-3.889 0-1.553.37-2.947 1.108-4.183a7.963 7.963 0 0 1 3.098-2.94c1.326-.708 2.811-1.062 4.454-1.062 1.643 0 3.12.354 4.432 1.063a7.963 7.963 0 0 1 3.098 2.939c.754 1.236 1.13 2.63 1.13 4.183 0 1.84-.52 3.452-1.56 4.839-1.025 1.387-2.389 2.352-4.092 2.894.377.392.738.671 1.085.837.362.18.746.271 1.153.271.98 0 1.84-.392 2.578-1.176l1.628 1.945zm-14.404-9.61c0 .98.212 1.854.633 2.623a4.788 4.788 0 0 0 1.787 1.809c.754.422 1.598.633 2.532.633.935 0 1.78-.211 2.533-.633A4.625 4.625 0 0 0 59.7 20.84c.437-.769.655-1.643.655-2.623 0-.98-.218-1.854-.655-2.623a4.47 4.47 0 0 0-1.764-1.786c-.754-.437-1.598-.656-2.533-.656-.934 0-1.778.219-2.532.656a4.623 4.623 0 0 0-1.787 1.786c-.422.769-.633 1.643-.633 2.623zM78.823 13.967v12.165h-3.346v-1.447a4.8 4.8 0 0 1-1.674 1.22 5.39 5.39 0 0 1-2.103.408c-1.597 0-2.864-.46-3.798-1.38-.935-.919-1.402-2.283-1.402-4.092v-6.874h3.527v6.354c0 1.96.822 2.94 2.465 2.94.844 0 1.522-.272 2.035-.815.512-.557.769-1.379.769-2.464v-6.015h3.527zM87.88 26.313c-1.282 0-2.435-.264-3.46-.791a6.065 6.065 0 0 1-2.374-2.239c-.573-.95-.86-2.027-.86-3.233s.287-2.284.86-3.234A5.906 5.906 0 0 1 84.42 14.6c1.025-.542 2.178-.814 3.46-.814 1.28 0 2.426.272 3.436.814a5.906 5.906 0 0 1 2.374 2.216c.573.95.86 2.028.86 3.234s-.287 2.283-.86 3.233a6.065 6.065 0 0 1-2.374 2.238c-1.01.528-2.155.792-3.437.792zm0-2.894c.904 0 1.642-.302 2.215-.905.588-.618.882-1.44.882-2.464 0-1.026-.294-1.84-.882-2.442-.573-.619-1.311-.928-2.216-.928-.904 0-1.65.31-2.238.928-.588.602-.882 1.416-.882 2.442 0 1.025.294 1.846.882 2.464.588.603 1.334.905 2.238.905zM104.754 25.544c-.347.256-.777.452-1.289.588-.498.12-1.025.18-1.583.18-1.447 0-2.57-.368-3.37-1.107-.783-.739-1.175-1.824-1.175-3.256v-4.997H95.46v-2.714h1.877v-2.962h3.527v2.963h3.03v2.713h-3.03v4.952c0 .512.129.912.385 1.198.271.271.648.407 1.13.407.558 0 1.033-.15 1.425-.452l.95 2.487zM106.734 13.967h3.527v12.165h-3.527V13.967zm1.763-1.696c-.648 0-1.175-.188-1.582-.565a1.834 1.834 0 0 1-.611-1.402c0-.558.204-1.025.611-1.402.407-.377.934-.565 1.582-.565.649 0 1.176.18 1.583.543.407.361.611.814.611 1.356 0 .588-.204 1.078-.611 1.47-.407.377-.934.565-1.583.565zM125.451 20.095c0 .045-.023.362-.068.95h-9.203c.166.753.558 1.349 1.176 1.786.618.437 1.387.655 2.306.655.634 0 1.191-.09 1.674-.27a4.205 4.205 0 0 0 1.379-.905l1.877 2.035c-1.146 1.311-2.819 1.967-5.02 1.967-1.372 0-2.585-.264-3.64-.791-1.056-.543-1.87-1.29-2.442-2.239-.573-.95-.86-2.027-.86-3.233 0-1.191.279-2.262.837-3.211a5.936 5.936 0 0 1 2.329-2.239c.995-.542 2.103-.814 3.324-.814 1.191 0 2.268.257 3.233.769a5.513 5.513 0 0 1 2.261 2.216c.558.95.837 2.058.837 3.324zm-6.309-3.64c-.799 0-1.469.226-2.012.678-.543.452-.874 1.07-.995 1.854h5.992c-.12-.769-.452-1.38-.995-1.832-.542-.467-1.206-.7-1.99-.7zM135.193 13.786c1.508 0 2.721.453 3.641 1.357.934.904 1.402 2.246 1.402 4.025v6.964h-3.528V19.71c0-.964-.211-1.68-.633-2.148-.422-.482-1.032-.723-1.831-.723-.89 0-1.598.279-2.126.836-.527.543-.791 1.357-.791 2.442v6.015h-3.528V13.967h3.369v1.425a4.57 4.57 0 0 1 1.742-1.176 5.92 5.92 0 0 1 2.283-.43zM151.279 25.544c-.347.256-.776.452-1.289.588-.497.12-1.025.18-1.582.18-1.448 0-2.571-.368-3.37-1.107-.783-.739-1.175-1.824-1.175-3.256v-4.997h-1.877v-2.714h1.877v-2.962h3.527v2.963h3.03v2.713h-3.03v4.952c0 .512.128.912.384 1.198.272.271.649.407 1.131.407.558 0 1.033-.15 1.424-.452l.95 2.487z" fill="#fff"/></svg>