<svg width="151" height="36" fill="none" xmlns="http://www.w3.org/2000/svg"><path d="M26.624 18.001a15.056 15.056 0 0 1-11.25 5.031c-4.47 0-8.487-1.943-11.251-5.031a15.057 15.057 0 0 1 11.25-5.031c4.47 0 8.487 1.943 11.251 5.031z" fill="#fff"/><path fill-rule="evenodd" clip-rule="evenodd" d="M.28 28.064c0-8.337 6.757-15.094 15.093-15.094-4.47 0-8.486 1.943-11.25 5.031a15.056 15.056 0 0 0 11.25 5.031c4.47 0 8.487-1.943 11.25-5.031a15.038 15.038 0 0 1 3.844 10.063v5.702c0 .74-.6 1.342-1.342 1.342H1.621c-.741 0-1.342-.601-1.342-1.342v-5.702zM26.623 18z" fill="#7CD4FD"/><path fill-rule="evenodd" clip-rule="evenodd" d="M9.712 21.934A15.127 15.127 0 0 1 4.122 18a15.056 15.056 0 0 1 11.251-5.031c4.47 0 8.487 1.943 11.25 5.031a15.038 15.038 0 0 0 3.844-10.063V2.235c0-.74-.6-1.341-1.342-1.341H1.621c-.741 0-1.342.6-1.342 1.341v5.702c0 6.334 3.902 11.757 9.433 13.997z" fill="#0BA5EC"/><path d="M54.043 10.58v15.197h-3.048v-6.466h-6.51v6.466h-3.047V10.58h3.048v6.249h6.51V10.58h3.047zM62.4 25.973c-1.162 0-2.207-.254-3.136-.762a5.717 5.717 0 0 1-2.199-2.199c-.522-.943-.784-2.032-.784-3.266 0-1.233.269-2.322.806-3.265a5.672 5.672 0 0 1 2.242-2.178c.944-.522 1.996-.783 3.157-.783 1.162 0 2.214.26 3.157.783a5.525 5.525 0 0 1 2.221 2.178c.552.943.827 2.032.827 3.265 0 1.234-.283 2.323-.849 3.266a5.785 5.785 0 0 1-2.264 2.2c-.943.507-2.003.761-3.179.761zm0-2.656c.55 0 1.066-.13 1.545-.392a2.979 2.979 0 0 0 1.176-1.22c.29-.536.435-1.19.435-1.959 0-1.146-.305-2.024-.914-2.634-.595-.624-1.328-.936-2.2-.936-.87 0-1.603.312-2.198.936-.58.61-.871 1.488-.871 2.634 0 1.147.283 2.032.85 2.657.58.61 1.306.914 2.176.914zM82.314 13.716v12.061h-3.07v-1.524a4.098 4.098 0 0 1-1.546 1.241 4.793 4.793 0 0 1-2.046.436c-.944 0-1.778-.196-2.504-.588-.726-.407-1.3-.994-1.72-1.764-.406-.784-.61-1.712-.61-2.787v-7.075h3.048v6.64c0 .958.24 1.698.719 2.22.479.509 1.132.763 1.96.763.841 0 1.502-.254 1.98-.762.48-.523.72-1.263.72-2.221v-6.64h3.069zM88.37 15.588c.391-.639.9-1.14 1.523-1.502.639-.363 1.365-.545 2.177-.545v3.2h-.805c-.958 0-1.684.226-2.177.676-.48.45-.719 1.233-.719 2.351v6.01h-3.048V13.715h3.048v1.872zM98.848 13.52c.9 0 1.691.181 2.373.544.682.348 1.219.806 1.611 1.371v-1.72h3.07v12.15c0 1.117-.225 2.111-.675 2.982-.45.885-1.125 1.582-2.025 2.09-.899.523-1.988.784-3.265.784-1.713 0-3.121-.4-4.224-1.198-1.089-.798-1.706-1.886-1.85-3.265h3.026c.16.551.5.987 1.023 1.306.537.334 1.183.5 1.938.5.885 0 1.603-.268 2.155-.805.552-.522.827-1.32.827-2.395v-1.872c-.392.566-.936 1.038-1.633 1.415-.682.377-1.466.566-2.351.566a5.18 5.18 0 0 1-2.787-.784c-.842-.522-1.51-1.255-2.003-2.199-.479-.958-.718-2.053-.718-3.287 0-1.22.24-2.3.718-3.244.494-.944 1.154-1.67 1.981-2.177.842-.508 1.778-.762 2.809-.762zm3.984 6.226c0-.74-.145-1.371-.435-1.894a2.975 2.975 0 0 0-1.176-1.219 3.08 3.08 0 0 0-1.59-.435c-.565 0-1.088.137-1.567.413-.479.276-.87.682-1.175 1.22-.29.522-.436 1.146-.436 1.872 0 .726.145 1.364.436 1.916.304.537.696.95 1.175 1.24.494.291 1.016.436 1.568.436.566 0 1.096-.138 1.589-.414.494-.29.886-.696 1.176-1.219.29-.537.435-1.175.435-1.916zM111.927 9.666v16.111h-3.048V9.666h3.048zM114.155 19.703c0-1.22.239-2.3.718-3.244.494-.944 1.154-1.67 1.982-2.177.841-.508 1.778-.762 2.808-.762.9 0 1.684.181 2.351.544.683.363 1.227.82 1.633 1.371v-1.72h3.07v12.062h-3.07v-1.763c-.392.566-.936 1.037-1.633 1.415-.682.363-1.473.544-2.373.544a5.176 5.176 0 0 1-2.786-.784c-.828-.522-1.488-1.255-1.982-2.199-.479-.958-.718-2.053-.718-3.287zm9.492.043c0-.74-.145-1.371-.435-1.894a2.975 2.975 0 0 0-1.176-1.219 3.08 3.08 0 0 0-1.589-.435c-.566 0-1.089.137-1.568.413-.479.276-.871.682-1.175 1.22-.291.522-.436 1.146-.436 1.872 0 .726.145 1.364.436 1.916.304.537.696.95 1.175 1.24.494.291 1.016.436 1.568.436.566 0 1.096-.138 1.589-.414.494-.29.886-.696 1.176-1.219.29-.537.435-1.175.435-1.916zM134.31 25.973c-.987 0-1.873-.174-2.656-.522-.784-.363-1.408-.85-1.873-1.46a3.707 3.707 0 0 1-.74-2.024h3.07c.058.465.283.85.675 1.154.406.305.907.457 1.502.457.581 0 1.03-.116 1.35-.348.334-.232.501-.53.501-.893 0-.392-.204-.682-.61-.87-.392-.204-1.023-.422-1.894-.654-.9-.217-1.64-.442-2.221-.675a3.947 3.947 0 0 1-1.48-1.067c-.407-.479-.61-1.124-.61-1.937 0-.668.189-1.277.566-1.83.392-.55.943-.986 1.655-1.305.725-.32 1.575-.48 2.547-.48 1.437 0 2.584.364 3.44 1.09.856.71 1.328 1.676 1.415 2.895h-2.917c-.044-.48-.247-.857-.61-1.132-.348-.29-.82-.436-1.415-.436-.552 0-.98.102-1.285.305a.979.979 0 0 0-.435.85c0 .406.203.718.61.935.406.204 1.037.414 1.894.632.871.217 1.589.442 2.155.675a3.684 3.684 0 0 1 1.459 1.088c.421.48.638 1.118.653 1.916 0 .697-.196 1.321-.588 1.873-.377.551-.929.987-1.655 1.306-.711.305-1.545.457-2.503.457zM146.174 25.973c-.987 0-1.873-.174-2.657-.522-.783-.363-1.407-.85-1.872-1.46a3.707 3.707 0 0 1-.74-2.024h3.07c.058.465.283.85.675 1.154.406.305.907.457 1.502.457.58 0 1.03-.116 1.35-.348.334-.232.5-.53.5-.893 0-.392-.203-.682-.609-.87-.392-.204-1.023-.422-1.894-.654-.9-.217-1.64-.442-2.221-.675a3.94 3.94 0 0 1-1.48-1.067c-.407-.479-.61-1.124-.61-1.937 0-.668.189-1.277.566-1.83.392-.55.943-.986 1.655-1.305.725-.32 1.574-.48 2.547-.48 1.437 0 2.584.364 3.44 1.09.856.71 1.328 1.676 1.415 2.895h-2.917c-.044-.48-.247-.857-.61-1.132-.348-.29-.82-.436-1.415-.436-.552 0-.98.102-1.285.305a.979.979 0 0 0-.435.85c0 .406.203.718.609.935.407.204 1.038.414 1.895.632.87.217 1.589.442 2.155.675a3.684 3.684 0 0 1 1.459 1.088c.421.48.638 1.118.653 1.916 0 .697-.196 1.321-.588 1.873-.377.551-.929.987-1.655 1.306-.711.305-1.545.457-2.503.457z" fill="#fff"/></svg>